<svg width="17" height="23" viewBox="0 0 17 23" fill="none" xmlns="http://www.w3.org/2000/svg">
<path d="M12.9454 14.4737C12.9454 14.4737 10.2485 17.0807 8.00098 19.2683V22.2649C7.76125 22.4447 16.002 14.5036 16.002 14.5036L8.00098 6.11304V9.31944L12.9454 14.4737Z" fill="black"/>
<path d="M7.97105 16.2417L0 7.76122L0.119864 7.64136L8.06095 16.1518L7.97105 16.2417Z" fill="black"/>
<path d="M7.97104 15.4625L0.749146 7.76116L0.839041 7.67126L8.06094 15.3427L7.97104 15.4625Z" fill="black"/>
<path d="M7.97109 14.6534L1.46838 7.79113L1.58825 7.67126L8.06098 14.5635L7.97109 14.6534Z" fill="black"/>
<path d="M7.97107 13.8444L2.21753 7.79119L2.30742 7.70129L8.06097 13.7545L7.97107 13.8444Z" fill="black"/>
<path d="M7.94103 13.0653L2.93665 7.79119L3.02655 7.70129L8.0609 12.9754L7.94103 13.0653Z" fill="black"/>
<path d="M0.179809 7.79125L0.0599365 7.70135L7.97106 0L8.06096 0.0898954L0.179809 7.79125Z" fill="black"/>
<path d="M0.898987 7.7913L0.809082 7.7014L7.97105 0.719238L8.06095 0.839102L0.898987 7.7913Z" fill="black"/>
<path d="M1.64813 7.79123L1.55823 7.70133L7.94107 1.43835L8.06093 1.55822L1.64813 7.79123Z" fill="black"/>
<path d="M2.39733 7.79121L2.27747 7.70131L7.94111 2.1875L8.031 2.2774L2.39733 7.79121Z" fill="black"/>
<path d="M3.11651 7.8211L3.02661 7.7312L7.94109 2.90662L8.03099 2.99652L3.11651 7.8211Z" fill="black"/>
</svg>
