<svg width="21" height="20" viewBox="0 0 21 20" fill="none" xmlns="http://www.w3.org/2000/svg">
<path d="M13.4833 10.0001C13.4833 11.6501 12.1499 12.9834 10.4999 12.9834C8.84993 12.9834 7.5166 11.6501 7.5166 10.0001C7.5166 8.35006 8.84993 7.01672 10.4999 7.01672C12.1499 7.01672 13.4833 8.35006 13.4833 10.0001Z" stroke="#38C24A" stroke-width="1.3" stroke-linecap="round" stroke-linejoin="round"/>
<path d="M10.5001 16.8916C13.4418 16.8916 16.1834 15.1582 18.0918 12.1582C18.8418 10.9832 18.8418 9.00825 18.0918 7.83325C16.1834 4.83325 13.4418 3.09991 10.5001 3.09991C7.55845 3.09991 4.81678 4.83325 2.90845 7.83325C2.15845 9.00825 2.15845 10.9832 2.90845 12.1582C4.81678 15.1582 7.55845 16.8916 10.5001 16.8916Z" stroke="#38C24A" stroke-width="1.3" stroke-linecap="round" stroke-linejoin="round"/>
</svg>
