<svg width="16" height="16" viewBox="0 0 16 16" fill="none" xmlns="http://www.w3.org/2000/svg">
<path d="M12.0934 14.4134C11.5067 14.5867 10.8134 14.6667 10.0001 14.6667H6.00007C5.18674 14.6667 4.4934 14.5867 3.90674 14.4134C4.0534 12.68 5.8334 11.3134 8.00007 11.3134C10.1667 11.3134 11.9467 12.68 12.0934 14.4134Z" stroke="#808080" stroke-width="1.1" stroke-linecap="round" stroke-linejoin="round"/>
<path d="M9.99992 1.33337H5.99992C2.66659 1.33337 1.33325 2.66671 1.33325 6.00004V10C1.33325 12.52 2.09325 13.9 3.90659 14.4134C4.05325 12.68 5.83325 11.3134 7.99992 11.3134C10.1666 11.3134 11.9466 12.68 12.0933 14.4134C13.9066 13.9 14.6666 12.52 14.6666 10V6.00004C14.6666 2.66671 13.3333 1.33337 9.99992 1.33337ZM7.99992 9.4467C6.67992 9.4467 5.61325 8.37339 5.61325 7.05339C5.61325 5.73339 6.67992 4.66671 7.99992 4.66671C9.31992 4.66671 10.3866 5.73339 10.3866 7.05339C10.3866 8.37339 9.31992 9.4467 7.99992 9.4467Z" stroke="#808080" stroke-width="1.1" stroke-linecap="round" stroke-linejoin="round"/>
<path d="M10.3866 7.0533C10.3866 8.3733 9.31995 9.44661 7.99995 9.44661C6.67995 9.44661 5.61328 8.3733 5.61328 7.0533C5.61328 5.7333 6.67995 4.66663 7.99995 4.66663C9.31995 4.66663 10.3866 5.7333 10.3866 7.0533Z" stroke="#808080" stroke-width="1.1" stroke-linecap="round" stroke-linejoin="round"/>
</svg>
