<svg width="20" height="20" viewBox="0 0 20 20" fill="none" xmlns="http://www.w3.org/2000/svg">
<path d="M7.49984 18.3334H12.4998C16.6665 18.3334 18.3332 16.6667 18.3332 12.5V7.50002C18.3332 3.33335 16.6665 1.66669 12.4998 1.66669H7.49984C3.33317 1.66669 1.6665 3.33335 1.6665 7.50002V12.5C1.6665 16.6667 3.33317 18.3334 7.49984 18.3334Z" stroke="#38C24A" stroke-width="1.3" stroke-linecap="round" stroke-linejoin="round"/>
<path d="M7.50016 8.33333C8.42064 8.33333 9.16683 7.58714 9.16683 6.66667C9.16683 5.74619 8.42064 5 7.50016 5C6.57969 5 5.8335 5.74619 5.8335 6.66667C5.8335 7.58714 6.57969 8.33333 7.50016 8.33333Z" stroke="#38C24A" stroke-width="1.3" stroke-linecap="round" stroke-linejoin="round"/>
<path d="M2.22461 15.7917L6.33294 13.0333C6.99128 12.5917 7.94128 12.6417 8.53294 13.15L8.80794 13.3917C9.45794 13.95 10.5079 13.95 11.1579 13.3917L14.6246 10.4167C15.2746 9.85834 16.3246 9.85834 16.9746 10.4167L18.3329 11.5833" stroke="#38C24A" stroke-width="1.3" stroke-linecap="round" stroke-linejoin="round"/>
</svg>
