<svg width="44" height="44" viewBox="0 0 44 44" fill="none" xmlns="http://www.w3.org/2000/svg">
<mask id="path-1-outside-1_27_435" maskUnits="userSpaceOnUse" x="0" y="0" width="44" height="44" fill="black">
<rect fill="white" width="44" height="44"/>
<path d="M25.9548 18.5525C25.648 18.4331 25.3413 18.3334 25.0509 18.1964C23.232 17.3352 22.2985 15.2917 22.8288 13.3479C22.8693 13.1989 22.9055 13.0466 22.9625 12.9031C23.1564 12.4155 23.232 12.0123 22.8902 11.4776C22.3061 10.5659 22.8748 9.33216 23.9146 8.97715C24.0209 8.941 24.1305 8.90374 24.2412 8.8884C25.235 8.75254 25.8584 8.18386 26.3383 7.31278C27.6466 4.934 29.6945 3.70681 32.4162 3.72325C36.3345 3.74735 39.4079 7.33579 38.882 11.219C38.4086 14.7143 36.1624 17.2333 32.7351 18.1142C32.3428 18.215 31.9549 18.3312 31.4312 18.478C31.7161 18.8812 31.9429 19.222 32.1949 19.542C32.2442 19.6044 32.4086 19.6318 32.4929 19.6022C34.4323 18.9064 36.1712 19.4127 37.7578 20.5511C40.2637 22.3492 41.4865 24.8539 41.6388 27.9088C41.6432 28.0074 41.6497 28.1071 41.6421 28.2046C41.5665 29.2477 41.7845 30.1528 42.3576 31.0984C43.8773 33.6075 42.6567 36.7971 39.8966 37.7964C37.0763 38.8176 34.2296 39.7676 31.4191 40.814C30.3683 41.2052 29.38 41.7673 28.372 42.2702C27.4483 42.7315 26.483 43.0054 25.4475 42.9999C23.9234 42.9912 22.6984 41.7892 22.682 40.2639C22.6655 38.6982 22.6732 37.1313 22.6787 35.5656C22.682 34.3756 22.4278 33.247 21.9226 32.17C21.6608 31.6122 21.4307 31.0392 21.1776 30.4508C20.2112 30.7642 19.2294 30.9209 18.2214 30.7258C17.9047 30.6645 17.5672 30.6228 17.2856 30.4793C16.4112 30.0333 15.4624 30.0487 14.5266 29.9621C13.741 29.8887 12.9433 29.869 12.1731 29.7167C9.56528 29.1984 7.78585 27.018 7.77818 24.3554C7.76613 20.1928 7.7716 16.0302 7.78147 11.8687C7.78256 11.5795 7.70915 11.368 7.50535 11.1609C6.95969 10.6043 6.65179 9.91398 6.47977 9.14918C6.01628 9.14918 5.56924 9.14918 5.06521 9.14918C5.06521 10.0433 5.07178 10.9264 5.06302 11.8096C5.05645 12.4626 4.69267 13.0367 4.08127 13.1178C3.39207 13.2088 2.67438 13.2044 1.98409 13.1189C1.40446 13.0466 1.01 12.4867 1.00781 11.895C0.997951 8.70652 0.996855 5.51692 1.00781 2.32841C1.01 1.58771 1.59292 1.03219 2.3369 1.00918C2.78833 0.996032 3.23977 0.998226 3.6912 1.00809C4.48339 1.02452 5.04987 1.58333 5.06192 2.37443C5.07507 3.25976 5.06521 4.144 5.06521 5.06877C5.52541 5.06877 5.94616 5.08082 6.36472 5.06001C6.45895 5.05562 6.58276 4.95263 6.63207 4.86278C7.06707 4.06182 7.73873 3.69804 8.64159 3.71338C9.31874 3.72543 9.99698 3.70243 10.673 3.71996C11.1321 3.73201 11.5901 3.78899 12.1205 3.83062C12.1632 3.76817 12.2519 3.62792 12.3495 3.49534C12.8655 2.79299 13.5624 2.40949 14.4313 2.36676C15.2827 2.32512 15.8864 2.90585 15.9028 3.75721C15.9105 4.17796 15.9039 4.59872 15.9039 5.04467C16.363 5.04467 16.7915 5.04467 17.2593 5.04467C17.2593 4.19988 17.2582 3.37152 17.2593 2.54208C17.2615 1.5417 17.7984 1.00808 18.8032 1.00589C19.1987 1.0048 19.5932 0.996032 19.9887 1.00918C20.7316 1.03329 21.3145 1.58881 21.3167 2.32951C21.3288 5.50377 21.3277 8.67912 21.3178 11.8534C21.3156 12.6171 20.7327 13.1759 19.9668 13.1956C19.5296 13.2066 19.0924 13.2044 18.6542 13.1967C17.8357 13.1825 17.2703 12.6248 17.2604 11.8096C17.2506 10.9363 17.2582 10.0641 17.2582 9.16233C16.7597 9.16233 16.2874 9.16233 15.8776 9.16233C15.458 9.86577 15.046 10.5462 14.6461 11.2332C14.5858 11.3362 14.5529 11.4699 14.5529 11.5893C14.5496 14.5948 14.5518 17.6004 14.554 20.6059C14.554 20.676 14.565 20.745 14.5759 20.8765C14.7239 20.8206 14.8477 20.7768 14.9693 20.7275C17.5048 19.7063 20.0238 19.7447 22.533 20.8305C22.7006 20.9028 22.923 20.8798 23.1137 20.8557C23.3208 20.8294 23.518 20.7155 23.724 20.699C24.9906 20.5982 25.4771 19.6526 25.9406 18.6774C25.9559 18.6424 25.9505 18.5985 25.9548 18.5525ZM15.1074 27.0037C15.7363 28.0041 16.5044 28.7733 17.5837 29.1699C18.6739 29.5699 19.7575 29.549 20.8653 29.0998C20.4018 26.6345 20.6703 24.2666 21.7123 21.9657C19.3675 21.0617 17.1037 21.1373 14.8444 22.2714C14.9474 22.5551 15.0372 22.7995 15.1337 23.0657C14.7293 23.2641 14.3436 23.4536 13.9426 23.6509C13.4331 22.611 13.1932 21.5646 13.1932 20.4613C13.1921 17.7384 13.226 15.0145 13.1745 12.2917C13.157 11.3581 13.3268 10.5626 13.9295 9.83947C14.4072 9.26752 14.5748 8.57503 14.5529 7.82447C14.5288 7.00708 14.5474 6.18749 14.5474 5.37009C14.5474 4.82443 14.5474 4.27877 14.5474 3.73091C13.7377 3.78022 13.2118 4.30397 13.1964 5.0611C13.1822 5.724 13.1986 6.38691 13.191 7.0509C13.1778 8.25947 12.3111 9.12179 11.0982 9.13055C10.0299 9.13822 8.96154 9.13165 7.76941 9.13165C8.08388 9.58308 8.32603 10.0509 8.68214 10.406C9.0229 10.7456 9.14014 11.0809 9.13795 11.551C9.12151 15.8122 9.12371 20.0734 9.13028 24.3346C9.13247 26.1271 10.1909 27.7104 11.8487 28.221C12.6924 28.4807 13.604 28.518 14.4861 28.6549C14.4992 28.6177 14.5135 28.5815 14.5266 28.5443C14.3612 28.3076 14.1946 28.0709 14.0182 27.8189C14.3798 27.5494 14.7151 27.2985 15.1074 27.0037ZM35.9751 32.7178C35.9389 32.7868 35.9323 32.8175 35.9126 32.834C34.0927 34.3964 32.2749 35.9611 30.445 37.5104C30.3475 37.5937 30.1328 37.608 29.9991 37.5674C29.3778 37.3833 28.7697 37.1587 28.1506 36.9681C27.6302 36.807 27.1185 36.9538 26.9245 37.4305C26.6791 38.032 26.2145 38.3004 25.6787 38.5349C25.3949 38.6587 25.121 38.8045 24.8471 38.9491C24.2116 39.2855 23.907 39.9308 24.0768 40.5707C24.2532 41.2358 24.8011 41.65 25.5166 41.6445C26.277 41.638 26.9881 41.4331 27.6718 41.1054C28.8387 40.5444 29.9805 39.9133 31.189 39.4597C33.891 38.4451 36.6303 37.5291 39.3488 36.5572C41.4317 35.8121 42.3444 33.4848 41.1282 31.6769C40.4346 30.6458 40.1782 29.6224 40.2867 28.4413C40.3042 28.2451 40.2933 28.0457 40.2823 27.8485C40.1837 26.0033 39.5854 24.3488 38.3769 22.9354C38.2783 22.8203 38.1051 22.6833 37.9758 22.6921C37.2351 22.7458 36.4594 22.7217 35.7658 22.9441C33.6555 23.6191 32.4316 25.1333 32.1993 27.3247C31.9834 29.3639 32.8874 30.8946 34.6548 31.9212C35.0941 32.1765 35.5236 32.445 35.9751 32.7178ZM24.0319 37.837C24.4592 37.6244 24.8438 37.4567 25.2032 37.2442C25.3982 37.1291 25.5933 36.967 25.7094 36.7763C26.3274 35.7661 27.4176 35.3245 28.5495 35.6653C28.9264 35.7792 29.3022 35.903 29.6693 36.0455C29.8961 36.1342 30.0506 36.0871 30.2314 35.9282C31.2088 35.0747 32.1982 34.2354 33.1832 33.3895C33.3487 33.2481 33.5119 33.1035 33.6851 32.9523C31.429 31.3668 30.3946 29.2565 30.9502 26.5698C31.5594 23.6224 33.5065 21.9536 36.4331 21.2995C35.9948 21.0913 35.5532 20.8875 35.0886 20.7713C33.5097 20.3791 32.4173 20.8371 31.5583 22.2089C31.0641 22.9978 30.582 23.7933 30.0725 24.5723C29.3143 25.7305 28.0093 26.263 26.6583 25.9902C25.3522 25.7272 24.3387 24.7082 24.1009 23.3736C24.0253 22.9474 24.0308 22.5069 23.9968 22.0435C23.3197 22.13 22.911 22.5212 22.6831 23.137C21.6761 25.862 21.7473 28.564 22.9734 31.1937C23.6977 32.7474 24.0954 34.3438 24.0341 36.0564C24.0144 36.6317 24.0319 37.2058 24.0319 37.837ZM31.1156 20.4054C30.3169 19.6241 30.0769 18.6018 30.1229 17.4689C30.1536 16.7227 30.1174 15.9732 30.1372 15.226C30.1415 15.0649 30.2215 14.871 30.3322 14.7537C30.8264 14.2311 31.3424 13.7292 31.853 13.2219C32.1138 12.9633 32.2519 12.673 32.0908 12.3092C31.9341 11.952 31.6394 11.8326 31.2679 11.8402C30.8943 11.8479 30.5196 11.8424 30.1032 11.8424C30.1032 11.357 30.158 10.9275 30.0933 10.5155C29.8917 9.24341 29.0765 8.53559 27.8745 8.18167C27.5568 8.08854 27.4067 8.11922 27.2434 8.41396C26.7624 9.28395 26.0239 9.83729 25.0553 10.0783C24.8635 10.1255 24.6729 10.1748 24.4833 10.2295C23.9815 10.3753 23.8927 10.7182 24.2554 11.1039C24.3321 11.1861 24.4066 11.2749 24.4965 11.3417C24.7561 11.5356 24.8175 11.7471 24.6838 12.0649C24.4932 12.5174 24.3562 12.994 24.2061 13.463C23.5717 15.4429 24.8854 17.2486 26.9684 17.2596C27.5568 17.2629 28.1452 17.2596 28.7478 17.2596C28.7478 17.7297 28.7478 18.157 28.7478 18.615C28.2745 18.615 27.8274 18.615 27.3902 18.615C26.9125 20.0482 26.8698 20.1117 25.6612 21.3389C25.5494 21.4529 25.4103 21.6019 25.4004 21.7421C25.3719 22.1771 25.3489 22.6231 25.4158 23.0504C25.5451 23.8755 26.0348 24.4244 26.8544 24.6436C27.7003 24.8693 28.5024 24.5252 29.0217 23.7133C29.7098 22.6351 30.3914 21.5504 31.1156 20.4054ZM28.2635 6.89203C30.1163 7.44426 31.1748 8.61776 31.475 10.4531C31.5298 10.4695 31.5681 10.4859 31.6087 10.4925C32.4962 10.6251 33.1262 11.0984 33.4067 11.9542C33.6938 12.8329 33.4221 13.5868 32.7745 14.2223C32.402 14.5872 32.0305 14.9531 31.6711 15.3312C31.5824 15.4243 31.498 15.5634 31.4925 15.6851C31.4706 16.119 31.4838 16.5551 31.4838 16.9835C31.5429 16.9966 31.5725 17.0131 31.5955 17.0065C31.9363 16.921 32.2793 16.841 32.6167 16.7424C35.0547 16.0324 36.6719 14.4765 37.3535 12.0232C38.3758 8.34274 35.7351 4.91428 32.0119 5.07754C30.5404 5.14328 29.3055 5.75468 28.2635 6.89203ZM2.38511 2.37772C2.38511 5.5476 2.38511 8.68351 2.38511 11.8074C2.84312 11.8074 3.27154 11.8074 3.689 11.8074C3.689 8.64735 3.689 5.5224 3.689 2.37772C3.24963 2.37772 2.83107 2.37772 2.38511 2.37772ZM18.641 2.37881C18.641 5.54759 18.641 8.68241 18.641 11.8085C19.0979 11.8085 19.5263 11.8085 19.946 11.8085C19.946 8.64954 19.946 5.52349 19.946 2.37881C19.5077 2.37881 19.0902 2.37881 18.641 2.37881ZM9.78113 7.77736C10.2183 7.77736 10.6555 7.78503 11.0927 7.77517C11.5693 7.76421 11.8235 7.51329 11.8356 7.04104C11.8465 6.63235 11.8454 6.22255 11.8356 5.81385C11.8235 5.33722 11.5737 5.07754 11.1015 5.07206C10.2413 5.0622 9.3801 5.0622 8.51997 5.07206C8.04334 5.07754 7.79023 5.33174 7.77708 5.80509C7.76613 6.21379 7.76722 6.62358 7.77708 7.03228C7.78804 7.50891 8.03896 7.76311 8.51121 7.77517C8.93415 7.78612 9.35709 7.77736 9.78113 7.77736ZM6.40416 6.45703C5.93191 6.45703 5.50459 6.45703 5.08713 6.45703C5.08713 6.90846 5.08713 7.32483 5.08713 7.75216C5.53636 7.75216 5.96369 7.75216 6.40416 7.75216C6.40416 7.3084 6.40416 6.89203 6.40416 6.45703ZM15.9379 6.43183C15.9379 6.87121 15.9379 7.3073 15.9379 7.74887C16.3795 7.74887 16.8057 7.74887 17.2254 7.74887C17.2254 7.29306 17.2254 6.86573 17.2254 6.43183C16.7871 6.43183 16.3806 6.43183 15.9379 6.43183Z"/>
</mask>
<path d="M25.9548 18.5525C25.648 18.4331 25.3413 18.3334 25.0509 18.1964C23.232 17.3352 22.2985 15.2917 22.8288 13.3479C22.8693 13.1989 22.9055 13.0466 22.9625 12.9031C23.1564 12.4155 23.232 12.0123 22.8902 11.4776C22.3061 10.5659 22.8748 9.33216 23.9146 8.97715C24.0209 8.941 24.1305 8.90374 24.2412 8.8884C25.235 8.75254 25.8584 8.18386 26.3383 7.31278C27.6466 4.934 29.6945 3.70681 32.4162 3.72325C36.3345 3.74735 39.4079 7.33579 38.882 11.219C38.4086 14.7143 36.1624 17.2333 32.7351 18.1142C32.3428 18.215 31.9549 18.3312 31.4312 18.478C31.7161 18.8812 31.9429 19.222 32.1949 19.542C32.2442 19.6044 32.4086 19.6318 32.4929 19.6022C34.4323 18.9064 36.1712 19.4127 37.7578 20.5511C40.2637 22.3492 41.4865 24.8539 41.6388 27.9088C41.6432 28.0074 41.6497 28.1071 41.6421 28.2046C41.5665 29.2477 41.7845 30.1528 42.3576 31.0984C43.8773 33.6075 42.6567 36.7971 39.8966 37.7964C37.0763 38.8176 34.2296 39.7676 31.4191 40.814C30.3683 41.2052 29.38 41.7673 28.372 42.2702C27.4483 42.7315 26.483 43.0054 25.4475 42.9999C23.9234 42.9912 22.6984 41.7892 22.682 40.2639C22.6655 38.6982 22.6732 37.1313 22.6787 35.5656C22.682 34.3756 22.4278 33.247 21.9226 32.17C21.6608 31.6122 21.4307 31.0392 21.1776 30.4508C20.2112 30.7642 19.2294 30.9209 18.2214 30.7258C17.9047 30.6645 17.5672 30.6228 17.2856 30.4793C16.4112 30.0333 15.4624 30.0487 14.5266 29.9621C13.741 29.8887 12.9433 29.869 12.1731 29.7167C9.56528 29.1984 7.78585 27.018 7.77818 24.3554C7.76613 20.1928 7.7716 16.0302 7.78147 11.8687C7.78256 11.5795 7.70915 11.368 7.50535 11.1609C6.95969 10.6043 6.65179 9.91398 6.47977 9.14918C6.01628 9.14918 5.56924 9.14918 5.06521 9.14918C5.06521 10.0433 5.07178 10.9264 5.06302 11.8096C5.05645 12.4626 4.69267 13.0367 4.08127 13.1178C3.39207 13.2088 2.67438 13.2044 1.98409 13.1189C1.40446 13.0466 1.01 12.4867 1.00781 11.895C0.997951 8.70652 0.996855 5.51692 1.00781 2.32841C1.01 1.58771 1.59292 1.03219 2.3369 1.00918C2.78833 0.996032 3.23977 0.998226 3.6912 1.00809C4.48339 1.02452 5.04987 1.58333 5.06192 2.37443C5.07507 3.25976 5.06521 4.144 5.06521 5.06877C5.52541 5.06877 5.94616 5.08082 6.36472 5.06001C6.45895 5.05562 6.58276 4.95263 6.63207 4.86278C7.06707 4.06182 7.73873 3.69804 8.64159 3.71338C9.31874 3.72543 9.99698 3.70243 10.673 3.71996C11.1321 3.73201 11.5901 3.78899 12.1205 3.83062C12.1632 3.76817 12.2519 3.62792 12.3495 3.49534C12.8655 2.79299 13.5624 2.40949 14.4313 2.36676C15.2827 2.32512 15.8864 2.90585 15.9028 3.75721C15.9105 4.17796 15.9039 4.59872 15.9039 5.04467C16.363 5.04467 16.7915 5.04467 17.2593 5.04467C17.2593 4.19988 17.2582 3.37152 17.2593 2.54208C17.2615 1.5417 17.7984 1.00808 18.8032 1.00589C19.1987 1.0048 19.5932 0.996032 19.9887 1.00918C20.7316 1.03329 21.3145 1.58881 21.3167 2.32951C21.3288 5.50377 21.3277 8.67912 21.3178 11.8534C21.3156 12.6171 20.7327 13.1759 19.9668 13.1956C19.5296 13.2066 19.0924 13.2044 18.6542 13.1967C17.8357 13.1825 17.2703 12.6248 17.2604 11.8096C17.2506 10.9363 17.2582 10.0641 17.2582 9.16233C16.7597 9.16233 16.2874 9.16233 15.8776 9.16233C15.458 9.86577 15.046 10.5462 14.6461 11.2332C14.5858 11.3362 14.5529 11.4699 14.5529 11.5893C14.5496 14.5948 14.5518 17.6004 14.554 20.6059C14.554 20.676 14.565 20.745 14.5759 20.8765C14.7239 20.8206 14.8477 20.7768 14.9693 20.7275C17.5048 19.7063 20.0238 19.7447 22.533 20.8305C22.7006 20.9028 22.923 20.8798 23.1137 20.8557C23.3208 20.8294 23.518 20.7155 23.724 20.699C24.9906 20.5982 25.4771 19.6526 25.9406 18.6774C25.9559 18.6424 25.9505 18.5985 25.9548 18.5525ZM15.1074 27.0037C15.7363 28.0041 16.5044 28.7733 17.5837 29.1699C18.6739 29.5699 19.7575 29.549 20.8653 29.0998C20.4018 26.6345 20.6703 24.2666 21.7123 21.9657C19.3675 21.0617 17.1037 21.1373 14.8444 22.2714C14.9474 22.5551 15.0372 22.7995 15.1337 23.0657C14.7293 23.2641 14.3436 23.4536 13.9426 23.6509C13.4331 22.611 13.1932 21.5646 13.1932 20.4613C13.1921 17.7384 13.226 15.0145 13.1745 12.2917C13.157 11.3581 13.3268 10.5626 13.9295 9.83947C14.4072 9.26752 14.5748 8.57503 14.5529 7.82447C14.5288 7.00708 14.5474 6.18749 14.5474 5.37009C14.5474 4.82443 14.5474 4.27877 14.5474 3.73091C13.7377 3.78022 13.2118 4.30397 13.1964 5.0611C13.1822 5.724 13.1986 6.38691 13.191 7.0509C13.1778 8.25947 12.3111 9.12179 11.0982 9.13055C10.0299 9.13822 8.96154 9.13165 7.76941 9.13165C8.08388 9.58308 8.32603 10.0509 8.68214 10.406C9.0229 10.7456 9.14014 11.0809 9.13795 11.551C9.12151 15.8122 9.12371 20.0734 9.13028 24.3346C9.13247 26.1271 10.1909 27.7104 11.8487 28.221C12.6924 28.4807 13.604 28.518 14.4861 28.6549C14.4992 28.6177 14.5135 28.5815 14.5266 28.5443C14.3612 28.3076 14.1946 28.0709 14.0182 27.8189C14.3798 27.5494 14.7151 27.2985 15.1074 27.0037ZM35.9751 32.7178C35.9389 32.7868 35.9323 32.8175 35.9126 32.834C34.0927 34.3964 32.2749 35.9611 30.445 37.5104C30.3475 37.5937 30.1328 37.608 29.9991 37.5674C29.3778 37.3833 28.7697 37.1587 28.1506 36.9681C27.6302 36.807 27.1185 36.9538 26.9245 37.4305C26.6791 38.032 26.2145 38.3004 25.6787 38.5349C25.3949 38.6587 25.121 38.8045 24.8471 38.9491C24.2116 39.2855 23.907 39.9308 24.0768 40.5707C24.2532 41.2358 24.8011 41.65 25.5166 41.6445C26.277 41.638 26.9881 41.4331 27.6718 41.1054C28.8387 40.5444 29.9805 39.9133 31.189 39.4597C33.891 38.4451 36.6303 37.5291 39.3488 36.5572C41.4317 35.8121 42.3444 33.4848 41.1282 31.6769C40.4346 30.6458 40.1782 29.6224 40.2867 28.4413C40.3042 28.2451 40.2933 28.0457 40.2823 27.8485C40.1837 26.0033 39.5854 24.3488 38.3769 22.9354C38.2783 22.8203 38.1051 22.6833 37.9758 22.6921C37.2351 22.7458 36.4594 22.7217 35.7658 22.9441C33.6555 23.6191 32.4316 25.1333 32.1993 27.3247C31.9834 29.3639 32.8874 30.8946 34.6548 31.9212C35.0941 32.1765 35.5236 32.445 35.9751 32.7178ZM24.0319 37.837C24.4592 37.6244 24.8438 37.4567 25.2032 37.2442C25.3982 37.1291 25.5933 36.967 25.7094 36.7763C26.3274 35.7661 27.4176 35.3245 28.5495 35.6653C28.9264 35.7792 29.3022 35.903 29.6693 36.0455C29.8961 36.1342 30.0506 36.0871 30.2314 35.9282C31.2088 35.0747 32.1982 34.2354 33.1832 33.3895C33.3487 33.2481 33.5119 33.1035 33.6851 32.9523C31.429 31.3668 30.3946 29.2565 30.9502 26.5698C31.5594 23.6224 33.5065 21.9536 36.4331 21.2995C35.9948 21.0913 35.5532 20.8875 35.0886 20.7713C33.5097 20.3791 32.4173 20.8371 31.5583 22.2089C31.0641 22.9978 30.582 23.7933 30.0725 24.5723C29.3143 25.7305 28.0093 26.263 26.6583 25.9902C25.3522 25.7272 24.3387 24.7082 24.1009 23.3736C24.0253 22.9474 24.0308 22.5069 23.9968 22.0435C23.3197 22.13 22.911 22.5212 22.6831 23.137C21.6761 25.862 21.7473 28.564 22.9734 31.1937C23.6977 32.7474 24.0954 34.3438 24.0341 36.0564C24.0144 36.6317 24.0319 37.2058 24.0319 37.837ZM31.1156 20.4054C30.3169 19.6241 30.0769 18.6018 30.1229 17.4689C30.1536 16.7227 30.1174 15.9732 30.1372 15.226C30.1415 15.0649 30.2215 14.871 30.3322 14.7537C30.8264 14.2311 31.3424 13.7292 31.853 13.2219C32.1138 12.9633 32.2519 12.673 32.0908 12.3092C31.9341 11.952 31.6394 11.8326 31.2679 11.8402C30.8943 11.8479 30.5196 11.8424 30.1032 11.8424C30.1032 11.357 30.158 10.9275 30.0933 10.5155C29.8917 9.24341 29.0765 8.53559 27.8745 8.18167C27.5568 8.08854 27.4067 8.11922 27.2434 8.41396C26.7624 9.28395 26.0239 9.83729 25.0553 10.0783C24.8635 10.1255 24.6729 10.1748 24.4833 10.2295C23.9815 10.3753 23.8927 10.7182 24.2554 11.1039C24.3321 11.1861 24.4066 11.2749 24.4965 11.3417C24.7561 11.5356 24.8175 11.7471 24.6838 12.0649C24.4932 12.5174 24.3562 12.994 24.2061 13.463C23.5717 15.4429 24.8854 17.2486 26.9684 17.2596C27.5568 17.2629 28.1452 17.2596 28.7478 17.2596C28.7478 17.7297 28.7478 18.157 28.7478 18.615C28.2745 18.615 27.8274 18.615 27.3902 18.615C26.9125 20.0482 26.8698 20.1117 25.6612 21.3389C25.5494 21.4529 25.4103 21.6019 25.4004 21.7421C25.3719 22.1771 25.3489 22.6231 25.4158 23.0504C25.5451 23.8755 26.0348 24.4244 26.8544 24.6436C27.7003 24.8693 28.5024 24.5252 29.0217 23.7133C29.7098 22.6351 30.3914 21.5504 31.1156 20.4054ZM28.2635 6.89203C30.1163 7.44426 31.1748 8.61776 31.475 10.4531C31.5298 10.4695 31.5681 10.4859 31.6087 10.4925C32.4962 10.6251 33.1262 11.0984 33.4067 11.9542C33.6938 12.8329 33.4221 13.5868 32.7745 14.2223C32.402 14.5872 32.0305 14.9531 31.6711 15.3312C31.5824 15.4243 31.498 15.5634 31.4925 15.6851C31.4706 16.119 31.4838 16.5551 31.4838 16.9835C31.5429 16.9966 31.5725 17.0131 31.5955 17.0065C31.9363 16.921 32.2793 16.841 32.6167 16.7424C35.0547 16.0324 36.6719 14.4765 37.3535 12.0232C38.3758 8.34274 35.7351 4.91428 32.0119 5.07754C30.5404 5.14328 29.3055 5.75468 28.2635 6.89203ZM2.38511 2.37772C2.38511 5.5476 2.38511 8.68351 2.38511 11.8074C2.84312 11.8074 3.27154 11.8074 3.689 11.8074C3.689 8.64735 3.689 5.5224 3.689 2.37772C3.24963 2.37772 2.83107 2.37772 2.38511 2.37772ZM18.641 2.37881C18.641 5.54759 18.641 8.68241 18.641 11.8085C19.0979 11.8085 19.5263 11.8085 19.946 11.8085C19.946 8.64954 19.946 5.52349 19.946 2.37881C19.5077 2.37881 19.0902 2.37881 18.641 2.37881ZM9.78113 7.77736C10.2183 7.77736 10.6555 7.78503 11.0927 7.77517C11.5693 7.76421 11.8235 7.51329 11.8356 7.04104C11.8465 6.63235 11.8454 6.22255 11.8356 5.81385C11.8235 5.33722 11.5737 5.07754 11.1015 5.07206C10.2413 5.0622 9.3801 5.0622 8.51997 5.07206C8.04334 5.07754 7.79023 5.33174 7.77708 5.80509C7.76613 6.21379 7.76722 6.62358 7.77708 7.03228C7.78804 7.50891 8.03896 7.76311 8.51121 7.77517C8.93415 7.78612 9.35709 7.77736 9.78113 7.77736ZM6.40416 6.45703C5.93191 6.45703 5.50459 6.45703 5.08713 6.45703C5.08713 6.90846 5.08713 7.32483 5.08713 7.75216C5.53636 7.75216 5.96369 7.75216 6.40416 7.75216C6.40416 7.3084 6.40416 6.89203 6.40416 6.45703ZM15.9379 6.43183C15.9379 6.87121 15.9379 7.3073 15.9379 7.74887C16.3795 7.74887 16.8057 7.74887 17.2254 7.74887C17.2254 7.29306 17.2254 6.86573 17.2254 6.43183C16.7871 6.43183 16.3806 6.43183 15.9379 6.43183Z" fill="#4C4C4C"/>
<path d="M25.9548 18.5525C25.648 18.4331 25.3413 18.3334 25.0509 18.1964C23.232 17.3352 22.2985 15.2917 22.8288 13.3479C22.8693 13.1989 22.9055 13.0466 22.9625 12.9031C23.1564 12.4155 23.232 12.0123 22.8902 11.4776C22.3061 10.5659 22.8748 9.33216 23.9146 8.97715C24.0209 8.941 24.1305 8.90374 24.2412 8.8884C25.235 8.75254 25.8584 8.18386 26.3383 7.31278C27.6466 4.934 29.6945 3.70681 32.4162 3.72325C36.3345 3.74735 39.4079 7.33579 38.882 11.219C38.4086 14.7143 36.1624 17.2333 32.7351 18.1142C32.3428 18.215 31.9549 18.3312 31.4312 18.478C31.7161 18.8812 31.9429 19.222 32.1949 19.542C32.2442 19.6044 32.4086 19.6318 32.4929 19.6022C34.4323 18.9064 36.1712 19.4127 37.7578 20.5511C40.2637 22.3492 41.4865 24.8539 41.6388 27.9088C41.6432 28.0074 41.6497 28.1071 41.6421 28.2046C41.5665 29.2477 41.7845 30.1528 42.3576 31.0984C43.8773 33.6075 42.6567 36.7971 39.8966 37.7964C37.0763 38.8176 34.2296 39.7676 31.4191 40.814C30.3683 41.2052 29.38 41.7673 28.372 42.2702C27.4483 42.7315 26.483 43.0054 25.4475 42.9999C23.9234 42.9912 22.6984 41.7892 22.682 40.2639C22.6655 38.6982 22.6732 37.1313 22.6787 35.5656C22.682 34.3756 22.4278 33.247 21.9226 32.17C21.6608 31.6122 21.4307 31.0392 21.1776 30.4508C20.2112 30.7642 19.2294 30.9209 18.2214 30.7258C17.9047 30.6645 17.5672 30.6228 17.2856 30.4793C16.4112 30.0333 15.4624 30.0487 14.5266 29.9621C13.741 29.8887 12.9433 29.869 12.1731 29.7167C9.56528 29.1984 7.78585 27.018 7.77818 24.3554C7.76613 20.1928 7.7716 16.0302 7.78147 11.8687C7.78256 11.5795 7.70915 11.368 7.50535 11.1609C6.95969 10.6043 6.65179 9.91398 6.47977 9.14918C6.01628 9.14918 5.56924 9.14918 5.06521 9.14918C5.06521 10.0433 5.07178 10.9264 5.06302 11.8096C5.05645 12.4626 4.69267 13.0367 4.08127 13.1178C3.39207 13.2088 2.67438 13.2044 1.98409 13.1189C1.40446 13.0466 1.01 12.4867 1.00781 11.895C0.997951 8.70652 0.996855 5.51692 1.00781 2.32841C1.01 1.58771 1.59292 1.03219 2.3369 1.00918C2.78833 0.996032 3.23977 0.998226 3.6912 1.00809C4.48339 1.02452 5.04987 1.58333 5.06192 2.37443C5.07507 3.25976 5.06521 4.144 5.06521 5.06877C5.52541 5.06877 5.94616 5.08082 6.36472 5.06001C6.45895 5.05562 6.58276 4.95263 6.63207 4.86278C7.06707 4.06182 7.73873 3.69804 8.64159 3.71338C9.31874 3.72543 9.99698 3.70243 10.673 3.71996C11.1321 3.73201 11.5901 3.78899 12.1205 3.83062C12.1632 3.76817 12.2519 3.62792 12.3495 3.49534C12.8655 2.79299 13.5624 2.40949 14.4313 2.36676C15.2827 2.32512 15.8864 2.90585 15.9028 3.75721C15.9105 4.17796 15.9039 4.59872 15.9039 5.04467C16.363 5.04467 16.7915 5.04467 17.2593 5.04467C17.2593 4.19988 17.2582 3.37152 17.2593 2.54208C17.2615 1.5417 17.7984 1.00808 18.8032 1.00589C19.1987 1.0048 19.5932 0.996032 19.9887 1.00918C20.7316 1.03329 21.3145 1.58881 21.3167 2.32951C21.3288 5.50377 21.3277 8.67912 21.3178 11.8534C21.3156 12.6171 20.7327 13.1759 19.9668 13.1956C19.5296 13.2066 19.0924 13.2044 18.6542 13.1967C17.8357 13.1825 17.2703 12.6248 17.2604 11.8096C17.2506 10.9363 17.2582 10.0641 17.2582 9.16233C16.7597 9.16233 16.2874 9.16233 15.8776 9.16233C15.458 9.86577 15.046 10.5462 14.6461 11.2332C14.5858 11.3362 14.5529 11.4699 14.5529 11.5893C14.5496 14.5948 14.5518 17.6004 14.554 20.6059C14.554 20.676 14.565 20.745 14.5759 20.8765C14.7239 20.8206 14.8477 20.7768 14.9693 20.7275C17.5048 19.7063 20.0238 19.7447 22.533 20.8305C22.7006 20.9028 22.923 20.8798 23.1137 20.8557C23.3208 20.8294 23.518 20.7155 23.724 20.699C24.9906 20.5982 25.4771 19.6526 25.9406 18.6774C25.9559 18.6424 25.9505 18.5985 25.9548 18.5525ZM15.1074 27.0037C15.7363 28.0041 16.5044 28.7733 17.5837 29.1699C18.6739 29.5699 19.7575 29.549 20.8653 29.0998C20.4018 26.6345 20.6703 24.2666 21.7123 21.9657C19.3675 21.0617 17.1037 21.1373 14.8444 22.2714C14.9474 22.5551 15.0372 22.7995 15.1337 23.0657C14.7293 23.2641 14.3436 23.4536 13.9426 23.6509C13.4331 22.611 13.1932 21.5646 13.1932 20.4613C13.1921 17.7384 13.226 15.0145 13.1745 12.2917C13.157 11.3581 13.3268 10.5626 13.9295 9.83947C14.4072 9.26752 14.5748 8.57503 14.5529 7.82447C14.5288 7.00708 14.5474 6.18749 14.5474 5.37009C14.5474 4.82443 14.5474 4.27877 14.5474 3.73091C13.7377 3.78022 13.2118 4.30397 13.1964 5.0611C13.1822 5.724 13.1986 6.38691 13.191 7.0509C13.1778 8.25947 12.3111 9.12179 11.0982 9.13055C10.0299 9.13822 8.96154 9.13165 7.76941 9.13165C8.08388 9.58308 8.32603 10.0509 8.68214 10.406C9.0229 10.7456 9.14014 11.0809 9.13795 11.551C9.12151 15.8122 9.12371 20.0734 9.13028 24.3346C9.13247 26.1271 10.1909 27.7104 11.8487 28.221C12.6924 28.4807 13.604 28.518 14.4861 28.6549C14.4992 28.6177 14.5135 28.5815 14.5266 28.5443C14.3612 28.3076 14.1946 28.0709 14.0182 27.8189C14.3798 27.5494 14.7151 27.2985 15.1074 27.0037ZM35.9751 32.7178C35.9389 32.7868 35.9323 32.8175 35.9126 32.834C34.0927 34.3964 32.2749 35.9611 30.445 37.5104C30.3475 37.5937 30.1328 37.608 29.9991 37.5674C29.3778 37.3833 28.7697 37.1587 28.1506 36.9681C27.6302 36.807 27.1185 36.9538 26.9245 37.4305C26.6791 38.032 26.2145 38.3004 25.6787 38.5349C25.3949 38.6587 25.121 38.8045 24.8471 38.9491C24.2116 39.2855 23.907 39.9308 24.0768 40.5707C24.2532 41.2358 24.8011 41.65 25.5166 41.6445C26.277 41.638 26.9881 41.4331 27.6718 41.1054C28.8387 40.5444 29.9805 39.9133 31.189 39.4597C33.891 38.4451 36.6303 37.5291 39.3488 36.5572C41.4317 35.8121 42.3444 33.4848 41.1282 31.6769C40.4346 30.6458 40.1782 29.6224 40.2867 28.4413C40.3042 28.2451 40.2933 28.0457 40.2823 27.8485C40.1837 26.0033 39.5854 24.3488 38.3769 22.9354C38.2783 22.8203 38.1051 22.6833 37.9758 22.6921C37.2351 22.7458 36.4594 22.7217 35.7658 22.9441C33.6555 23.6191 32.4316 25.1333 32.1993 27.3247C31.9834 29.3639 32.8874 30.8946 34.6548 31.9212C35.0941 32.1765 35.5236 32.445 35.9751 32.7178ZM24.0319 37.837C24.4592 37.6244 24.8438 37.4567 25.2032 37.2442C25.3982 37.1291 25.5933 36.967 25.7094 36.7763C26.3274 35.7661 27.4176 35.3245 28.5495 35.6653C28.9264 35.7792 29.3022 35.903 29.6693 36.0455C29.8961 36.1342 30.0506 36.0871 30.2314 35.9282C31.2088 35.0747 32.1982 34.2354 33.1832 33.3895C33.3487 33.2481 33.5119 33.1035 33.6851 32.9523C31.429 31.3668 30.3946 29.2565 30.9502 26.5698C31.5594 23.6224 33.5065 21.9536 36.4331 21.2995C35.9948 21.0913 35.5532 20.8875 35.0886 20.7713C33.5097 20.3791 32.4173 20.8371 31.5583 22.2089C31.0641 22.9978 30.582 23.7933 30.0725 24.5723C29.3143 25.7305 28.0093 26.263 26.6583 25.9902C25.3522 25.7272 24.3387 24.7082 24.1009 23.3736C24.0253 22.9474 24.0308 22.5069 23.9968 22.0435C23.3197 22.13 22.911 22.5212 22.6831 23.137C21.6761 25.862 21.7473 28.564 22.9734 31.1937C23.6977 32.7474 24.0954 34.3438 24.0341 36.0564C24.0144 36.6317 24.0319 37.2058 24.0319 37.837ZM31.1156 20.4054C30.3169 19.6241 30.0769 18.6018 30.1229 17.4689C30.1536 16.7227 30.1174 15.9732 30.1372 15.226C30.1415 15.0649 30.2215 14.871 30.3322 14.7537C30.8264 14.2311 31.3424 13.7292 31.853 13.2219C32.1138 12.9633 32.2519 12.673 32.0908 12.3092C31.9341 11.952 31.6394 11.8326 31.2679 11.8402C30.8943 11.8479 30.5196 11.8424 30.1032 11.8424C30.1032 11.357 30.158 10.9275 30.0933 10.5155C29.8917 9.24341 29.0765 8.53559 27.8745 8.18167C27.5568 8.08854 27.4067 8.11922 27.2434 8.41396C26.7624 9.28395 26.0239 9.83729 25.0553 10.0783C24.8635 10.1255 24.6729 10.1748 24.4833 10.2295C23.9815 10.3753 23.8927 10.7182 24.2554 11.1039C24.3321 11.1861 24.4066 11.2749 24.4965 11.3417C24.7561 11.5356 24.8175 11.7471 24.6838 12.0649C24.4932 12.5174 24.3562 12.994 24.2061 13.463C23.5717 15.4429 24.8854 17.2486 26.9684 17.2596C27.5568 17.2629 28.1452 17.2596 28.7478 17.2596C28.7478 17.7297 28.7478 18.157 28.7478 18.615C28.2745 18.615 27.8274 18.615 27.3902 18.615C26.9125 20.0482 26.8698 20.1117 25.6612 21.3389C25.5494 21.4529 25.4103 21.6019 25.4004 21.7421C25.3719 22.1771 25.3489 22.6231 25.4158 23.0504C25.5451 23.8755 26.0348 24.4244 26.8544 24.6436C27.7003 24.8693 28.5024 24.5252 29.0217 23.7133C29.7098 22.6351 30.3914 21.5504 31.1156 20.4054ZM28.2635 6.89203C30.1163 7.44426 31.1748 8.61776 31.475 10.4531C31.5298 10.4695 31.5681 10.4859 31.6087 10.4925C32.4962 10.6251 33.1262 11.0984 33.4067 11.9542C33.6938 12.8329 33.4221 13.5868 32.7745 14.2223C32.402 14.5872 32.0305 14.9531 31.6711 15.3312C31.5824 15.4243 31.498 15.5634 31.4925 15.6851C31.4706 16.119 31.4838 16.5551 31.4838 16.9835C31.5429 16.9966 31.5725 17.0131 31.5955 17.0065C31.9363 16.921 32.2793 16.841 32.6167 16.7424C35.0547 16.0324 36.6719 14.4765 37.3535 12.0232C38.3758 8.34274 35.7351 4.91428 32.0119 5.07754C30.5404 5.14328 29.3055 5.75468 28.2635 6.89203ZM2.38511 2.37772C2.38511 5.5476 2.38511 8.68351 2.38511 11.8074C2.84312 11.8074 3.27154 11.8074 3.689 11.8074C3.689 8.64735 3.689 5.5224 3.689 2.37772C3.24963 2.37772 2.83107 2.37772 2.38511 2.37772ZM18.641 2.37881C18.641 5.54759 18.641 8.68241 18.641 11.8085C19.0979 11.8085 19.5263 11.8085 19.946 11.8085C19.946 8.64954 19.946 5.52349 19.946 2.37881C19.5077 2.37881 19.0902 2.37881 18.641 2.37881ZM9.78113 7.77736C10.2183 7.77736 10.6555 7.78503 11.0927 7.77517C11.5693 7.76421 11.8235 7.51329 11.8356 7.04104C11.8465 6.63235 11.8454 6.22255 11.8356 5.81385C11.8235 5.33722 11.5737 5.07754 11.1015 5.07206C10.2413 5.0622 9.3801 5.0622 8.51997 5.07206C8.04334 5.07754 7.79023 5.33174 7.77708 5.80509C7.76613 6.21379 7.76722 6.62358 7.77708 7.03228C7.78804 7.50891 8.03896 7.76311 8.51121 7.77517C8.93415 7.78612 9.35709 7.77736 9.78113 7.77736ZM6.40416 6.45703C5.93191 6.45703 5.50459 6.45703 5.08713 6.45703C5.08713 6.90846 5.08713 7.32483 5.08713 7.75216C5.53636 7.75216 5.96369 7.75216 6.40416 7.75216C6.40416 7.3084 6.40416 6.89203 6.40416 6.45703ZM15.9379 6.43183C15.9379 6.87121 15.9379 7.3073 15.9379 7.74887C16.3795 7.74887 16.8057 7.74887 17.2254 7.74887C17.2254 7.29306 17.2254 6.86573 17.2254 6.43183C16.7871 6.43183 16.3806 6.43183 15.9379 6.43183Z" stroke="#4C4C4C" stroke-width="0.2" mask="url(#path-1-outside-1_27_435)"/>
</svg>
