<svg width="42" height="42" viewBox="0 0 42 42" fill="none" xmlns="http://www.w3.org/2000/svg">
<path d="M0 41.4182C0 32.1774 0 22.9377 0 13.6969C0.23995 13.252 0.608096 13.0964 1.1132 13.114C1.98534 13.1447 2.85968 13.1227 3.73292 13.1227C3.95863 13.1227 4.18433 13.1227 4.42866 13.1227C4.42866 12.9003 4.42866 12.7382 4.42866 12.576C4.42866 8.75543 4.43634 4.93486 4.4199 1.11319C4.41771 0.609188 4.55796 0.241046 5.00279 0C15.6647 0 26.3266 0 36.9884 0C37.4333 0.241046 37.5735 0.611378 37.5713 1.11538C37.556 4.95568 37.5626 8.79597 37.5626 12.6374C37.5626 12.794 37.5626 12.9507 37.5626 13.1227C38.7196 13.1227 39.8131 13.1216 40.9054 13.1227C41.7217 13.1238 41.9912 13.3901 41.9912 14.1987C41.9912 23.0965 41.9912 31.9933 41.9912 40.8912C41.9912 41.7337 41.7327 41.9912 40.8879 41.9912C27.6304 41.9912 14.3729 41.989 1.11538 42C0.611378 42.0011 0.23995 41.8641 0 41.4182ZM40.3302 14.7629C40.1516 14.7629 39.9906 14.7629 39.8295 14.7629C34.91 14.7629 29.9894 14.7629 25.0698 14.7629C24.9329 14.7629 24.7959 14.7695 24.6601 14.7586C24.1944 14.7224 23.8602 14.3696 23.8679 13.9291C23.8745 13.504 24.1999 13.1666 24.6458 13.1282C24.7674 13.1173 24.8912 13.1238 25.015 13.1238C28.4861 13.1238 31.9572 13.1238 35.4282 13.1238C35.586 13.1238 35.7438 13.1238 35.9005 13.1238C35.9005 9.27039 35.9005 5.47612 35.9005 1.66431C25.954 1.66431 16.0273 1.66431 6.09407 1.66431C6.09407 5.49036 6.09407 9.29449 6.09407 13.1238C6.28362 13.1238 6.44468 13.1238 6.60684 13.1238C10.0505 13.1238 13.4942 13.1238 16.9389 13.1238C17.0759 13.1238 17.2128 13.1173 17.3487 13.1293C17.7935 13.1688 18.1168 13.5117 18.1201 13.9379C18.1233 14.3619 17.8023 14.7136 17.3608 14.7586C17.2249 14.7717 17.0879 14.7651 16.951 14.7651C12.0172 14.7651 7.08345 14.7651 2.15078 14.7651C1.99082 14.7651 1.83195 14.7651 1.66541 14.7651C1.66541 16.974 1.66541 19.1379 1.66541 21.2964C14.5712 21.2964 27.4496 21.2964 40.328 21.2964C40.3302 19.1105 40.3302 16.9565 40.3302 14.7629ZM12.2725 36.3968C12.2725 31.9035 12.2725 27.4452 12.2725 22.9979C8.7127 22.9979 5.18357 22.9979 1.66212 22.9979C1.66212 27.4803 1.66212 31.9298 1.66212 36.3968C5.20439 36.3968 8.72475 36.3968 12.2725 36.3968ZM40.3324 22.9935C36.7715 22.9935 33.2413 22.9935 29.7209 22.9935C29.7209 27.4814 29.7209 31.9407 29.7209 36.3935C33.2731 36.3935 36.7934 36.3935 40.3324 36.3935C40.3324 31.9232 40.3324 27.4737 40.3324 22.9935ZM13.9719 22.9826C13.9719 28.7885 13.9719 34.5594 13.9719 40.3181C16.0558 40.3181 18.1091 40.3181 20.1536 40.3181C20.1536 34.5232 20.1536 28.7622 20.1536 22.9826C18.0872 22.9826 16.0427 22.9826 13.9719 22.9826ZM21.8442 22.9837C21.8442 28.7874 21.8442 34.5583 21.8442 40.3192C23.9271 40.3192 25.9814 40.3192 28.027 40.3192C28.027 34.5254 28.027 28.7633 28.027 22.9837C25.9617 22.9837 23.9172 22.9837 21.8442 22.9837ZM12.2835 38.0852C8.71927 38.0852 5.19015 38.0852 1.65883 38.0852C1.65883 38.8467 1.65883 39.5797 1.65883 40.3302C5.20768 40.3302 8.7368 40.3302 12.2835 40.3302C12.2835 39.5753 12.2835 38.8434 12.2835 38.0852ZM40.3225 40.3335C40.3225 39.5621 40.3225 38.8204 40.3225 38.0874C36.7649 38.0874 33.2358 38.0874 29.71 38.0874C29.71 38.8511 29.71 39.583 29.71 40.3335C33.25 40.3335 36.7693 40.3335 40.3225 40.3335Z" fill="#4C4C4C"/>
<path d="M31.965 30.5361C32.2356 30.4068 32.4547 30.3597 32.5884 30.2282C33.7388 29.0986 34.8827 27.9624 36.0014 26.8021C36.146 26.6519 36.2369 26.3254 36.1778 26.1348C36.1033 25.8948 35.8852 25.6472 35.6628 25.5201C35.3462 25.3393 35.0262 25.4905 34.7753 25.7404C33.8659 26.6465 32.9576 27.5548 32.0504 28.4642C31.8291 28.6866 31.5486 28.8816 31.4138 29.1501C31.2944 29.3878 31.244 29.7461 31.3382 29.9806C31.4292 30.2117 31.7425 30.352 31.965 30.5361ZM34.0621 34.6656C34.3436 34.4892 34.5869 34.3884 34.7622 34.2175C35.8151 33.1854 36.8549 32.139 37.8947 31.0927C38.3297 30.6544 38.3669 30.146 38.0021 29.7976C37.6493 29.4601 37.1617 29.5061 36.7366 29.9291C35.6913 30.9699 34.6493 32.013 33.6085 33.0583C33.5219 33.1448 33.3959 33.2402 33.3849 33.3421C33.3543 33.6116 33.2907 33.9293 33.4003 34.1485C33.5077 34.3643 33.8112 34.4815 34.0621 34.6656Z" fill="#4C4C4C"/>
<path d="M31.3829 7.19858C31.0202 8.46297 30.6981 9.60465 30.3617 10.7419C30.2215 11.2153 29.8786 11.4739 29.4425 11.4804C29.0207 11.487 28.6744 11.2394 28.5123 10.8099C28.4739 10.708 28.4432 10.6028 28.4126 10.4987C28.1003 9.4403 27.7891 8.3808 27.4067 7.3191C27.2687 8.06744 27.1285 8.81468 26.9915 9.56302C26.9301 9.89829 26.8743 10.2358 26.8151 10.571C26.7066 11.1879 26.3429 11.4936 25.8202 11.407C25.3381 11.327 25.0861 10.9019 25.1924 10.3037C25.4981 8.58349 25.8148 6.8644 26.127 5.14531C26.1884 4.81004 26.2442 4.47257 26.3144 4.13839C26.4239 3.61576 26.7537 3.31007 27.2194 3.28487C27.6829 3.25967 28.062 3.5314 28.2143 4.0354C28.5846 5.26364 28.9407 6.49516 29.3044 7.72559C29.3274 7.80338 29.3581 7.88008 29.4052 8.01375C29.4578 7.88227 29.5017 7.79571 29.5279 7.70478C29.8556 6.56419 30.1821 5.42251 30.5075 4.28193C30.5371 4.17674 30.5623 4.07046 30.5984 3.96747C30.7562 3.52482 31.1243 3.26515 31.5626 3.28487C31.9954 3.3035 32.3756 3.59714 32.4643 4.04746C32.8818 6.17742 33.2905 8.30848 33.6904 10.4417C33.778 10.9063 33.4921 11.3183 33.0691 11.4037C32.5848 11.5012 32.1805 11.235 32.0765 10.7211C31.8749 9.71751 31.6897 8.71059 31.4958 7.70587C31.4695 7.57329 31.4366 7.44291 31.3829 7.19858Z" fill="#4C4C4C"/>
<path d="M14.2754 8.2009C13.9357 8.2009 13.6224 8.20967 13.3101 8.19871C12.805 8.18228 12.4654 7.85139 12.4621 7.38792C12.4588 6.92117 12.793 6.57604 13.2959 6.56508C13.9379 6.55193 14.58 6.55193 15.222 6.56508C15.6811 6.57494 15.9956 6.87296 16.0547 7.31342C16.287 9.05223 14.9821 10.9751 13.2948 11.3794C11.11 11.902 8.83762 10.4317 8.38402 8.2009C7.92932 5.96466 9.43804 3.73937 11.6568 3.3526C12.6538 3.17839 13.584 3.33836 14.4595 3.83579C15.0226 4.15572 15.2012 4.63233 14.935 5.08046C14.6786 5.51215 14.2184 5.57679 13.653 5.26124C12.6943 4.72546 11.602 4.82846 10.7923 5.52968C10.0023 6.21337 9.73168 7.32328 10.1185 8.28965C10.5041 9.25383 11.4639 9.87726 12.5037 9.83892C13.412 9.80605 14.1089 9.18262 14.2754 8.2009Z" fill="#4C4C4C"/>
<path d="M20.6094 5.80596C21.0926 5.06748 21.5364 4.3805 21.9889 3.7001C22.1959 3.38893 22.4907 3.23554 22.8676 3.32538C23.2401 3.41304 23.4833 3.66613 23.4888 4.04194C23.4921 4.26874 23.3924 4.52294 23.2697 4.72125C22.735 5.57697 22.1642 6.41076 21.6306 7.26757C21.5101 7.4615 21.4378 7.71679 21.4312 7.94688C21.4082 8.80588 21.4257 9.66707 21.4202 10.5272C21.4169 11.1254 21.0937 11.4913 20.5941 11.4826C20.1175 11.4738 19.7899 11.1046 19.7844 10.5403C19.7756 9.65283 19.7932 8.76534 19.7734 7.87895C19.7691 7.67516 19.7033 7.44726 19.5948 7.27524C19.0284 6.37461 18.44 5.48822 17.8593 4.59635C17.6632 4.29504 17.6029 3.94881 17.8396 3.68257C18.0105 3.49083 18.3195 3.29908 18.5496 3.31881C18.8016 3.34072 19.0996 3.55547 19.2596 3.77241C19.7285 4.40351 20.1372 5.08173 20.6094 5.80596Z" fill="#4C4C4C"/>
<path d="M4.01671 30.5185C3.35274 30.4298 2.97692 29.768 3.2859 29.2322C3.34616 29.1281 3.43162 29.0339 3.51709 28.9473C4.56892 27.8922 5.61199 26.8294 6.68464 25.7973C6.8709 25.6176 7.1985 25.4555 7.43079 25.4905C7.67731 25.5278 7.95232 25.7666 8.09805 25.9923C8.28102 26.2783 8.16269 26.6081 7.92493 26.8524C7.46913 27.3236 7.00238 27.7848 6.53891 28.2483C5.92096 28.8674 5.31068 29.4941 4.67739 30.0967C4.49332 30.2753 4.23913 30.3805 4.01671 30.5185Z" fill="#4C4C4C"/>
<path d="M6.01084 34.6591C5.7676 34.4827 5.46301 34.3676 5.35344 34.1529C5.24278 33.9348 5.30743 33.6171 5.33153 33.3464C5.3392 33.2566 5.44986 33.1679 5.52656 33.0912C6.59702 32.0174 7.66639 30.9437 8.74233 29.8765C9.06665 29.5544 9.44903 29.4908 9.78211 29.6749C10.1075 29.8546 10.2784 30.2129 10.1678 30.5788C10.1152 30.753 10.0034 30.9261 9.87414 31.0565C8.81902 32.1259 7.75842 33.1898 6.68577 34.2416C6.52142 34.4049 6.28585 34.4936 6.01084 34.6591Z" fill="#4C4C4C"/>
<path d="M31.9648 30.5361C31.7435 30.352 31.4291 30.2107 31.337 29.9806C31.2428 29.7461 31.2932 29.3878 31.4126 29.1501C31.5474 28.8827 31.8279 28.6866 32.0492 28.4642C32.9564 27.5548 33.8647 26.6465 34.7741 25.7404C35.025 25.4905 35.3461 25.3393 35.6616 25.5201C35.884 25.6472 36.1021 25.8959 36.1766 26.1348C36.2357 26.3254 36.1448 26.6519 36.0002 26.802C34.8815 27.9624 33.7376 29.0986 32.5872 30.2282C32.4535 30.3608 32.2355 30.4068 31.9648 30.5361Z" fill="#4C4C4C"/>
<path d="M34.062 34.6656C33.8122 34.4815 33.5076 34.3643 33.4002 34.1484C33.2906 33.9293 33.3542 33.6116 33.3849 33.342C33.3969 33.2401 33.5229 33.1448 33.6084 33.0583C34.6493 32.0141 35.6912 30.9699 36.7365 29.929C37.1616 29.5061 37.6481 29.4601 38.002 29.7976C38.3657 30.146 38.3296 30.6544 37.8946 31.0926C36.8548 32.139 35.815 33.1854 34.7621 34.2175C34.5868 34.3895 34.3425 34.4892 34.062 34.6656Z" fill="#4C4C4C"/>
</svg>
