<svg width="40" height="42" viewBox="0 0 40 42" fill="none" xmlns="http://www.w3.org/2000/svg">
<path d="M18.9824 41.9889C18.9491 41.9722 18.9213 41.9444 18.888 41.9333C18.6435 41.85 18.4379 41.7166 18.26 41.5388C17.9155 41.1998 17.5765 40.8608 17.2376 40.5163C17.1042 40.3829 16.9986 40.2329 16.9208 40.0662C16.7374 39.6828 16.7374 39.2993 16.9208 38.9159C17.0319 38.6825 17.1987 38.4936 17.3876 38.3158C17.5154 38.1991 17.6488 38.0824 17.7821 37.9657C17.821 37.9268 17.8655 37.8934 17.9155 37.8434C17.8766 37.8045 17.8433 37.7656 17.8099 37.7323C17.6265 37.5267 17.4265 37.3266 17.2598 37.1043C16.5985 36.2263 16.6374 35.1038 17.2765 34.2703C17.4265 34.0758 17.6043 33.9035 17.771 33.7257C17.8044 33.6924 17.8377 33.6646 17.8877 33.6257C17.771 33.4979 17.6599 33.3756 17.5543 33.2589C17.3209 33.0089 17.1209 32.7366 16.9875 32.4254C16.7096 31.7919 16.7152 31.1528 17.0153 30.5305C17.3487 29.8414 17.871 29.3246 18.5434 28.969C19.1325 28.6522 19.7493 28.6578 20.3661 28.9023C20.7607 29.0579 21.1219 29.2857 21.4219 29.5802C22.0554 30.1971 22.6834 30.8194 23.3113 31.4418C23.4447 31.5752 23.578 31.7085 23.7058 31.8419C25.4841 30.0581 27.2512 28.2855 29.0127 26.5128C29.0238 26.5184 29.035 26.5184 29.0516 26.5239C29.0072 26.4795 28.9683 26.435 28.9238 26.3905C28.2736 25.7515 27.6179 25.1124 26.9678 24.479C26.84 24.3567 26.7177 24.2289 26.601 24.1011C26.3065 23.7843 26.0842 23.4231 25.9731 23.0064C25.8397 22.4951 25.8675 21.995 26.0898 21.5115C26.4454 20.7336 27.0233 20.1723 27.7902 19.8111C28.3959 19.5277 29.0072 19.5777 29.6018 19.8611C29.8574 19.9834 30.0963 20.1334 30.3408 20.2779C30.5242 20.3835 30.702 20.4946 30.9076 20.6169C30.9743 20.5446 31.0299 20.4724 31.0966 20.4057C31.4522 20.0612 31.8579 19.8056 32.3469 19.6944C33.0137 19.5499 33.6361 19.6555 34.2085 20.0223C34.4696 20.189 34.6975 20.4002 34.9086 20.628C34.9475 20.6669 34.9809 20.7113 35.0309 20.7614C35.0698 20.7225 35.1031 20.6836 35.1365 20.6502C35.2754 20.4946 35.4032 20.3279 35.5477 20.1834C35.6755 20.0556 35.8089 19.9278 35.9589 19.8333C36.4424 19.5277 36.9369 19.5277 37.4204 19.8333C37.5871 19.9445 37.7427 20.0834 37.8872 20.2279C38.165 20.5002 38.4373 20.778 38.7096 21.0559C38.9041 21.2559 39.0708 21.4782 39.143 21.7561C39.143 21.7616 39.1541 21.7727 39.1597 21.7783C39.1597 22.0117 39.1597 22.2395 39.1597 22.4729C39.1541 22.4785 39.143 22.484 39.143 22.4951C39.0708 22.773 38.9096 22.9953 38.704 23.1897C38.5429 23.3398 38.3706 23.4843 38.2039 23.6287C38.1539 23.6732 38.1094 23.7121 38.0539 23.7621C38.0928 23.801 38.1261 23.8343 38.1595 23.8677C38.3262 24.0511 38.4984 24.2233 38.654 24.4123C38.8596 24.6623 39.0152 24.9457 39.1097 25.2625C39.1264 25.3236 39.1486 25.3847 39.1653 25.4459C39.1653 25.7626 39.1653 26.0738 39.1653 26.3905C39.143 26.4628 39.1208 26.535 39.0986 26.6073C38.9763 26.9963 38.7707 27.3297 38.4929 27.6242C38.404 27.7187 38.3039 27.802 38.2095 27.8909C38.2595 27.9798 38.2984 28.0521 38.3428 28.1243C38.504 28.3966 38.6707 28.6633 38.8263 28.9356C38.9319 29.1246 39.0152 29.3302 39.0986 29.5247C39.1319 29.5969 39.143 29.6691 39.1708 29.7469C39.1708 30.0526 39.1708 30.3582 39.1708 30.6638C39.1486 30.7361 39.1264 30.8083 39.0986 30.8861C39.0041 31.1528 38.8652 31.3918 38.6929 31.6085C38.3428 32.0531 37.9149 32.4032 37.4259 32.6699C36.9536 32.9311 36.4424 32.9811 35.92 32.8644C35.4143 32.7532 35.0031 32.4865 34.6419 32.1253C33.9306 31.414 33.2249 30.7027 32.5136 29.9914C32.4414 29.9192 32.3691 29.847 32.308 29.7858C30.5409 31.5585 28.7793 33.3201 27.0067 35.0927C27.0567 35.1483 27.1234 35.2261 27.19 35.2983C27.8124 35.9263 28.4404 36.5486 29.0627 37.1766C29.2517 37.3655 29.4406 37.56 29.6073 37.7712C29.9241 38.1768 30.0963 38.6381 30.1074 39.1548C30.1186 39.6439 29.9796 40.0884 29.7129 40.4941C29.4239 40.9386 29.0405 41.2887 28.596 41.5777C28.3459 41.7388 28.0792 41.8666 27.7902 41.9389C27.7457 41.95 27.7068 41.9778 27.6679 41.9944C27.3901 41.9944 27.1122 41.9944 26.8344 41.9944C26.7899 41.9778 26.751 41.95 26.7066 41.9389C26.3343 41.8389 26.0064 41.6499 25.7175 41.3943C25.5785 41.272 25.4507 41.1387 25.3118 41.0164C25.2785 40.9831 25.2396 40.9497 25.1895 40.9108C25.1284 40.9775 25.084 41.0331 25.0284 41.0831C24.8617 41.2331 24.7005 41.3832 24.5283 41.5166C24.2671 41.7166 23.9726 41.8666 23.6503 41.9444C23.6058 41.9555 23.5669 41.9778 23.5225 42C23.2446 42 22.9668 42 22.6889 42C22.6445 41.9833 22.6 41.9555 22.55 41.9444C22.2555 41.8722 21.9887 41.7444 21.7387 41.5666C21.4942 41.3943 21.2719 41.1887 21.0718 40.9664C21.0385 40.9275 21.0052 40.8942 20.9607 40.8497C20.9163 40.8997 20.8829 40.9331 20.8496 40.972C20.7106 41.1276 20.5828 41.2887 20.4384 41.4443C20.2327 41.6666 19.9994 41.85 19.7048 41.9444C19.6771 41.9555 19.6548 41.9778 19.627 41.9944C19.4103 41.9889 19.1936 41.9889 18.9824 41.9889ZM36.3757 31.5029C36.5035 31.5085 36.6257 31.4807 36.7369 31.4196C36.848 31.3585 36.9536 31.2973 37.0592 31.2306C37.4704 30.9584 37.7149 30.5749 37.8094 30.0915C37.8205 30.047 37.8205 29.9914 37.8038 29.9581C37.676 29.7136 37.5537 29.4635 37.3537 29.2635C36.6535 28.5633 35.9533 27.8576 35.2532 27.1574C33.3638 25.2569 31.4578 23.3565 29.5573 21.456C29.4462 21.3448 29.3239 21.2393 29.1961 21.1559C28.8738 20.9392 28.5348 20.9336 28.207 21.1448C27.9013 21.3448 27.6457 21.6005 27.4457 21.9005C27.2234 22.2395 27.2289 22.5896 27.4623 22.9286C27.5457 23.0453 27.6402 23.1564 27.7402 23.2564C30.3519 25.8737 32.9693 28.4855 35.5866 31.1028C35.7033 31.2195 35.8422 31.314 35.9811 31.4029C36.0978 31.4751 36.2368 31.5085 36.3757 31.5029ZM19.6104 30.097C19.4214 30.0915 19.2547 30.1526 19.1047 30.2526C18.7935 30.4527 18.5323 30.7083 18.3323 31.0195C18.11 31.364 18.1156 31.7085 18.3545 32.042C18.449 32.1698 18.5546 32.2865 18.6657 32.3976C21.2497 34.9816 23.8281 37.5656 26.4121 40.144C26.4788 40.2107 26.551 40.2774 26.6288 40.3385C27.04 40.6663 27.479 40.683 27.9069 40.3829C28.2681 40.1273 28.5293 39.7939 28.7015 39.3882C28.7627 39.2438 28.7849 39.1104 28.6737 38.977C28.6404 38.9381 28.6182 38.8826 28.5904 38.8325C28.4848 38.6381 28.3514 38.4602 28.1903 38.3046C28.0347 38.1546 27.8847 37.999 27.7291 37.8434C26.9622 37.071 26.1953 36.3041 25.4229 35.5317C23.7447 33.8535 22.0721 32.1809 20.3883 30.5082C20.2716 30.3915 20.1327 30.2971 19.9938 30.2082C19.8827 30.1248 19.7437 30.0915 19.6104 30.097ZM37.1592 26.9296C37.3259 26.7906 37.4871 26.6239 37.626 26.435C37.8649 26.1127 37.8816 25.7737 37.6593 25.4403C37.5537 25.2792 37.4315 25.1236 37.2926 24.9846C36.1201 23.8066 34.942 22.634 33.7695 21.456C33.6139 21.3004 33.4416 21.1726 33.2416 21.0781C32.9915 20.967 32.7414 20.9559 32.4914 21.0781C32.2246 21.2059 32.0413 21.4226 31.8857 21.6505C33.6417 23.4176 35.3921 25.168 37.1592 26.9296ZM24.1059 39.9495C22.3388 38.1935 20.5884 36.4431 18.8213 34.6871C18.6046 34.8704 18.3767 35.0761 18.2434 35.3539C18.1489 35.5539 18.1378 35.7596 18.2267 35.9596C18.2767 36.0763 18.3434 36.193 18.4212 36.293C18.5323 36.4375 18.649 36.5709 18.7768 36.6987C19.8049 37.7323 20.8385 38.7603 21.8665 39.7939C21.9999 39.9273 22.1277 40.0551 22.261 40.1829C22.4166 40.3274 22.5889 40.4552 22.7889 40.5385C23.0001 40.6219 23.2113 40.6386 23.4224 40.5496C23.717 40.4218 23.9226 40.194 24.1059 39.9495ZM24.8617 32.9755C25.1729 33.3089 25.4841 33.6368 25.7897 33.9591C27.5457 32.2031 29.2906 30.4638 31.041 28.7078C30.7298 28.391 30.4131 28.0632 30.1074 27.7409C28.357 29.4858 26.6177 31.2251 24.8617 32.9755ZM37.0981 22.7674C37.3092 22.5507 37.5093 22.3451 37.7149 22.1339C37.387 21.7949 37.0758 21.4671 36.7591 21.1337C36.5202 21.3115 36.2923 21.4782 36.0478 21.656C36.3979 22.0283 36.7369 22.3895 37.0981 22.7674ZM19.2325 40.5163C19.4548 40.3274 19.6604 40.1551 19.8827 39.9717C19.5381 39.6105 19.2047 39.2604 18.8657 38.9048C18.6323 39.1048 18.4101 39.2882 18.1767 39.4827C18.5379 39.8328 18.8824 40.1662 19.2325 40.5163Z" fill="#4C4C4C"/>
<path d="M10.5082 2.80131C10.636 2.51791 10.7416 2.25117 10.8694 1.99555C11.1083 1.5121 11.4251 1.08977 11.8419 0.745241C12.3586 0.317357 12.9532 0.0839653 13.6256 0.017282C14.1813 -0.0327305 14.7148 0.0228388 15.2371 0.222889C15.8373 0.450724 16.3041 0.845267 16.6819 1.35095C16.982 1.75105 17.2043 2.19005 17.3821 2.65683C17.4488 2.82354 17.421 2.80131 17.5988 2.80131C18.1934 2.80131 18.7825 2.80131 19.3771 2.80131C19.6994 2.80131 20.0161 2.83465 20.3162 2.95135C20.7607 3.11806 21.0997 3.41813 21.3609 3.81268C21.3887 3.85157 21.4109 3.89047 21.4331 3.92937C21.5332 4.11831 21.6999 4.19055 21.8999 4.19611C22.2111 4.20166 22.5223 4.20722 22.8279 4.20722C23.3447 4.20722 23.8671 4.20166 24.3839 4.20722C25.0452 4.21278 25.6675 4.35726 26.2455 4.69067C27.1346 5.20747 27.668 5.97988 27.8903 6.97458C27.9514 7.25798 27.9792 7.54139 27.9792 7.83035C27.9792 10.9811 27.9792 14.1375 27.9792 17.2883C27.9792 17.4494 27.9626 17.605 27.9125 17.7551C27.807 18.0496 27.5958 18.1996 27.279 18.1996C26.9734 18.1996 26.7623 18.0496 26.6622 17.7606C26.6289 17.6606 26.6122 17.555 26.6011 17.4494C26.59 17.3716 26.5955 17.2938 26.5955 17.216C26.5955 15.0544 26.5955 12.8927 26.5955 10.7311C26.5955 9.81974 26.5955 8.90839 26.5955 7.99706C26.5955 7.63585 26.5566 7.27465 26.4288 6.93012C26.1843 6.26329 25.7009 5.86319 25.0174 5.70204C24.8006 5.65203 24.5673 5.61868 24.345 5.61313C23.5003 5.60201 22.6501 5.60757 21.8055 5.60757C21.7721 5.60757 21.7388 5.61313 21.6943 5.61313C21.6943 5.6687 21.6888 5.72426 21.6888 5.77428C21.6888 6.16326 21.6888 6.55225 21.6832 6.94124C21.6832 7.18018 21.6443 7.41358 21.5776 7.63585C21.3553 8.37493 20.8608 8.82504 20.1217 9.01953C19.8939 9.08066 19.6605 9.10289 19.4215 9.10289C15.804 9.10289 12.1864 9.10289 8.57437 9.10289C8.31875 9.10289 8.06868 9.0751 7.81862 9.00286C7.01286 8.78059 6.54052 8.24712 6.35715 7.44136C6.30713 7.22464 6.29602 7.00236 6.29602 6.78009C6.29602 6.45223 6.29602 6.12436 6.29602 5.7965C6.29602 5.74649 6.29046 5.69648 6.28491 5.64647C6.25156 5.64091 6.22934 5.63535 6.20711 5.63535C5.43469 5.62424 4.66228 5.60757 3.88986 5.61313C3.58423 5.61313 3.2786 5.63535 2.97852 5.68537C2.33947 5.79095 1.90047 6.16882 1.62263 6.74119C1.45036 7.09127 1.38368 7.46915 1.38368 7.85813C1.38368 8.46384 1.38368 9.06955 1.38368 9.67525C1.38368 12.6315 1.38368 15.5934 1.38368 18.5497C1.38368 23.9233 1.38368 29.2968 1.38368 34.676C1.38368 34.9816 1.40591 35.2872 1.4837 35.5817C1.70598 36.4153 2.26168 36.8932 3.09522 37.0543C3.31194 37.0988 3.53422 37.1099 3.7565 37.1099C7.29627 37.1155 10.8305 37.1099 14.3703 37.1155C14.5259 37.1155 14.687 37.1099 14.837 37.1432C15.2816 37.2377 15.4983 37.6545 15.3372 38.0824C15.2427 38.3213 15.0538 38.438 14.8148 38.488C14.7315 38.5047 14.6481 38.5102 14.5648 38.5102C14.248 38.5102 13.9257 38.5047 13.609 38.5047C10.5693 38.5047 7.53522 38.5047 4.49557 38.5047C4.12325 38.5047 3.75649 38.5102 3.38418 38.488C2.71179 38.4491 2.08385 38.2657 1.51705 37.8934C0.772415 37.3989 0.322303 36.6931 0.116696 35.8318C0.038899 35.5206 0 35.2039 0 34.8816C0 34.8149 0 34.7537 0 34.6871C0 25.796 0 16.8993 0 8.00817C0 7.53583 0.0444552 7.0746 0.188936 6.62449C0.583479 5.40196 1.41146 4.65177 2.64511 4.32947C2.99519 4.24056 3.3564 4.20166 3.7176 4.20166C4.4789 4.19611 5.24576 4.19611 6.00706 4.19611C6.25712 4.19611 6.4405 4.09608 6.56831 3.87936C6.77392 3.54038 7.04065 3.26254 7.39074 3.06805C7.70193 2.89578 8.03534 2.80687 8.38543 2.80687C9.04671 2.80131 9.70798 2.80687 10.3693 2.80131C10.4082 2.80131 10.4637 2.80131 10.5082 2.80131ZM13.9757 7.69698C13.9757 7.69698 13.9757 7.70254 13.9757 7.69698C14.1313 7.70254 14.2925 7.70254 14.4481 7.70254C16.0929 7.70254 17.7378 7.70254 19.3771 7.69698C19.4549 7.69698 19.5327 7.69698 19.6105 7.68587C19.9772 7.65252 20.1939 7.46915 20.2551 7.12462C20.2717 7.02459 20.2829 6.92457 20.2829 6.81898C20.2829 6.22995 20.2829 5.64091 20.2829 5.05743C20.2829 4.96296 20.2717 4.86294 20.2551 4.76847C20.2051 4.47951 20.0439 4.29057 19.7494 4.22945C19.6883 4.21833 19.6327 4.20166 19.5716 4.20166C19.1326 4.19611 18.6936 4.19055 18.2546 4.19055C17.7711 4.18499 17.2821 4.19611 16.7986 4.17943C16.3874 4.16832 16.1874 3.98494 16.104 3.57928C16.0985 3.54594 16.0929 3.5126 16.0929 3.48482C16.0762 3.35701 16.0651 3.2292 16.0373 3.10139C15.7984 1.86774 14.5592 1.12311 13.3589 1.48432C12.5587 1.72882 11.9697 2.45678 11.8807 3.29588C11.8641 3.44036 11.8419 3.5904 11.8085 3.73488C11.7474 3.96271 11.5918 4.11275 11.3584 4.15721C11.225 4.18499 11.0806 4.19611 10.9472 4.19611C10.1914 4.20166 9.43569 4.20166 8.68551 4.20166C8.56325 4.20166 8.44656 4.20722 8.3243 4.21833C7.96866 4.25167 7.76305 4.44061 7.70193 4.78514C7.68526 4.88517 7.67414 4.98519 7.67414 5.09077C7.67414 5.66314 7.67414 6.24106 7.67414 6.81343C7.67414 6.91345 7.68526 7.01903 7.69637 7.11906C7.74083 7.43581 7.90753 7.61363 8.22428 7.68031C8.35209 7.7081 8.49101 7.71365 8.62438 7.71365C10.4137 7.69698 12.1919 7.69698 13.9757 7.69698Z" fill="#4C4C4C"/>
<path d="M4.17871 23.0898C4.17871 22.4452 4.17871 21.8005 4.17871 21.1615C4.17871 21.0559 4.18982 20.9503 4.2065 20.8448C4.26207 20.5669 4.42877 20.3946 4.70662 20.3335C4.80109 20.3113 4.90111 20.3002 4.99558 20.3002C6.31258 20.3002 7.63513 20.3002 8.95213 20.3002C9.0466 20.3002 9.14662 20.3113 9.24109 20.3335C9.52449 20.3946 9.68565 20.5836 9.74121 20.8614C9.75789 20.9559 9.769 21.0559 9.769 21.1504C9.769 22.4452 9.769 23.7455 9.769 25.0402C9.769 25.1569 9.75233 25.2736 9.7301 25.3848C9.66898 25.6626 9.48004 25.8182 9.20219 25.8682C9.10217 25.8849 9.00214 25.896 8.89656 25.896C7.61291 25.896 6.32925 25.896 5.05115 25.896C4.95113 25.896 4.84555 25.8849 4.74552 25.8738C4.451 25.8293 4.26207 25.646 4.2065 25.3514C4.18982 25.2514 4.17871 25.1514 4.17871 25.0458C4.17871 24.3956 4.17871 23.7455 4.17871 23.0898ZM5.60129 24.4679C6.51819 24.4679 7.42952 24.4679 8.34642 24.4679C8.34642 23.5565 8.34642 22.6508 8.34642 21.7394C7.42952 21.7394 6.52374 21.7394 5.60129 21.7394C5.60129 22.6508 5.60129 23.551 5.60129 24.4679Z" fill="#4C4C4C"/>
<path d="M6.97943 11.9091C7.61292 11.9091 8.24641 11.9091 8.8799 11.9091C9.00216 11.9091 9.11885 11.9147 9.23555 11.9369C9.53007 11.998 9.69678 12.1759 9.74123 12.4704C9.7579 12.5648 9.76902 12.6649 9.76902 12.7593C9.76902 14.0485 9.76902 15.3433 9.76902 16.6325C9.76902 16.7159 9.76346 16.7992 9.74679 16.8826C9.69678 17.2493 9.4745 17.4605 9.09663 17.4827C8.89657 17.4939 8.69653 17.4939 8.50203 17.4939C7.34619 17.4939 6.18479 17.4939 5.02894 17.4883C4.91225 17.4883 4.78999 17.4772 4.6733 17.4494C4.43991 17.3994 4.28987 17.2493 4.22874 17.0215C4.20096 16.9215 4.17873 16.8104 4.17873 16.7103C4.17317 15.3655 4.17317 14.0263 4.17873 12.6815C4.17873 12.5926 4.18984 12.5037 4.21207 12.4204C4.28431 12.1092 4.51215 11.9258 4.85668 11.9091C5.12897 11.898 5.40126 11.9036 5.67355 11.898C6.11255 11.9036 6.54599 11.9036 6.97943 11.9091C6.97943 11.9036 6.97943 11.9091 6.97943 11.9091ZM5.61798 16.0713C6.53487 16.0713 7.44066 16.0713 8.33532 16.0713C8.36311 15.9212 8.35755 13.4428 8.33532 13.3373C8.17973 13.3095 5.72356 13.315 5.61798 13.3484C5.61798 14.2542 5.61798 15.1599 5.61798 16.0713Z" fill="#4C4C4C"/>
<path d="M6.9906 28.7133C7.64076 28.7133 8.29648 28.7133 8.94665 28.7133C9.04111 28.7133 9.13003 28.7189 9.22449 28.7355C9.53568 28.8022 9.70795 28.9856 9.7524 29.3024C9.76352 29.3968 9.77463 29.4969 9.77463 29.5913C9.77463 30.8639 9.77463 32.1364 9.77463 33.4089C9.77463 33.5256 9.76352 33.6423 9.74129 33.7535C9.66905 34.0869 9.45233 34.2703 9.09113 34.2869C8.85774 34.2981 8.61879 34.2925 8.38539 34.2925C7.27401 34.2925 6.16262 34.2925 5.05123 34.2869C4.92897 34.2869 4.80116 34.2814 4.67891 34.2536C4.45108 34.2036 4.28993 34.0591 4.23436 33.8257C4.20101 33.7035 4.18434 33.5701 4.18434 33.4423C4.17879 32.242 4.17879 31.0417 4.18434 29.8469C4.18434 29.6691 4.17879 29.4857 4.20657 29.3079C4.26214 28.9245 4.48442 28.73 4.8734 28.7133C5.21794 28.7022 5.55691 28.7022 5.90144 28.7022C6.25708 28.7022 6.62384 28.7078 6.9906 28.7133C6.9906 28.7078 6.9906 28.7078 6.9906 28.7133ZM8.3465 30.1359C7.4296 30.1359 6.52937 30.1359 5.62915 30.1359C5.60136 30.2915 5.60692 32.7643 5.63471 32.8699C5.81253 32.8977 8.25203 32.8921 8.3465 32.8588C8.3465 31.9586 8.3465 31.0528 8.3465 30.1359Z" fill="#4C4C4C"/>
<path d="M17.91 21.7005C16.204 21.7005 14.5036 21.7005 12.7976 21.7005C12.6531 21.7005 12.4975 21.6838 12.3586 21.6449C12.0418 21.5504 11.8696 21.2781 11.8918 20.9447C11.914 20.6224 12.1308 20.389 12.4531 20.3334C12.5309 20.3223 12.6087 20.3112 12.6864 20.3112C16.0762 20.3112 19.4659 20.3112 22.8557 20.3168C23.0001 20.3168 23.1502 20.3446 23.2947 20.3668C23.3891 20.3835 23.4614 20.439 23.5169 20.5224C23.6281 20.678 23.7114 20.8502 23.7281 21.0447C23.7614 21.4004 23.5558 21.6616 23.1946 21.6893C22.9612 21.7116 22.7223 21.7116 22.4889 21.7116C20.9663 21.7005 19.4381 21.7005 17.91 21.7005Z" fill="#4C4C4C"/>
<path d="M17.8045 11.9091C19.4993 11.9091 21.1942 11.9091 22.8891 11.9091C23.0058 11.9091 23.128 11.9147 23.2447 11.9425C23.5837 12.0203 23.7782 12.2703 23.7782 12.6093C23.7782 12.926 23.567 13.1872 23.2392 13.265C23.1391 13.2872 23.0391 13.2928 22.9391 13.2984C22.3056 13.3039 21.6721 13.2984 21.0386 13.2984C18.299 13.2984 15.5539 13.2984 12.8143 13.2928C12.6699 13.2928 12.5198 13.265 12.3753 13.2372C12.2531 13.215 12.1586 13.1372 12.0919 13.0261C11.9975 12.8705 11.9475 12.7038 11.9363 12.5259C11.9141 12.1925 12.1364 11.9536 12.4865 11.9147C12.5754 11.9036 12.6643 11.9036 12.7477 11.9036C14.437 11.9036 16.1207 11.9036 17.8045 11.9091C17.8045 11.9036 17.8045 11.9091 17.8045 11.9091Z" fill="#4C4C4C"/>
<path d="M15.7316 25.9015C14.748 25.9015 13.77 25.9015 12.7864 25.9015C12.6253 25.9015 12.4752 25.8848 12.3252 25.8293C12.0473 25.7237 11.8973 25.5181 11.8918 25.218C11.8862 24.9124 12.0307 24.6901 12.3141 24.5845C12.4752 24.5234 12.6475 24.5067 12.8198 24.5067C13.57 24.5067 14.3201 24.5067 15.0703 24.5067C16.254 24.5067 17.4431 24.5067 18.6268 24.5067C18.7768 24.5067 18.9324 24.5234 19.0769 24.5567C19.5103 24.6679 19.6548 25.0346 19.5548 25.4069C19.477 25.6959 19.2492 25.8237 18.9713 25.8737C18.8657 25.8904 18.7601 25.9015 18.6546 25.9015C17.6765 25.9015 16.7041 25.9015 15.7316 25.9015Z" fill="#4C4C4C"/>
<path d="M15.7263 17.4939C14.7649 17.4939 13.798 17.4939 12.8366 17.4939C12.6977 17.4939 12.5588 17.4883 12.4254 17.455C12.0809 17.3772 11.8864 17.1327 11.892 16.7937C11.8975 16.4548 12.092 16.2158 12.4421 16.1436C12.5366 16.1213 12.6366 16.1102 12.7311 16.1102C14.7371 16.1102 16.7376 16.1102 18.7437 16.1102C18.8993 16.1102 19.0493 16.1325 19.1882 16.1936C19.4494 16.3103 19.5772 16.5103 19.5772 16.7937C19.5772 17.0716 19.4661 17.2827 19.2105 17.3939C19.0938 17.4439 18.966 17.4772 18.8381 17.4884C18.5881 17.505 18.338 17.4995 18.088 17.4995C17.2989 17.4939 16.5098 17.4939 15.7263 17.4939Z" fill="#4C4C4C"/>
<path d="M13.6311 34.2925C13.2866 34.2925 12.9476 34.2925 12.6031 34.2925C12.5253 34.2925 12.4475 34.2814 12.3697 34.2592C12.0363 34.1591 11.8474 33.8535 11.8974 33.4978C11.9418 33.17 12.2086 32.9255 12.5531 32.9199C13.0143 32.9088 13.4755 32.9088 13.9423 32.9088C14.1924 32.9088 14.4424 32.9144 14.6925 32.9199C14.9981 32.9255 15.2482 33.1089 15.3371 33.3812C15.4872 33.8368 15.1815 34.2814 14.6981 34.2981C14.3424 34.3036 13.9868 34.2925 13.6311 34.2925Z" fill="#4C4C4C"/>
<path d="M13.6255 28.7134C13.9923 28.7134 14.359 28.7022 14.7202 28.7189C15.0703 28.73 15.3426 29.0023 15.3648 29.3302C15.3926 29.7692 15.1092 30.0804 14.6591 30.097C14.4146 30.1081 14.1701 30.1026 13.9256 30.1026C13.5032 30.1026 13.0809 30.1026 12.6641 30.097C12.5697 30.097 12.4696 30.0859 12.3752 30.0581C12.0473 29.9637 11.8584 29.6747 11.8917 29.3246C11.9251 28.9968 12.1751 28.7411 12.5141 28.7189C12.7975 28.7022 13.0809 28.7078 13.3588 28.7078C13.4477 28.7078 13.5366 28.7078 13.6199 28.7078C13.6255 28.7078 13.6255 28.7134 13.6255 28.7134Z" fill="#4C4C4C"/>
</svg>
