<svg width="43" height="43" viewBox="0 0 43 43" fill="none" xmlns="http://www.w3.org/2000/svg">
<path d="M24.235 0C24.3854 0.0603653 24.5391 0.111951 24.6839 0.182194C25.5027 0.577312 25.9264 1.24243 25.9384 2.14242C25.956 3.51107 25.9549 4.88081 25.9395 6.25056C25.9275 7.24384 25.4226 7.92322 24.4699 8.32493C24.7586 8.71017 25.0319 9.07675 25.3062 9.44333C25.9384 10.2863 26.5618 11.1358 27.2061 11.9699C27.7724 12.702 28.0424 13.5142 28.0381 14.4438C28.0238 17.4697 28.0359 20.4957 28.0282 23.5216C28.0271 23.7982 28.0787 23.9563 28.3717 24.0671C29.0884 24.3382 29.568 24.8716 29.8227 25.5927C30.0641 26.2754 30.3001 26.9613 30.5075 27.655C30.5975 27.9535 30.7336 28.0523 31.0519 28.0501C33.8584 28.0359 36.6648 28.0381 39.4712 28.0435C40.9288 28.0468 42.0187 29.0511 42.0615 30.4099C42.1043 31.8059 41.0276 32.9419 39.6139 32.9496C37.0402 32.9628 34.4664 32.9628 31.8927 32.9441C31.5261 32.9419 31.3845 33.0506 31.2714 33.3974C30.5053 35.7505 29.7129 38.0938 28.9282 40.4404C28.5506 41.5698 27.857 42.0713 26.6606 42.0713C19.0217 42.0724 11.3827 42.0724 3.74375 42.0713C1.81425 42.0713 0.547681 41.0824 0.0647585 39.2122C0.0559781 39.176 0.021951 39.1464 0 39.1134C0 30.6502 0 22.1859 0 13.7227C0.201949 12.8831 0.653041 12.1817 1.17767 11.51C1.90864 10.5738 2.60778 9.61236 3.31899 8.66078C3.39692 8.55651 3.46716 8.44676 3.55277 8.32273C2.66485 7.93091 2.12486 7.30859 2.11388 6.33836C2.09742 4.91813 2.09852 3.4968 2.11388 2.07547C2.12267 1.22048 2.53755 0.598167 3.30144 0.214024C3.4562 0.136098 3.61863 0.0713408 3.77668 0C10.5969 0 17.416 0 24.235 0ZM26.6145 19.6681C18.1864 19.6681 9.80334 19.6681 1.42134 19.6681C1.42134 23.8706 1.42134 28.0413 1.42134 32.2175C5.81264 32.2175 10.1798 32.2175 14.5876 32.2175C14.424 31.7159 14.266 31.2659 14.1288 30.8094C13.7973 29.7085 14.289 28.6691 15.3295 28.195C15.4777 28.1269 15.628 27.9645 15.684 27.812C15.9518 27.081 16.1724 26.3314 16.4391 25.5993C16.786 24.6488 17.4642 24.0495 18.4674 23.8926C18.9492 23.8169 19.4497 23.8344 19.9403 23.841C20.4156 23.8476 20.7766 23.6687 21.0862 23.3131C22.254 21.9675 24.032 21.9664 25.1822 23.3164C25.5708 23.7719 26.0339 23.908 26.6145 23.8026C26.6145 22.4186 26.6145 21.0532 26.6145 19.6681ZM1.40377 18.2084C9.83297 18.2084 18.215 18.2084 26.631 18.2084C26.631 16.9111 26.6233 15.6401 26.6343 14.3691C26.6398 13.8105 26.474 13.3265 26.1393 12.8831C25.0834 11.4848 24.0419 10.0766 22.9762 8.68822C22.8653 8.54334 22.6238 8.42041 22.4438 8.42041C16.8189 8.40615 11.1928 8.40724 5.56678 8.41822C5.40763 8.41822 5.19472 8.52139 5.09813 8.64651C4.00936 10.07 2.92169 11.4969 1.87463 12.9511C1.63756 13.2793 1.44108 13.715 1.42462 14.1101C1.36974 15.4612 1.40377 16.8167 1.40377 18.2084ZM29.9467 32.9529C29.7118 32.9529 29.5483 32.9529 29.3847 32.9529C28.6999 32.9518 28.015 32.9617 27.3312 32.9463C26.935 32.9375 26.6486 32.639 26.6365 32.2735C26.6233 31.897 26.9229 31.5864 27.3323 31.5568C27.4552 31.548 27.5782 31.5535 27.7022 31.5535C31.5634 31.5535 35.4246 31.5535 39.2858 31.5535C39.4361 31.5535 39.5887 31.5612 39.7369 31.5414C40.2703 31.469 40.6599 31.0234 40.6599 30.4999C40.6599 29.9928 40.2933 29.5636 39.7731 29.4725C39.6523 29.4517 39.5283 29.4462 39.4054 29.4462C31.7236 29.4451 24.043 29.444 16.3612 29.4462C15.5435 29.4462 15.2735 29.8282 15.5336 30.6107C16.5741 33.7365 17.6157 36.8613 18.6595 39.986C18.8461 40.5457 19.0239 40.672 19.6209 40.672C21.962 40.6731 24.3042 40.6731 26.6453 40.672C27.2412 40.672 27.4146 40.5457 27.6023 39.9816C28.1269 38.4121 28.6483 36.8426 29.1718 35.2731C29.4232 34.5235 29.6734 33.7739 29.9467 32.9529ZM1.44438 33.663C1.41804 33.7552 1.40377 33.7804 1.40377 33.8057C1.40158 35.2984 1.39828 36.7899 1.39828 38.2826C1.39828 39.829 2.23681 40.6709 3.77778 40.6709C8.17127 40.672 12.5659 40.6709 16.9594 40.6709C17.0911 40.6709 17.2228 40.6709 17.3907 40.6709C17.338 40.4942 17.3029 40.3635 17.2601 40.2362C16.5774 38.1882 15.886 36.1424 15.2197 34.0888C15.1133 33.7618 14.9728 33.652 14.6249 33.6531C10.3675 33.6663 6.11117 33.6619 1.85377 33.6619C1.72096 33.663 1.58597 33.663 1.44438 33.663ZM14.007 7.00457C17.2107 7.00457 20.4145 7.00567 23.6182 7.00348C24.3064 7.00348 24.5369 6.77738 24.5391 6.098C24.5435 4.83801 24.5435 3.57802 24.5391 2.31803C24.5369 1.64304 24.2932 1.39938 23.6215 1.39938C17.214 1.39828 10.8065 1.39828 4.39899 1.39938C3.74815 1.39938 3.51326 1.63755 3.51107 2.29388C3.50777 3.53961 3.50887 4.78642 3.50997 6.03214C3.51106 6.81141 3.70204 7.00348 4.47692 7.00348C7.65433 7.00567 10.8306 7.00457 14.007 7.00457ZM17.0977 28.0216C21.1575 28.0216 25.1361 28.0216 29.1685 28.0216C28.9161 27.2939 28.7021 26.5893 28.4266 25.9088C28.24 25.4489 27.8229 25.2536 27.3356 25.2393C26.9394 25.2272 26.5421 25.2393 26.1448 25.2327C25.3765 25.2195 24.741 24.9111 24.2284 24.347C23.4799 23.5227 22.7863 23.5139 22.0509 24.3305C21.5175 24.9221 20.859 25.2316 20.061 25.236C19.678 25.2382 19.2939 25.2272 18.9119 25.2415C18.4235 25.2601 18.0141 25.4665 17.8297 25.9264C17.5597 26.5948 17.3501 27.2873 17.0977 28.0216Z" fill="#4C4C4C"/>
</svg>
