<svg width="32" height="32" viewBox="0 0 32 32" fill="none" xmlns="http://www.w3.org/2000/svg">
<path d="M4.49329 26.8C3.23996 25.2934 2.66663 23.08 2.66663 20V12C2.66663 5.33335 5.33329 2.66669 12 2.66669H20C22.92 2.66669 25.0666 3.17335 26.56 4.30669" stroke="#B3B3B3" stroke-width="2" stroke-linecap="round" stroke-linejoin="round"/>
<path d="M29.2932 10.6533C29.3199 11.08 29.3332 11.5333 29.3332 12V20C29.3332 26.6667 26.6666 29.3333 19.9999 29.3333H11.9999C11.0132 29.3333 10.1066 29.28 9.27991 29.1467" stroke="#B3B3B3" stroke-width="2" stroke-linecap="round" stroke-linejoin="round"/>
<path d="M10.6667 13.3333C12.1394 13.3333 13.3333 12.1394 13.3333 10.6667C13.3333 9.19391 12.1394 8 10.6667 8C9.19391 8 8 9.19391 8 10.6667C8 12.1394 9.19391 13.3333 10.6667 13.3333Z" stroke="#B3B3B3" stroke-width="2" stroke-linecap="round" stroke-linejoin="round"/>
<path d="M29.3333 2.66669L2.66663 29.3334" stroke="#B3B3B3" stroke-width="2" stroke-linecap="round" stroke-linejoin="round"/>
<path d="M15.2401 21.9334C15.6401 22.3334 16.2934 22.3334 16.6934 21.9334L23.4001 15.2133C24.4401 14.1733 26.1201 14.1733 27.1601 15.2133L29.3334 17.4" stroke="#B3B3B3" stroke-width="2" stroke-linecap="round" stroke-linejoin="round"/>
</svg>
