<svg width="15" height="24" viewBox="0 0 15 24" fill="none" xmlns="http://www.w3.org/2000/svg">
<path d="M2.37496 19H2.26641C1.67303 19 1.20991 18.835 0.877041 18.505C0.547065 18.1722 0.382077 17.6642 0.382077 16.9811V12.9389H1.63685V16.9854C1.63685 17.2922 1.68461 17.4876 1.78013 17.5716C1.87565 17.6555 2.03774 17.6975 2.26641 17.6975H2.37496V19ZM3.62105 18.479C3.44448 18.644 3.25344 18.7728 3.04793 18.8654C2.84242 18.9551 2.62389 19 2.39232 19H2.20997V17.6975H2.37061C2.53271 17.6975 2.67743 17.6179 2.80479 17.4587C2.93215 17.2966 3.05227 17.0925 3.16516 16.8465C3.36778 16.4036 3.61092 16.0621 3.89458 15.8218C4.18114 15.5816 4.51111 15.4614 4.88451 15.4614C5.25211 15.4614 5.56906 15.5526 5.83536 15.735C6.10455 15.9173 6.31151 16.1561 6.45623 16.4514C6.60385 16.7466 6.67767 17.065 6.67767 17.4066C6.67767 17.9073 6.54307 18.314 6.27388 18.6266C6.00758 18.9392 5.6284 19.0955 5.13633 19.0955C4.85267 19.0955 4.58637 19.042 4.33744 18.9349C4.09141 18.8249 3.85261 18.6729 3.62105 18.479ZM4.30271 17.3892C4.44165 17.5339 4.58782 17.6425 4.74123 17.7148C4.89753 17.7872 5.02345 17.8234 5.11896 17.8234C5.22027 17.8234 5.30132 17.7959 5.3621 17.7409C5.42289 17.683 5.45328 17.5933 5.45328 17.4717C5.45328 17.2314 5.39973 17.0534 5.29264 16.9377C5.18554 16.8219 5.05528 16.764 4.90188 16.764C4.71373 16.764 4.51401 16.9724 4.30271 17.3892ZM8.69659 15.3876C9.22629 15.3876 9.63442 15.5931 9.92098 16.0042C10.2104 16.4123 10.3913 16.9767 10.4637 17.6975H10.7329V19H10.3812C10.2191 19.6455 9.8848 20.165 9.37826 20.5587C8.87171 20.9524 8.21466 21.223 7.40708 21.3706L6.95554 20.207C7.50839 20.1057 7.96428 19.9566 8.3232 19.7598C8.68502 19.563 8.94697 19.3097 9.10906 19H8.84856C8.28123 19 7.83258 18.8712 7.5026 18.6136C7.17263 18.3531 7.00764 17.9667 7.00764 17.4543C7.00764 17.2199 7.04093 16.9825 7.1075 16.7423C7.17408 16.4991 7.27538 16.2748 7.41143 16.0693C7.54747 15.8638 7.72114 15.6988 7.93244 15.5743C8.14664 15.4499 8.40135 15.3876 8.69659 15.3876ZM9.23498 17.6975C9.20314 17.4138 9.15682 17.1996 9.09604 17.0549C9.03815 16.9073 8.97157 16.8074 8.89632 16.7553C8.82106 16.7032 8.74146 16.6771 8.65752 16.6771C8.56779 16.6771 8.49108 16.7177 8.4274 16.7987C8.36662 16.8798 8.32031 16.9782 8.28847 17.094C8.25952 17.2097 8.24505 17.3226 8.24505 17.4326C8.24505 17.4905 8.25229 17.5397 8.26676 17.5802C8.28413 17.6208 8.33189 17.6512 8.41004 17.6714C8.48819 17.6888 8.61989 17.6975 8.80514 17.6975H9.23498ZM13.1252 15.2226C13.2005 15.4774 13.2642 15.7596 13.3163 16.0693C13.3712 16.379 13.3987 16.667 13.3987 16.9333C13.3987 17.6396 13.2106 18.1606 12.8343 18.4964C12.458 18.8321 11.9153 19 11.2061 19H10.5592V17.6975H11.2061C11.4753 17.6975 11.6751 17.683 11.8053 17.654C11.9385 17.6251 12.0267 17.5585 12.0702 17.4543C12.1136 17.3472 12.1353 17.1779 12.1353 16.9463C12.1353 16.7495 12.1121 16.5151 12.0658 16.243C12.0195 15.968 11.9717 15.7263 11.9225 15.5179L13.1252 15.2226ZM10.4984 14.0938L11.2539 13.3427L11.992 14.0764L12.7258 13.3427L13.4812 14.0981L12.7258 14.8536L11.992 14.1155L11.2539 14.8536L10.4984 14.0938Z" fill="#808080"/>
<path d="M2.25339 5.64814L3.06964 4.83623L3.8859 5.64814L3.06964 6.4644L2.25339 5.64814ZM4.35915 6.24731L5.62261 5.80879C5.76734 6.17639 5.88601 6.56136 5.97864 6.9637C6.07126 7.36315 6.11757 7.75246 6.11757 8.13164C6.11757 8.73949 5.98587 9.25327 5.72247 9.67298C5.46197 10.0927 5.10594 10.4111 4.65439 10.6282C4.20574 10.8453 3.69775 10.9538 3.13043 10.9538C2.51968 10.9538 1.99288 10.8453 1.55002 10.6282C1.10716 10.414 0.765601 10.0999 0.525356 9.686C0.285111 9.27498 0.164988 8.77712 0.164988 8.19243C0.164988 7.82482 0.214195 7.45288 0.312609 7.07659C0.411022 6.69741 0.531145 6.33559 0.672977 5.99114L1.82355 6.45571C1.72224 6.7278 1.63106 7.0158 1.55002 7.31973C1.47187 7.62076 1.43279 7.90442 1.43279 8.17072C1.43279 8.68594 1.56015 9.06223 1.81487 9.29958C2.07248 9.53983 2.50666 9.65995 3.1174 9.65995C3.7021 9.65995 4.13627 9.52825 4.41994 9.26485C4.7036 9.00434 4.84688 8.58319 4.84977 8.00139C4.84977 7.70615 4.79912 7.40656 4.69781 7.10264C4.5994 6.79872 4.48651 6.5136 4.35915 6.24731Z" fill="#808080"/>
</svg>
