<svg width="75" height="89" viewBox="0 0 75 89" fill="none" xmlns="http://www.w3.org/2000/svg">
<path d="M0.477457 89C0.147607 88.5354 0.0297973 88.0708 0.0297973 87.49C0.053358 81.4732 0.053358 75.4331 0.0297973 69.4163C0.0297973 67.4184 0.595266 65.6993 2.22096 64.4449C2.59793 64.1429 2.50368 64.0035 2.17383 63.7479C0.83087 62.6561 0.0769216 61.239 0.0769216 59.5199C0.0533609 56.9877 -0.20581 54.4091 0.383208 51.9001C1.74973 46.0692 6.90953 42.027 13.0118 41.9573C14.1898 41.934 15.3678 41.9573 16.5459 41.9573C17.0642 41.9573 17.5119 41.8643 17.8653 41.423C20.5512 38.1009 24.1089 36.3354 28.3498 35.894C28.8917 35.8475 29.1037 35.7081 29.0566 35.1274C29.0095 34.1749 28.9859 33.2224 29.0566 32.27C29.1037 31.5498 28.8446 31.0852 28.2791 30.667C26.3236 29.157 24.6036 27.4379 24.0853 24.9522C23.8261 23.7442 23.3785 23.0473 22.1769 22.5129C20.5041 21.7928 19.7972 20.2131 19.9622 18.4243C20.1271 16.5658 21.1873 15.2417 23.0015 14.6376C23.567 14.4518 23.7554 14.2427 23.7554 13.6387C23.8261 5.53111 30.2818 -0.439254 38.4809 0.0253659C45.3135 0.397061 50.921 6.15834 51.1094 13.0812C51.133 13.964 51.2508 14.475 52.2404 14.8235C53.9367 15.381 54.9969 17.1698 54.9263 18.9121C54.8791 20.7474 53.654 22.3968 51.8634 22.9543C51.2979 23.117 51.133 23.3493 51.0387 23.93C50.6853 26.1834 49.6722 28.1581 47.8581 29.5519C46.3502 30.7135 45.6433 32.0377 45.9732 33.9194C46.0674 34.5001 45.8083 35.2668 46.091 35.6849C46.3973 36.1031 47.2219 35.9172 47.8109 36.0101C51.2744 36.6142 54.243 38.1474 56.6226 40.726C57.4473 41.6088 58.3661 42.0037 59.5677 41.9805C61.9238 41.9108 64.2563 41.934 66.5181 42.7704C71.4894 44.6056 74.7408 49.066 74.9529 54.502C75.0236 56.2443 74.9764 57.9866 74.9293 59.7057C74.8822 61.3319 74.1518 62.6561 72.9031 63.6782C72.5026 64.0035 72.4554 64.1429 72.8795 64.4913C74.3167 65.6529 74.9764 67.1861 74.9764 68.9749C74.9764 75.224 74.9764 81.4964 75 87.7455C75 88.2334 74.788 88.6051 74.5524 89C49.8372 89 25.1455 89 0.477457 89ZM30.965 35.1274C30.9415 35.3597 30.9179 35.592 30.9179 35.8243C30.8943 37.5899 30.8237 37.6363 29.033 37.7292C25.8995 37.8686 23.1429 38.9372 20.8339 41.028C20.4805 41.2371 20.1978 41.4694 19.9386 41.9805C21.4936 41.9805 22.9073 41.9805 24.3209 41.9805C24.8392 41.9805 25.3105 42.027 25.6639 42.4451C25.711 42.631 25.7346 42.7936 25.7817 42.9794C25.6403 43.6764 25.1691 43.8854 24.5094 43.8622C23.4963 43.839 22.4596 43.8854 21.4465 43.8854C18.4307 43.8854 15.4149 43.8622 12.3992 43.8854C11.763 43.8854 11.1033 43.9551 10.5143 44.2107C6.76816 44.7915 3.16338 48.2296 2.24451 52.2021C1.65549 54.7111 1.8911 57.2665 1.96178 59.7987C1.98534 60.8441 2.59792 61.7036 3.42255 62.3773C4.85975 63.5388 4.85974 64.7236 3.4461 65.8852C2.48011 66.675 1.91465 67.674 1.91465 68.882C1.89109 74.7826 1.91466 80.6833 1.8911 86.584C1.8911 87.0486 2.05602 87.188 2.50367 87.1647C3.23405 87.1183 3.96445 87.1415 4.69483 87.1183C7.07446 87.1415 9.45408 87.1415 11.8102 87.1647C12.3049 87.1647 12.3992 87.0021 12.3049 86.5375C12.0222 85.0275 11.7866 83.5175 11.5274 82.0075C11.4096 81.357 11.5981 80.8692 12.2814 80.753C12.9646 80.6368 13.2709 81.0782 13.3887 81.7055C13.6008 82.9599 13.8364 84.2144 14.0484 85.4689C14.3547 87.2344 14.3312 87.2344 16.1689 87.1183C16.7343 87.1415 17.2763 87.1183 17.8417 87.1647C18.4543 87.2344 18.5014 86.9324 18.4543 86.4446C17.7239 81.1479 17.0171 75.8513 16.3103 70.5314C16.2867 70.2758 16.2396 70.0203 16.0511 69.8112C14.6139 68.1618 13.2002 66.5124 11.763 64.863C11.4332 64.3055 11.2918 63.7479 11.928 63.353C12.5877 62.9348 13.0118 63.353 13.4123 63.8408C14.5196 65.1882 15.6506 66.5124 16.7815 67.8598C18.2658 69.6254 20.1742 70.4617 22.4832 70.4384C24.4387 70.4152 26.4178 70.4384 28.3734 70.4384C29.0331 70.4384 29.4807 70.7172 29.5043 71.3677C29.5043 71.9949 29.0802 72.3202 28.4676 72.3202C25.5932 72.2272 22.7188 72.5989 19.8679 72.0182C19.3731 71.8323 18.8784 71.6465 18.2894 71.4141C18.5485 73.3888 18.8784 75.2008 18.9962 77.036C19.0669 78.2441 19.7501 78.7319 20.7397 79.0804C21.2344 79.3359 21.7057 79.6379 22.2004 79.8702C23.8026 80.6368 24.6979 81.9146 24.957 83.6336C25.0984 84.5396 25.3576 85.4457 25.4283 86.3517C25.4989 87.0718 25.8288 87.1647 26.4414 87.1647C28.4676 87.1415 30.4938 87.1647 32.52 87.1647C37.8683 87.1647 43.193 87.1647 48.5413 87.188C49.201 87.188 49.4602 87.0486 49.5309 86.3517C49.6251 85.376 49.8607 84.4235 50.0256 83.4478C50.2848 81.8913 51.0859 80.7065 52.4995 79.9864C53.0885 79.6844 53.6776 79.3359 54.243 79.0107C55.209 78.7087 55.8687 78.244 55.9158 77.0593C55.9394 75.6886 56.2692 74.3413 56.4577 72.9706C56.5284 72.506 56.8111 71.8555 56.4577 71.6C56.1514 71.3909 55.5624 71.8091 55.1148 72.0182C52.2875 72.5292 49.4366 72.2272 46.6093 72.2969C45.9732 72.3202 45.4784 72.0878 45.4549 71.3909C45.4549 70.6475 45.9496 70.4384 46.6329 70.4384C48.4706 70.4617 50.3319 70.4152 52.1697 70.4617C54.832 70.5081 56.9525 69.5324 58.5782 67.4649C59.5442 66.2336 60.5808 65.0489 61.594 63.8408C61.9709 63.3762 62.395 63.0045 63.0076 63.3995C63.6437 63.7944 63.5259 64.3519 63.1961 64.9095C61.7589 66.5589 60.3452 68.2083 58.908 69.8577C58.7195 70.0667 58.6724 70.3223 58.6489 70.5778C57.942 75.8513 57.2352 81.1247 56.5284 86.3981C56.4342 87.0718 56.6462 87.2809 57.3059 87.2112C57.8007 87.1647 58.2955 87.188 58.7902 87.1647C59.0258 87.188 59.2614 87.1647 59.4971 87.2112C60.3688 87.3506 60.6986 87.0254 60.8164 86.1194C60.9814 84.679 61.3112 83.2852 61.5468 81.8449C61.6646 81.1944 61.9238 80.6833 62.6777 80.7995C63.4081 80.9156 63.5259 81.4732 63.4081 82.1236C63.149 83.6104 62.9133 85.0972 62.6306 86.5607C62.5364 87.0021 62.6306 87.188 63.1254 87.188C65.505 87.1647 67.8847 87.1647 70.2407 87.1415C70.9476 87.1647 71.6544 87.1415 72.3612 87.188C72.9267 87.2344 73.0445 86.9789 73.0445 86.4678C73.0209 80.6833 73.0445 74.8756 73.0209 69.091C73.0209 67.7669 72.5026 66.675 71.4659 65.8387C70.1229 64.7469 70.0994 63.5388 71.4423 62.447C72.5261 61.5642 73.0209 60.4491 73.0209 59.1017C73.0209 57.6846 73.0445 56.2676 73.0209 54.8505C72.9973 53.7818 72.9031 52.7132 72.5497 51.6911C71.2774 47.9973 68.8742 45.4419 64.9867 44.3733C64.8689 44.3268 64.7511 44.2804 64.6333 44.2571C64.5862 44.2571 64.5155 44.2339 64.4684 44.2339C64.1856 44.1642 63.9029 44.0713 63.6202 44.0481C60.3217 43.7461 56.9996 43.9319 53.7011 43.9319C52.6173 43.9087 51.5571 43.8854 50.4733 43.9087C49.79 43.9319 49.3424 43.6996 49.201 43.0259C49.2481 42.8168 49.2953 42.6077 49.3424 42.3987C49.7429 42.0502 50.2377 42.0037 50.7325 42.027C52.1461 42.027 53.5597 42.027 55.2561 42.027C54.7142 41.5391 54.3844 41.2603 54.031 40.9583C53.9132 40.8422 53.7718 40.726 53.654 40.6099C51.2508 38.7746 48.5178 37.7989 45.4549 37.7525C44.4182 37.7292 44.159 37.4737 44.1355 36.4748C44.1355 36.0334 44.1119 35.6152 44.0883 35.1738C44.0883 34.5466 44.0883 33.9426 44.0883 33.1992C39.6589 36.498 35.3002 36.4748 30.9415 33.2457C30.965 33.9194 30.965 34.5234 30.965 35.1274ZM25.6639 17.4254C25.6639 19.3303 25.6639 20.8403 25.6639 22.3503C25.6639 24.4876 26.4178 26.3228 27.9492 27.8096C29.3864 29.2035 30.8708 30.5973 32.4022 31.8983C35.3944 34.4304 39.6589 34.4072 42.6276 31.8286C43.9941 30.6438 45.2899 29.3661 46.6329 28.1581C48.4706 26.5087 49.2953 24.4876 49.2953 22.0483C49.2717 19.1212 49.3188 16.1941 49.2953 13.267C49.2246 7.50574 44.7009 2.55754 38.9285 1.90707C32.9441 1.23338 27.4309 4.97356 25.9937 10.6884C25.4283 13.0812 25.8052 15.474 25.6639 17.4254ZM55.4682 80.5439C54.5964 81.0085 53.866 81.357 53.1592 81.7752C52.4995 82.1469 52.1461 82.7276 51.9812 83.4478C51.7691 84.4467 51.6278 85.4457 51.4157 86.4446C51.3215 86.9324 51.3922 87.2112 52.0047 87.1647C52.6409 87.1183 53.3006 87.1183 53.9367 87.1647C54.4315 87.188 54.5964 87.0021 54.6435 86.5375C54.9027 84.6093 55.1619 82.6812 55.4682 80.5439ZM19.5381 80.5439C19.7973 82.5882 20.0564 84.4235 20.2685 86.3052C20.3391 86.9789 20.5983 87.2577 21.3287 87.1647C21.9177 87.0951 22.5067 87.1415 23.0957 87.1647C23.5434 87.188 23.6612 87.0254 23.5905 86.6072C23.3785 85.4921 23.19 84.377 22.9544 83.2852C22.8366 82.7741 22.5774 82.2862 22.1062 82.0075C21.3051 81.4964 20.4805 81.055 19.5381 80.5439ZM23.7083 16.4497C22.4832 16.8678 21.8941 17.7041 21.9413 18.9354C21.9884 20.0272 22.6245 20.8171 23.7083 21.0959C23.7083 19.5394 23.7083 18.0061 23.7083 16.4497ZM51.2744 16.4032C51.2744 18.0061 51.2744 19.5626 51.2744 21.1191C52.4288 20.7474 53.0178 20.004 53.0414 18.8889C53.0885 17.7041 52.5466 16.9143 51.2744 16.4032Z" fill="#34303F"/>
<path d="M16.1689 87.0951C14.3547 87.2113 14.3547 87.2113 14.0484 85.4457C13.8364 84.1912 13.6008 82.9368 13.3887 81.6823C13.2709 81.0551 12.9646 80.6137 12.2814 80.7298C11.6217 80.846 11.4332 81.3338 11.5274 81.9843C11.7866 83.4943 12.0222 85.0043 12.3049 86.5143C12.3992 86.9557 12.3285 87.1416 11.8101 87.1416C9.43052 87.1183 7.0509 87.1183 4.69482 87.0951C4.69482 81.3803 4.69482 75.6887 4.69482 69.9739C4.69482 68.0457 5.04823 66.2569 6.65036 64.8863C7.1687 64.4449 7.14513 63.6086 6.62679 63.2137C5.16603 62.0986 4.76549 60.5189 4.74193 58.8463C4.69481 57.1272 4.69481 55.3848 4.85974 53.6425C5.16603 50.7619 6.15559 48.2297 8.22893 46.1389C8.93575 45.4187 9.76038 44.8147 10.5379 44.1643C11.1505 43.9087 11.7866 43.839 12.4227 43.839C15.4385 43.8158 18.4543 43.839 21.47 43.839C21.0931 45.2794 21.3522 46.7429 21.3287 48.2065C21.258 49.368 21.4465 49.5771 22.6481 49.5771C24.7685 49.5771 26.8655 49.6468 28.9859 49.5539C30.7059 49.4609 32.0959 49.8791 33.1562 51.273C33.4625 51.6679 33.8394 51.9931 34.4284 51.9234C36.3133 51.9467 38.1746 51.9466 40.0595 51.9699C40.2479 51.9699 40.4129 51.9699 40.5307 51.784C41.1904 51.9699 41.6851 51.7376 42.0621 51.2265C43.1223 49.8559 44.4889 49.4145 46.2088 49.5074C48.3764 49.6236 50.544 49.5539 52.7116 49.5306C53.6776 49.5306 53.9838 49.0892 53.7482 48.1368C54.0781 46.6964 54.0074 45.2561 53.7482 43.839C57.0467 43.839 60.3688 43.6532 63.6673 43.9552C63.95 43.9784 64.2327 44.0946 64.5155 44.141C64.5626 44.234 64.6097 44.2572 64.6804 44.1643C64.7982 44.2107 64.916 44.2572 65.0338 44.2804C65.0809 44.7218 65.505 44.8612 65.7642 45.0935C68.0025 46.8823 69.2983 49.2054 69.958 51.9234C70.4999 54.2233 70.2879 56.5696 70.3114 58.9159C70.335 60.5653 69.8167 62.0289 68.5444 63.1904C67.8375 63.8409 67.814 64.3752 68.5208 65.0257C69.8873 66.2802 70.335 67.8366 70.335 69.6254C70.3114 75.4332 70.335 81.2641 70.3114 87.0719C67.9318 87.0951 65.5522 87.0951 63.1961 87.1183C62.7013 87.1183 62.6071 86.9557 62.7013 86.4911C62.984 85.0043 63.1961 83.5175 63.4788 82.054C63.5966 81.4035 63.4788 80.846 62.7484 80.7298C62.018 80.6137 61.7353 81.1248 61.6175 81.7752C61.3819 83.1923 61.0285 84.6094 60.8871 86.0497C60.7929 86.9325 60.463 87.281 59.5677 87.1416C59.3321 87.0951 59.0965 87.1183 58.8609 87.0951C58.8609 86.8396 58.8374 86.5608 58.8845 86.3285C59.6149 82.7277 60.3688 79.1501 61.0992 75.5493C61.8296 71.9717 62.5364 68.4174 63.2668 64.8398C63.5966 64.2823 63.7144 63.7248 63.0783 63.3298C62.4657 62.9581 62.0416 63.3298 61.6646 63.7712C60.6515 64.9792 59.6149 66.164 58.6489 67.3953C57.0232 69.4628 54.9027 70.4385 52.2403 70.392C50.4026 70.3456 48.5413 70.392 46.7036 70.3688C46.0203 70.3688 45.502 70.5779 45.5255 71.3213C45.5255 72.0182 46.0439 72.2505 46.68 72.2273C49.5309 72.1576 52.3817 72.4596 55.1854 71.9485C54.9027 74.2716 54.62 76.6179 54.3372 78.941C53.7482 79.2663 53.1828 79.6147 52.5938 79.9167C51.1566 80.6601 50.3791 81.8449 50.1199 83.3782C49.955 84.3539 49.7193 85.3063 49.6251 86.282C49.5544 86.979 49.2717 87.1183 48.6356 87.1183C43.2873 87.0951 37.9626 87.0951 32.6143 87.0951C30.5881 87.0951 28.5618 87.0719 26.5356 87.0951C25.923 87.0951 25.5696 87.0254 25.5225 86.282C25.4518 85.376 25.1926 84.47 25.0513 83.564C24.7921 81.8449 23.8968 80.5672 22.2947 79.8006C21.7999 79.5683 21.3287 79.2663 20.8339 79.0107C20.5512 76.6644 20.2449 74.2948 19.9622 71.9485C22.813 72.5061 25.6874 72.1576 28.5618 72.2505C29.1744 72.2738 29.5985 71.9253 29.5985 71.2981C29.5985 70.6244 29.1273 70.3688 28.4676 70.3688C26.512 70.3688 24.5329 70.3688 22.5774 70.3688C20.2684 70.392 18.36 69.5325 16.8757 67.7902C15.7448 66.466 14.6139 65.1186 13.5065 63.7712C13.106 63.2834 12.6819 62.8652 12.0222 63.2834C11.3861 63.7015 11.5274 64.2591 11.8573 64.7934C11.9044 65.0954 11.9751 65.4206 12.0222 65.7226C13.0589 70.787 14.0955 75.8746 15.0851 80.9389C15.4149 83.0297 15.9333 85.0276 16.1689 87.0951ZM29.787 79.4057L29.8105 79.3592C29.6692 79.6612 29.8341 79.8935 29.9283 80.1723C30.1875 80.8228 30.3996 81.4964 30.6352 82.1701C29.8577 82.5418 29.7634 83.0994 30.1875 83.7963C30.8943 84.9579 31.9546 85.6083 33.2975 85.6316C36.0777 85.678 38.8814 85.678 41.6616 85.6316C42.9103 85.6083 43.8999 85.0508 44.6538 84.0519C45.125 83.4014 45.2193 82.7974 44.536 82.2398C44.5596 81.1712 45.2899 80.2884 45.4313 79.243C46.9156 78.3603 47.5518 76.8503 48.1879 75.3867C48.3999 74.8989 48.5413 74.4575 48.1172 74.0393C47.646 73.5979 47.1748 73.7373 46.7036 74.0625C46.2088 73.4585 45.6433 72.9939 44.7952 72.9939C42.9574 72.9939 41.1197 73.0171 39.2584 72.9939C38.7165 72.9939 38.528 73.1565 38.5516 73.6908C38.5751 75.0847 38.5516 76.4553 38.5516 77.8492C38.2688 77.6169 38.4102 77.3149 38.4102 77.0361C38.3866 75.2938 38.4102 73.5747 38.4102 71.8324C38.4102 71.1587 38.1982 70.6708 37.4442 70.694C36.7374 70.7173 36.5489 71.2051 36.5489 71.8324C36.5725 73.5747 36.5725 75.2938 36.5489 77.0361C36.5489 77.3149 36.6903 77.6169 36.4075 77.8492C36.4075 76.5483 36.3604 75.2473 36.4075 73.9464C36.4311 73.2495 36.2426 72.9707 35.4887 72.9939C34.1693 73.0636 32.8499 73.0636 31.5305 72.9939C30.2818 72.9242 29.1273 73.0636 28.2791 74.0625C27.855 73.7838 27.3838 73.5979 26.9361 73.9928C26.6298 74.2484 26.4649 74.5968 26.6534 74.9918C27.3367 76.5947 27.9492 78.2673 29.5749 79.243C29.6456 79.3127 29.7163 79.3592 29.787 79.4057ZM23.6612 61.8895C24.6979 61.8895 25.711 61.8895 26.7477 61.8895C28.1142 61.8895 28.8446 61.1693 28.8681 59.7987C28.8917 58.8463 28.8681 57.8938 28.8681 56.9413C28.8681 55.6171 28.1142 54.8041 26.7712 54.7808C24.6272 54.7344 22.4832 54.7344 20.3391 54.7808C19.2082 54.8041 18.4543 55.6404 18.4543 56.7555C18.4543 57.8241 18.4543 58.8927 18.4543 59.9613C18.4543 61.1926 19.1375 61.8663 20.4098 61.8895C21.47 61.9127 22.5774 61.8895 23.6612 61.8895ZM51.4864 61.8895C52.5938 61.8895 53.7247 61.9127 54.832 61.8895C55.9865 61.8663 56.6933 61.1694 56.6933 60.0543C56.7169 58.9624 56.6933 57.8473 56.6933 56.7555C56.6933 55.6404 55.9158 54.8041 54.8085 54.7808C52.6409 54.7344 50.4733 54.7344 48.3057 54.7808C47.1512 54.8041 46.3502 55.5707 46.303 56.5928C46.2559 57.7544 46.2559 58.9159 46.303 60.0543C46.3502 61.1926 47.1512 61.8895 48.3057 61.8895C49.3895 61.8895 50.4497 61.8895 51.4864 61.8895ZM38.4102 60.6815C38.4102 59.9613 38.4102 59.2412 38.4102 58.521C38.4102 57.8938 38.1275 57.5221 37.4678 57.5221C36.8552 57.5221 36.5725 57.8706 36.5725 58.4513C36.5725 59.9846 36.5725 61.5178 36.5725 63.0511C36.5725 63.6551 36.9259 63.9803 37.5149 63.9571C38.1039 63.9571 38.4102 63.6086 38.4338 63.0046C38.4102 62.238 38.4102 61.4481 38.4102 60.6815ZM22.0826 65.862C21.9177 65.862 21.7292 65.8388 21.5643 65.862C20.9282 65.862 20.5512 66.164 20.5747 66.7912C20.5747 67.372 20.9517 67.674 21.5407 67.674C21.9413 67.674 22.3654 67.674 22.7659 67.674C23.3313 67.6508 23.6141 67.3256 23.6141 66.7912C23.6141 66.2569 23.3549 65.9085 22.7895 65.8852C22.5538 65.8388 22.3182 65.862 22.0826 65.862ZM52.8529 67.6973C52.8529 67.674 52.8529 67.674 52.8529 67.6508C53.1121 67.6508 53.3713 67.674 53.6304 67.6508C53.9838 67.6276 54.2194 67.3952 54.3372 67.0932C54.455 66.7448 54.4079 66.3963 54.1488 66.1175C53.7482 65.6994 51.9576 65.7226 51.5807 66.1408C51.133 66.6519 51.3922 67.5114 52.0519 67.6508C52.3346 67.6973 52.5938 67.674 52.8529 67.6973Z" fill="#FBC9A4"/>
<path d="M25.6638 17.4253C25.7816 15.4507 25.4046 13.0812 25.9937 10.7348C27.4309 5.02 32.9441 1.25659 38.9285 1.95351C44.7009 2.60398 49.2245 7.52895 49.2952 13.3135C49.3423 16.2406 49.2952 19.1677 49.2952 22.0948C49.2952 24.5108 48.4706 26.5551 46.6329 28.2045C45.2899 29.4125 43.9941 30.6902 42.6275 31.875C39.6589 34.4304 35.3944 34.4769 32.4022 31.9447C30.8707 30.6438 29.3864 29.2731 27.9492 27.8561C26.4177 26.3693 25.6638 24.5108 25.6638 22.3968C25.6638 20.8403 25.6638 19.3303 25.6638 17.4253ZM37.2086 27.9722C38.6222 27.9722 39.918 27.345 40.5542 26.4854C40.9076 26.0208 40.9312 25.5562 40.4835 25.1613C40.0358 24.7663 39.5882 24.836 39.1405 25.231C37.774 26.3925 37.1379 26.4157 35.7714 25.3239C35.3001 24.9522 34.8525 24.929 34.452 25.3239C33.9807 25.7885 34.075 26.2531 34.4991 26.6945C35.3002 27.554 36.2897 27.9257 37.2086 27.9722ZM43.2166 12.1751C42.6982 12.1751 42.1563 12.1751 41.638 12.1751C41.0725 12.1751 40.7427 12.4771 40.6956 12.9882C40.6249 13.569 40.9547 13.9872 41.5202 14.0336C42.604 14.1033 43.6878 14.1033 44.7716 14.0336C45.337 14.0104 45.6433 13.6155 45.6197 13.0115C45.5726 12.4075 45.2428 12.1519 44.6538 12.1519C44.159 12.1751 43.6878 12.1751 43.2166 12.1751ZM31.7896 14.0801C32.2844 14.0801 32.7792 14.1033 33.2739 14.0801C33.8865 14.0569 34.287 13.7084 34.287 13.1044C34.2635 12.5004 33.9101 12.1751 33.2504 12.1751C32.2844 12.1984 31.3184 12.1751 30.3524 12.1751C29.7634 12.1751 29.41 12.4075 29.3628 13.0347C29.3393 13.6852 29.6691 14.0104 30.2817 14.0801C30.7765 14.1033 31.2948 14.0801 31.7896 14.0801ZM42.1328 16.891C42.1563 17.4021 42.0621 17.9829 42.604 18.2849C43.0516 18.5404 43.4993 18.5172 43.8763 18.099C44.2768 17.6577 44.2532 16.1244 43.8527 15.7063C43.4757 15.3113 43.0281 15.2649 42.5804 15.5436C42.1092 15.8689 42.1328 16.4032 42.1328 16.891ZM32.8498 16.891C32.8498 15.8689 32.4964 15.3578 31.8132 15.381C31.1063 15.4043 30.8236 15.9386 30.8472 17.1233C30.8707 18.0526 31.177 18.4475 31.8838 18.4243C32.5907 18.4243 32.8498 18.0061 32.8498 16.891Z" fill="#FBC9A4"/>
<path d="M21.3051 48.2296C21.3287 46.7661 21.0695 45.3025 21.4465 43.8622C22.4596 43.8622 23.4963 43.8158 24.5094 43.839C25.1926 43.8622 25.6403 43.6531 25.7816 42.9562C28.6796 42.9562 31.554 42.9562 34.452 42.9562C35.1353 43.6299 35.8185 44.3036 36.4547 45.0005C37.0201 45.6045 37.5384 45.7439 38.3159 44.9773C39.0228 44.3036 39.7296 43.6299 40.4364 42.933C43.3344 42.933 46.2559 42.9562 49.1539 42.9562C49.2952 43.6299 49.7665 43.8622 50.4262 43.839C51.5099 43.8158 52.5702 43.8622 53.654 43.8622C53.9131 45.3025 53.9838 46.7429 53.654 48.16C53.2534 47.7883 52.7822 47.6721 52.2168 47.6721C49.9785 47.6953 47.7638 47.765 45.5255 47.6489C43.2873 47.5327 41.6616 48.5084 40.2715 50.1114C39.7767 50.6921 39.8238 51.2961 40.4128 51.784C40.295 51.9466 40.1301 51.9698 39.9416 51.9698C38.0568 51.9466 36.1955 51.9466 34.3106 51.9234C34.9703 51.5284 35.2531 50.9709 34.6876 50.3437C33.6509 49.1821 32.5436 48.0438 30.8708 47.765C30.7058 47.6024 30.4938 47.6256 30.2817 47.6256C27.6429 47.6256 25.0277 47.6256 22.3889 47.6256C22.224 47.6256 22.0355 47.6256 21.8941 47.765C21.6821 47.8115 21.5172 48.0438 21.3051 48.2296Z" fill="#FBC9A4"/>
<path d="M34.4523 42.9562C31.5544 42.9562 28.6799 42.9562 25.782 42.9562C25.7349 42.7703 25.7113 42.6077 25.6642 42.4219C25.6642 41.3068 25.405 41.0513 24.3212 41.028C23.1667 41.028 22.0123 41.0048 20.8342 41.0048C23.1667 38.914 25.9233 37.8686 29.0334 37.706C30.824 37.6131 30.8947 37.5666 30.9182 35.8011C30.9182 35.5687 30.9418 35.3364 30.9653 35.1041C32.3554 35.8011 33.7926 36.4283 35.1356 37.1717C36.8084 38.1242 38.4105 38.008 40.0598 37.1485C41.4027 36.4283 42.6986 35.6617 44.1358 35.1041C44.1593 35.5455 44.1593 35.9637 44.1829 36.4051C44.2065 37.404 44.4656 37.6828 45.5023 37.6828C48.5652 37.7292 51.2747 38.6817 53.7014 40.5402C53.8428 40.6563 53.9606 40.7725 54.0784 40.8886C52.9004 41.2139 51.7223 40.9583 50.5443 41.028C49.5076 41.0745 49.2956 41.2836 49.3662 42.3522C49.3191 42.5613 49.272 42.7703 49.2249 42.9794C46.3269 42.9794 43.4054 42.9562 40.5074 42.9562C40.6959 42.7703 40.8608 42.5613 41.0493 42.3987C41.5205 41.934 41.7561 41.4462 41.2142 40.9119C40.6723 40.3776 40.1776 40.6099 39.7064 41.0745C39.1173 41.6785 38.5048 42.236 37.9157 42.8633C37.633 43.1653 37.4445 43.1653 37.1382 42.8633C36.5021 42.1896 35.8424 41.5391 35.1591 40.9119C34.735 40.5169 34.2638 40.5169 33.8397 40.9119C33.4156 41.33 33.4392 41.7714 33.8162 42.2128C34.0047 42.4451 34.3581 42.6077 34.4523 42.9562Z" fill="#FBC9A4"/>
<path d="M10.5142 44.1874C9.73672 44.8379 8.93566 45.4419 8.20528 46.1621C6.13193 48.2529 5.14238 50.785 4.8361 53.6657C4.64761 55.408 4.67117 57.1271 4.71829 58.8694C4.76541 60.542 5.14238 62.1217 6.60315 63.2368C7.12148 63.6318 7.14504 64.4681 6.6267 64.9095C5.02458 66.2569 4.67117 68.0456 4.67117 69.997C4.67117 75.7119 4.67117 81.4035 4.67117 87.1183C3.94079 87.1415 3.21041 87.1183 2.48002 87.1647C2.03237 87.188 1.86745 87.0486 1.86745 86.584C1.89101 80.6833 1.86745 74.7826 1.89101 68.882C1.89101 67.674 2.45646 66.6518 3.42245 65.8852C4.85966 64.7469 4.85966 63.5621 3.3989 62.3773C2.55071 61.7036 1.96169 60.844 1.93813 59.7987C1.86745 57.2665 1.63184 54.7111 2.22086 52.2021C3.18685 48.1832 6.76807 44.745 10.5142 44.1874Z" fill="#FAB490"/>
<path d="M70.2881 87.095C70.2881 81.2873 70.2645 75.4563 70.3117 69.6486C70.3117 67.8598 69.864 66.3033 68.4975 65.0489C67.7907 64.3984 67.8142 63.8641 68.521 63.2136C69.7698 62.0521 70.3116 60.5885 70.2881 58.9391C70.2645 56.616 70.4766 54.2464 69.9347 51.9466C69.2985 49.2286 67.9791 46.9055 65.7409 45.1167C65.4581 44.9076 65.0341 44.7682 65.0105 44.3036C68.898 45.3722 71.3012 47.9276 72.5735 51.6213C72.9269 52.6435 73.0211 53.7121 73.0447 54.7808C73.0683 56.1978 73.0683 57.6149 73.0447 59.032C73.0447 60.3794 72.5499 61.4945 71.4661 62.3773C70.1232 63.4691 70.1232 64.6772 71.4897 65.769C72.5499 66.6286 73.0447 67.7204 73.0447 69.0213C73.0447 74.8059 73.0447 80.6136 73.0683 86.3981C73.0683 86.9092 72.974 87.1415 72.385 87.1183C71.7017 87.095 70.9949 87.1183 70.2881 87.095Z" fill="#FAB490"/>
<path d="M63.2194 64.8398C62.489 68.4174 61.7822 71.9717 61.0518 75.5493C60.3214 79.1501 59.5675 82.7276 58.8371 86.3284C58.79 86.584 58.8135 86.8395 58.8135 87.0951C58.3188 87.1183 57.824 87.0951 57.3292 87.1415C56.646 87.2112 56.4575 87.0021 56.5517 86.3284C57.2821 81.055 57.9654 75.7816 58.6722 70.5081C58.6957 70.2526 58.7664 69.9971 58.9313 69.788C60.3685 68.1386 61.8058 66.4892 63.2194 64.8398Z" fill="#FAB490"/>
<path d="M16.1692 87.0951C15.9571 85.0275 15.4152 83.0296 15.0147 80.9853C14.0016 75.8977 12.9649 70.8334 11.9518 65.769C11.8811 65.467 11.834 65.1418 11.7869 64.8398C13.2005 66.4892 14.6377 68.1386 16.0749 69.788C16.2634 69.9971 16.287 70.2526 16.3341 70.5081C17.0409 75.8048 17.7713 81.1015 18.4781 86.4214C18.5488 86.9092 18.4781 87.2112 17.8655 87.1415C17.2765 87.0951 16.711 87.1183 16.1692 87.0951Z" fill="#FAB490"/>
<path d="M44.1358 35.1274C42.7221 35.6849 41.4027 36.4515 40.0598 37.1717C38.4341 38.0545 36.8084 38.1474 35.1356 37.1949C33.7926 36.4283 32.3554 35.8011 30.9653 35.1274C30.9653 34.5234 30.9653 33.9194 30.9653 33.2224C35.3476 36.4515 39.7064 36.4748 44.1122 33.176C44.1358 33.8961 44.1358 34.5001 44.1358 35.1274Z" fill="#FAB490"/>
<path d="M55.4677 80.5439C55.185 82.6812 54.9022 84.5861 54.6666 86.5143C54.6195 86.9789 54.4546 87.1648 53.9598 87.1415C53.3237 87.0951 52.664 87.0951 52.0278 87.1415C51.4153 87.188 51.3446 86.9092 51.4388 86.4214C51.6273 85.4225 51.7922 84.4235 52.0043 83.4246C52.1456 82.7277 52.5226 82.1237 53.1823 81.752C53.8656 81.3803 54.596 81.0086 55.4677 80.5439Z" fill="#F8A47B"/>
<path d="M19.5386 80.5439C20.481 81.0783 21.3056 81.4964 22.1067 81.961C22.5543 82.2398 22.8371 82.7277 22.9549 83.2387C23.1905 84.3306 23.379 85.4457 23.591 86.5608C23.6617 86.9789 23.5439 87.1415 23.0962 87.1183C22.5072 87.0951 21.9182 87.0486 21.3292 87.1183C20.6224 87.2112 20.3632 86.9325 20.269 86.2588C20.0569 84.4235 19.7977 82.5883 19.5386 80.5439Z" fill="#F8A47B"/>
<path d="M19.8679 71.9949C20.1506 74.3413 20.4569 76.7108 20.7396 79.0572C19.7501 78.7319 19.0904 78.2208 18.9961 77.0128C18.8783 75.1776 18.5485 73.3656 18.2893 71.3909C18.8783 71.6232 19.3731 71.8091 19.8679 71.9949Z" fill="#F8A47B"/>
<path d="M54.2666 78.9642C54.5493 76.6411 54.8321 74.2948 55.1148 71.9717C55.5624 71.7626 56.1515 71.3444 56.4577 71.5535C56.8112 71.7858 56.5284 72.4595 56.4577 72.9241C56.2928 74.2948 55.963 75.6422 55.9159 77.0128C55.8923 78.1976 55.2326 78.6622 54.2666 78.9642Z" fill="#F8A47B"/>
<path d="M23.7079 16.4497C23.7079 18.0062 23.7079 19.5627 23.7079 21.0959C22.6241 20.8171 21.988 20.0273 21.9409 18.9354C21.8937 17.7042 22.4827 16.8446 23.7079 16.4497Z" fill="#F8A47B"/>
<path d="M51.2742 16.4032C52.5464 16.9143 53.0883 17.7041 53.0412 18.8889C52.9941 19.9808 52.4051 20.7474 51.2742 21.1191C51.2742 19.5626 51.2742 18.0061 51.2742 16.4032Z" fill="#F8A47B"/>
<path d="M49.342 42.3522C49.2714 41.2835 49.4599 41.0977 50.5201 41.028C51.6981 40.9583 52.8997 41.2138 54.0542 40.8886C54.384 41.1906 54.7374 41.4694 55.2793 41.9572C53.583 41.9572 52.1693 41.9572 50.7557 41.9572C50.2374 41.9572 49.7426 41.9805 49.342 42.3522Z" fill="#F8A47B"/>
<path d="M20.8343 41.0048C21.9888 41.0048 23.1432 41.028 24.3213 41.028C25.4051 41.028 25.6642 41.3068 25.6642 42.4218C25.3108 42.0037 24.8396 41.9572 24.3213 41.9572C22.9076 41.9805 21.494 41.9572 19.939 41.9572C20.2217 41.4694 20.5044 41.2138 20.8343 41.0048Z" fill="#F8A47B"/>
<path d="M64.6336 44.2107C64.5628 44.3036 64.4921 44.2804 64.4685 44.1874C64.5157 44.1874 64.5864 44.1874 64.6336 44.2107Z" fill="#FAB490"/>
<path d="M23.6615 61.8894C22.5777 61.8894 21.4939 61.8894 20.4101 61.8894C19.1378 61.8662 18.4782 61.1925 18.4546 59.9613C18.4546 58.8926 18.4546 57.824 18.4546 56.7554C18.4546 55.6403 19.2321 54.804 20.3394 54.7808C22.4835 54.7343 24.6275 54.7343 26.7715 54.7808C28.1145 54.804 28.8449 55.6171 28.8684 56.9412C28.8684 57.8937 28.8684 58.8462 28.8684 59.7986C28.8449 61.1693 28.1145 61.8894 26.748 61.8894C25.7113 61.8894 24.6746 61.8894 23.6615 61.8894Z" fill="#FBC9A4"/>
<path d="M51.4866 61.8894C50.4264 61.8894 49.3662 61.8894 48.3295 61.8894C47.175 61.8894 46.374 61.1925 46.3268 60.0542C46.2797 58.8926 46.2797 57.7311 46.3268 56.5928C46.374 55.5706 47.175 54.804 48.3295 54.7808C50.4971 54.7343 52.6647 54.7343 54.8323 54.7808C55.9632 54.804 56.7171 55.6403 56.7171 56.7554C56.7171 57.8472 56.7407 58.9623 56.7171 60.0542C56.6936 61.1925 55.9867 61.8894 54.8558 61.8894C53.7249 61.9127 52.6176 61.8894 51.4866 61.8894Z" fill="#FBC9A4"/>
<path d="M29.5749 79.243C27.9492 78.2673 27.3602 76.5947 26.6534 74.9917C26.4885 74.5968 26.6298 74.2484 26.9361 73.9928C27.4073 73.5979 27.855 73.807 28.2791 74.0625C28.2791 74.1322 28.3027 74.1787 28.3498 74.2019C28.3969 74.2716 28.4205 74.3413 28.4676 74.411C28.7739 75.1079 29.033 75.8048 29.3864 76.4553C29.8341 77.2684 30.5409 77.8027 31.4833 77.8492C33.1326 77.9188 34.7583 77.9653 36.4075 77.8259C36.6903 77.5936 36.5489 77.2916 36.5489 77.0128C36.5725 75.2705 36.5489 73.5514 36.5489 71.8091C36.5489 71.1819 36.7138 70.694 37.4442 70.6708C38.1982 70.6475 38.4338 71.1354 38.4102 71.8091C38.3866 73.5514 38.3866 75.2705 38.4102 77.0128C38.4102 77.2916 38.2688 77.5936 38.5516 77.8259C40.0594 77.8492 41.5909 77.8724 43.0988 77.8724C44.3004 77.8724 45.1486 77.2916 45.6669 76.223C46.0203 75.5028 46.3502 74.7594 46.68 74.0393C47.1512 73.714 47.6224 73.5747 48.0936 74.016C48.5177 74.4342 48.3764 74.8756 48.1643 75.3634C47.5046 76.8502 46.8921 78.337 45.4077 79.2198C44.5124 79.5915 43.5936 79.8006 42.604 79.7773C41.426 79.7309 40.2715 79.8006 39.0935 79.7541C38.528 79.7309 38.3866 79.9167 38.4102 80.451C38.4573 81.0318 38.4338 81.6126 38.4102 82.1701C38.3866 82.7277 38.0332 83.0297 37.4913 83.0297C36.973 83.0297 36.596 82.7277 36.5725 82.1933C36.5489 81.7287 36.5018 81.2641 36.5725 80.7995C36.6903 79.9864 36.4311 79.7541 35.5594 79.7309C33.6509 79.7309 31.6954 80.0561 29.8341 79.3359L29.8105 79.3824C29.7634 79.2895 29.6692 79.2662 29.5749 79.243Z" fill="#34303F"/>
<path d="M29.8107 79.3591C31.672 80.1025 33.6275 79.7541 35.5359 79.7541C36.4077 79.7541 36.6669 80.0096 36.5491 80.8227C36.4784 81.2873 36.5255 81.7519 36.5491 82.2165C36.5726 82.7741 36.9496 83.0761 37.4679 83.0529C37.9863 83.0529 38.3632 82.7509 38.3868 82.1933C38.4104 81.6125 38.4339 81.0318 38.3868 80.4742C38.3397 79.9399 38.5046 79.7773 39.0701 79.7773C40.2481 79.8238 41.4026 79.7541 42.5806 79.8005C43.5702 79.8238 44.489 79.6147 45.3843 79.243C45.243 80.2884 44.5126 81.1479 44.489 82.2398C43.8764 82.1236 43.4052 82.3095 43.0989 82.8902C42.7455 83.5407 42.133 83.7962 41.4026 83.7962C38.7638 83.7962 36.125 83.7962 33.4626 83.7962C32.7322 83.7962 32.1432 83.5175 31.7898 82.867C31.5306 82.3792 31.1537 82.1236 30.5882 82.1701C30.3526 81.4964 30.117 80.8459 29.8814 80.1722C29.8343 79.9167 29.6693 79.6611 29.8107 79.3591Z" fill="#FCECC7"/>
<path d="M46.6802 74.0857C46.3504 74.8291 46.0205 75.5493 45.6671 76.2694C45.1488 77.3148 44.3006 77.9188 43.099 77.9188C41.5911 77.9188 40.0596 77.8724 38.5518 77.8724C38.5518 76.4785 38.5753 75.1079 38.5518 73.714C38.5518 73.1797 38.7402 73.0171 39.2586 73.0171C41.0963 73.0403 42.9341 73.0403 44.7953 73.0171C45.62 73.0171 46.1854 73.4817 46.6802 74.0857Z" fill="#FCECC7"/>
<path d="M36.4307 77.8491C34.7814 77.9885 33.1558 77.9421 31.5065 77.8724C30.5641 77.8259 29.8573 77.2916 29.4096 76.4785C29.0562 75.828 28.797 75.1079 28.4907 74.4342C28.4436 74.3645 28.4201 74.2948 28.3729 74.2251C28.3258 74.1786 28.3022 74.1322 28.3022 74.0857C29.174 73.0868 30.3049 72.9474 31.5536 73.0171C32.873 73.0868 34.1924 73.0636 35.5118 73.0171C36.2658 72.9939 36.4543 73.2494 36.4307 73.9696C36.3836 75.2473 36.4307 76.5482 36.4307 77.8491Z" fill="#FCECC7"/>
<path d="M30.6346 82.1701C31.2001 82.1236 31.577 82.3791 31.8362 82.867C32.1896 83.5175 32.7786 83.7962 33.509 83.7962C36.1478 83.7962 38.7866 83.7962 41.449 83.7962C42.1793 83.7962 42.7919 83.5407 43.1453 82.8902C43.4516 82.3095 43.8993 82.1236 44.5354 82.2398C45.2187 82.7973 45.1244 83.4013 44.6532 84.0518C43.9228 85.0739 42.9097 85.6083 41.661 85.6315C38.8808 85.6779 36.0771 85.6779 33.297 85.6315C31.954 85.6083 30.8938 84.9578 30.1869 83.7962C29.7628 83.0993 29.8571 82.5418 30.6346 82.1701Z" fill="#34303F"/>
<path d="M40.4841 51.8072C39.8951 51.3193 39.8479 50.7153 40.3427 50.1345C41.7092 48.5316 43.3349 47.5559 45.5968 47.6721C47.8115 47.7882 50.0497 47.6953 52.288 47.6953C52.8299 47.6953 53.3247 47.8114 53.7252 48.1831C53.9608 49.1356 53.6545 49.577 52.6885 49.577C50.5209 49.6002 48.3534 49.6699 46.1858 49.5538C44.4658 49.4608 43.0758 49.9022 42.0391 51.2729C41.6386 51.7375 41.1438 51.993 40.4841 51.8072Z" fill="#34303F"/>
<path d="M21.3052 48.2296C21.5172 48.0438 21.6822 47.8115 21.9884 47.765C24.9807 47.765 27.9729 47.765 30.9651 47.765C32.6379 48.0438 33.7452 49.1821 34.7819 50.3436C35.3238 50.9709 35.0411 51.5052 34.4049 51.9234C33.8395 51.9931 33.439 51.6678 33.1327 51.2729C32.0724 49.879 30.6824 49.4841 28.9624 49.5538C26.8655 49.6467 24.7451 49.577 22.6246 49.577C21.423 49.6003 21.2345 49.3912 21.3052 48.2296Z" fill="#34303F"/>
<path d="M38.4104 60.6815C38.4104 61.4713 38.4104 62.2379 38.4104 63.0278C38.4104 63.6086 38.1041 63.957 37.4915 63.9803C36.9025 63.9803 36.5726 63.655 36.5491 63.0743C36.5491 61.541 36.5491 60.0078 36.5491 58.4745C36.5491 57.8938 36.8318 57.5453 37.4444 57.5453C38.1041 57.5453 38.3868 57.917 38.3868 58.5442C38.4104 59.2412 38.4104 59.9613 38.4104 60.6815Z" fill="#34303F"/>
<path d="M22.0831 65.862C22.3187 65.862 22.5543 65.8387 22.7899 65.862C23.3554 65.9084 23.6145 66.2337 23.6145 66.768C23.6145 67.3023 23.3082 67.6275 22.7663 67.6508C22.3658 67.674 21.9417 67.674 21.5412 67.6508C20.9522 67.6508 20.5988 67.3488 20.5752 66.768C20.5752 66.1407 20.9522 65.8387 21.5647 65.8387C21.7532 65.8387 21.9182 65.8387 22.0831 65.862Z" fill="#34303F"/>
<path d="M52.8527 67.6972C52.5935 67.6739 52.3108 67.6972 52.0752 67.6507C51.392 67.5113 51.1328 66.6518 51.604 66.1407C51.981 65.7225 53.7716 65.7225 54.1721 66.1175C54.4313 66.3962 54.502 66.7447 54.3606 67.0931C54.2428 67.4184 54.0308 67.6275 53.6538 67.6507C53.3946 67.6739 53.1355 67.6507 52.8763 67.6507C52.8527 67.6739 52.8527 67.6739 52.8527 67.6972Z" fill="#34303F"/>
<path d="M29.5752 79.243C29.6695 79.2662 29.7874 79.2662 29.7874 79.4056C29.7167 79.3591 29.6459 79.3127 29.5752 79.243Z" fill="#FCECC7"/>
<path d="M37.2084 27.9723C36.2896 27.9258 35.3 27.5309 34.5225 26.7178C34.0984 26.2764 34.0042 25.8118 34.4754 25.3472C34.8995 24.929 35.3471 24.9755 35.7948 25.3472C37.1613 26.439 37.7975 26.4158 39.164 25.2542C39.6116 24.8825 40.0593 24.7896 40.5069 25.1846C40.9546 25.5795 40.931 26.0209 40.5776 26.5087C39.9179 27.3683 38.6221 27.9955 37.2084 27.9723Z" fill="#FBC9A4"/>
<path d="M43.2166 12.1752C43.6879 12.1752 44.1591 12.1752 44.6303 12.1752C45.2193 12.1752 45.5727 12.4307 45.5963 13.0347C45.6434 13.6387 45.3135 14.0104 44.7481 14.0569C43.6643 14.1033 42.5805 14.1266 41.4967 14.0569C40.9312 14.0104 40.6014 13.5923 40.6721 13.0115C40.7428 12.5004 41.049 12.1752 41.6145 12.1984C42.1564 12.1752 42.6983 12.1752 43.2166 12.1752Z" fill="#FBC9A4"/>
<path d="M31.7897 14.0801C31.2949 14.0801 30.8001 14.1033 30.3054 14.0801C29.6928 14.0336 29.3394 13.6852 29.3865 13.0347C29.4101 12.4307 29.7635 12.1752 30.3761 12.1752C31.3421 12.1752 32.308 12.1984 33.274 12.1752C33.9337 12.1752 34.2871 12.5004 34.3107 13.1044C34.3343 13.7084 33.9102 14.0569 33.2976 14.0801C32.7792 14.1033 32.2845 14.0801 31.7897 14.0801Z" fill="#FBC9A4"/>
<path d="M42.133 16.8911C42.133 16.4032 42.1095 15.8689 42.5807 15.5669C43.0283 15.2881 43.476 15.3346 43.8529 15.7295C44.2535 16.1477 44.2535 17.6809 43.8765 18.1223C43.5231 18.5405 43.0519 18.5637 42.6042 18.3081C42.0623 17.9829 42.1566 17.4021 42.133 16.8911Z" fill="#FBC9A4"/>
<path d="M32.85 16.8911C32.85 18.0061 32.5908 18.4011 31.884 18.4243C31.1771 18.4475 30.8944 18.0526 30.8473 17.1234C30.8237 15.9386 31.1065 15.4043 31.8133 15.381C32.4965 15.381 32.85 15.8689 32.85 16.8911Z" fill="#FBC9A4"/>
<path d="M34.452 42.9562C34.3342 42.6077 34.0043 42.4451 33.7923 42.1896C33.4153 41.7482 33.3917 41.3068 33.8158 40.8886C34.2399 40.4705 34.7111 40.4705 35.1352 40.8886C35.8185 41.5391 36.4782 42.1663 37.1143 42.84C37.3971 43.142 37.5855 43.142 37.8918 42.84C38.4573 42.236 39.0934 41.6553 39.6825 41.0512C40.1537 40.5866 40.6484 40.3543 41.1903 40.8886C41.7322 41.4229 41.5202 41.934 41.0254 42.3754C40.8369 42.5613 40.672 42.7471 40.4835 42.933C39.7767 43.6067 39.0699 44.2804 38.3631 44.9773C37.562 45.7439 37.0672 45.6045 36.5018 45.0005C35.8185 44.2804 35.1352 43.6299 34.452 42.9562Z" fill="#34303F"/>
<path d="M30.9649 47.7882C27.9727 47.7882 24.9805 47.7882 21.9883 47.7882C22.1296 47.6488 22.2946 47.6489 22.4831 47.6489C25.1219 47.6489 27.7371 47.6489 30.3759 47.6489C30.588 47.6489 30.8 47.6256 30.9649 47.7882Z" fill="#F8A47B"/>
<path d="M28.3735 74.2251C28.4207 74.2948 28.4443 74.3645 28.4914 74.4342C28.4443 74.3645 28.4207 74.2948 28.3735 74.2251Z" fill="#FBC9A4"/>
</svg>
