<svg width="69" height="89" viewBox="0 0 69 89" fill="none" xmlns="http://www.w3.org/2000/svg">
<path d="M0.400512 89C0.0276519 88.5126 0.00434792 87.9787 0.00434792 87.3984C-0.0189558 81.5026 0.0276519 75.5836 0.750069 69.7111C1.68222 62.0512 3.12705 54.5074 5.80699 47.2654C7.62468 42.3213 10.9105 38.4217 15.2683 35.4738C17.4123 34.0347 19.6028 32.6884 21.7701 31.2957C22.0264 31.1333 22.4226 31.0404 22.1196 30.5298C20.9311 28.5568 20.8146 26.3749 20.8845 24.1465C20.9078 23.4966 20.8146 23.1484 20.0689 22.9395C18.2512 22.4289 17.0627 20.688 17.0627 18.8078C17.0627 16.8813 18.2745 15.1868 20.1388 14.653C20.768 14.4673 20.9078 14.1655 20.9078 13.5852C21.001 6.48244 25.8948 1.00448 32.9326 0.0992219C39.7839 -0.782822 46.6119 4.32375 47.6839 11.1248C47.8237 12.0068 47.9169 12.9121 47.8703 13.7941C47.847 14.2816 47.9635 14.4905 48.4762 14.6297C50.4337 15.21 51.6688 16.8581 51.6921 18.7846C51.7154 20.7344 50.4803 22.4289 48.4762 23.0324C47.9635 23.1949 47.8703 23.4038 47.8936 23.868C47.9635 26.1892 47.8936 28.5103 46.6352 30.5762C46.3322 31.0636 46.775 31.11 47.008 31.2493C48.6859 32.3403 50.3638 33.4312 52.065 34.4757C58.1939 38.2128 62.1089 43.5515 64.1363 50.4222C67.4221 61.587 69.0301 72.9375 68.867 84.5666C68.8437 85.495 68.8437 86.4235 68.867 87.352C68.8903 87.9323 68.8204 88.4661 68.4708 88.9536C45.7263 89 23.0751 89 0.400512 89ZM17.4356 36.3559C17.4356 36.3559 17.4589 36.3327 17.4356 36.3559C17.2258 36.4487 17.0161 36.5416 16.8297 36.6808C11.8893 39.9305 8.58013 44.3871 6.83235 50.0276C4.6651 57.0839 3.17366 64.2795 2.40464 71.6377C1.89195 76.5585 1.82204 81.5026 1.79874 86.4467C1.79874 86.9574 1.91526 87.1895 2.47455 87.1663C3.29018 87.1199 4.10581 87.1431 4.92144 87.1199C6.66923 87.1431 8.39371 87.1431 10.1415 87.1663C10.6775 87.1663 10.7008 87.0038 10.561 86.5628C10.2347 85.495 10.0017 84.3809 9.81524 83.2667C9.34916 80.6438 9.44238 78.0441 9.67541 75.4212C9.72202 75.2587 9.79193 75.0962 9.81524 74.9337C10.5843 70.4539 12.332 66.415 15.1518 62.8404C15.5247 62.353 16.2238 61.8655 16.2005 61.4245C16.1772 60.9139 15.4781 60.4728 15.0586 59.9854C14.4294 58.8016 14.1264 57.5482 14.3828 56.2251C14.8488 53.9504 15.3615 51.6988 15.8509 49.4473C15.9907 48.7974 16.2937 48.3099 17.0161 48.4492C17.7618 48.6117 17.8783 49.1455 17.7152 49.8651C17.2491 51.9309 16.8297 53.9968 16.3869 56.0626C15.8043 58.7784 17.2258 60.5193 20.0223 60.5193C22.3527 60.5193 24.6597 60.5193 26.9901 60.5193C31.0683 60.5193 33.422 58.1749 33.4453 54.1128C33.4453 52.6273 33.422 51.1649 33.4686 49.6794C33.4919 48.8902 33.9812 48.5188 34.6337 48.6813C35.2396 48.8438 35.3329 49.308 35.3329 49.8187C35.3562 51.6524 35.2629 53.4629 35.4028 55.2734C35.6125 58.1517 37.9662 60.4032 40.8559 60.4728C43.6756 60.5425 46.4954 60.5425 49.3151 60.4728C51.4358 60.4264 52.8806 58.5231 52.4378 56.4572C51.9951 54.2753 51.5057 52.1166 51.0396 49.9347C50.8532 49.0759 51.0862 48.4956 51.7154 48.4028C52.5077 48.2867 52.7641 48.7974 52.9039 49.4705C53.3001 51.3971 53.6729 53.3236 54.1623 55.227C54.5352 56.7125 54.5352 58.1285 53.906 59.5444C53.6729 59.8693 53.4632 60.2407 53.1835 60.496C52.601 60.9835 52.7641 61.3085 53.2069 61.7959C55.4906 64.3492 57.1452 67.2739 58.2871 70.4771C58.7998 71.893 59.0561 73.3553 59.4756 74.7944C59.4756 74.8641 59.4989 74.9569 59.4989 75.0266C59.4989 75.4212 59.4523 75.7925 59.662 76.1639C59.895 79.6689 59.7319 83.1507 58.6832 86.5628C58.5667 86.9342 58.6832 87.0734 59.1027 87.0734C60.7107 87.0502 62.2953 87.0502 63.9033 87.027C64.7189 87.0502 65.5345 87.027 66.3502 87.0734C66.9095 87.0966 67.0027 86.8645 67.026 86.3539C67.2357 73.8892 65.721 61.6566 61.9691 49.749C60.0349 43.6212 56.2363 38.9788 50.69 35.7756C50.457 35.5435 50.2007 35.3578 49.8744 35.2649C49.8045 35.2185 49.7113 35.1489 49.6414 35.1025C49.5249 35.0328 49.4316 34.9632 49.3151 34.8936C48.1965 34.174 47.078 33.4776 45.9827 32.7117C45.4933 32.3635 45.237 32.4795 44.8175 32.8509C43.2561 34.3597 41.3685 35.2649 39.178 35.4971C36.6612 35.7524 34.1444 35.5435 31.6043 35.6131C28.6447 35.6827 26.0813 34.8007 23.9373 32.7117C23.7043 32.5027 23.5412 32.3635 23.2149 32.5724C21.9332 33.4312 20.6515 34.2436 19.3698 35.0792C19.2766 35.1257 19.1833 35.1953 19.0901 35.2417C18.9736 35.3114 18.8804 35.381 18.7639 35.4506C18.4842 35.5435 18.2512 35.706 18.0415 35.9149C17.7618 36.0309 17.5754 36.147 17.4356 36.3559ZM34.4007 58.5231C34.2609 58.7087 34.1677 58.8248 34.0978 58.9409C32.7228 60.9603 30.8352 62.1905 28.3883 62.3298C25.2423 62.5155 22.0497 62.469 18.9037 62.3298C18.3211 62.3066 17.9949 62.4226 17.6453 62.8404C11.7261 69.7807 10.0017 77.6495 12.4486 86.4235C12.6117 87.0038 12.868 87.1663 13.4739 87.1663C27.5494 87.1663 41.6482 87.1663 55.7237 87.1895C56.3296 87.1895 56.5859 86.9806 56.7257 86.4235C59.0794 78.1137 57.588 70.5235 52.298 63.6993C51.5523 62.7476 50.8532 61.8655 49.4782 62.4226C49.3151 62.4922 49.1287 62.4458 48.9656 62.4458C46.5886 62.4458 44.2116 62.4226 41.8113 62.469C38.6653 62.4923 36.1951 61.3085 34.4007 58.5231ZM22.8653 19.3185C22.842 19.3185 22.8187 19.3185 22.8187 19.3185C22.8187 21.4308 22.7954 23.543 22.8187 25.6553C22.912 30.4369 26.3376 33.8026 31.1382 33.8026C33.2821 33.8026 35.4261 33.8026 37.5933 33.8026C42.6036 33.8026 46.0526 30.3441 46.0759 25.3303C46.0759 21.4772 46.0759 17.6241 46.0759 13.7941C46.0759 12.796 45.9827 11.8211 45.7496 10.8694C44.5845 5.69324 39.6208 1.42229 33.2355 1.95616C27.899 2.39718 23.2382 7.01631 22.8886 12.4478C22.7488 14.7226 22.8653 17.0205 22.8653 19.3185ZM47.8703 18.8311C47.8703 19.4578 47.8936 20.1077 47.8703 20.7344C47.847 21.3147 48.08 21.2915 48.4762 21.0594C49.3151 20.5719 49.7812 19.8524 49.8045 18.8775C49.8278 17.8562 49.3617 17.1134 48.4995 16.6027C47.9868 16.301 47.8703 16.4867 47.8936 17.0205C47.8936 17.624 47.8703 18.2276 47.8703 18.8311ZM20.9311 18.8543C20.9311 18.1811 20.9311 17.5312 20.9311 16.8581C20.9311 16.5099 20.8845 16.3706 20.4884 16.5331C19.6727 16.8349 19.0202 17.7865 18.9969 18.7846C18.9736 19.8292 19.6028 20.8041 20.4651 21.129C20.8146 21.2683 20.9311 21.2219 20.9311 20.8273C20.9311 20.1773 20.9311 19.5042 20.9311 18.8543Z" fill="#35313F"/>
<path d="M49.8049 35.3114C50.1079 35.4274 50.3875 35.5899 50.6205 35.822C50.5972 36.0773 50.7371 36.263 50.9468 36.4023C51.9722 37.1219 52.7878 38.0735 53.65 38.9556C55.794 41.1143 57.3553 43.6908 58.4273 46.5226C59.8022 50.1668 60.6412 53.9735 61.4102 57.7803C62.2025 61.703 62.7851 65.649 63.2046 69.6182C63.5075 72.4733 63.7406 75.3515 63.8338 78.2298C63.9503 81.1776 63.8571 84.1255 63.8571 87.0966C62.2491 87.1198 60.6645 87.1198 59.0565 87.1431C58.6603 87.1431 58.5205 87.0038 58.637 86.6324C59.709 83.2435 59.8488 79.7617 59.6158 76.2336C59.5925 75.8622 59.7789 75.4444 59.4527 75.0962C59.4527 75.0266 59.4294 74.9337 59.4294 74.8641C59.5459 74.2141 59.3828 73.6106 59.2896 72.9839C58.707 69.3861 57.5651 65.974 55.7474 62.7708C55.1415 61.703 54.3025 60.7514 53.8598 59.5908C54.489 58.1749 54.489 56.759 54.1161 55.2734C53.6267 53.37 53.2539 51.4435 52.8577 49.5169C52.7179 48.8438 52.4382 48.3331 51.6692 48.4492C51.04 48.542 50.807 49.0991 50.9934 49.9811C51.4595 52.163 51.9489 54.3217 52.3916 56.5036C52.8111 58.5695 51.3896 60.4728 49.2689 60.5192C46.4492 60.5657 43.6294 60.5889 40.8097 60.5192C37.92 60.4496 35.5663 58.1981 35.3566 55.3198C35.2168 53.5093 35.31 51.6756 35.2867 49.8651C35.2867 49.3544 35.1934 48.867 34.5876 48.7277C33.935 48.5652 33.4224 48.9598 33.4224 49.7258C33.3991 51.2114 33.4224 52.6737 33.3991 54.1592C33.3991 58.2213 31.0454 60.5425 26.9439 60.5657C24.6135 60.5657 22.3065 60.5657 19.9761 60.5657C17.1563 60.5657 15.7581 58.8248 16.3407 56.109C16.7835 54.0432 17.2029 51.9773 17.669 49.9115C17.8321 49.1919 17.6923 48.6581 16.9699 48.4956C16.2475 48.3331 15.9445 48.8438 15.8047 49.4937C15.3153 51.7452 14.8027 53.9968 14.3366 56.2715C14.0802 57.5946 14.3832 58.848 15.0124 60.0318C14.9425 60.1943 14.9192 60.3568 14.826 60.496C12.9617 63.1654 11.5867 66.0668 10.7012 69.2004C10.1186 71.243 9.58261 73.3089 9.62921 75.4444C9.39618 78.0673 9.32626 80.6902 9.76904 83.2899C9.95547 84.4041 10.1885 85.495 10.5148 86.586C10.6546 87.027 10.6313 87.2127 10.0953 87.1895C8.34751 87.1663 6.62303 87.1663 4.87524 87.1431C4.96846 83.4292 4.80533 79.6921 5.01507 75.9782C5.2015 72.5661 5.52775 69.154 5.97052 65.7651C6.50651 61.7263 7.22892 57.7106 8.25429 53.7414C8.97671 50.9328 9.5593 48.0778 10.7944 45.4084C12.146 42.5302 13.9637 40.0001 16.2708 37.8182C16.7136 37.4004 17.3661 37.0987 17.4127 36.3791C17.7156 36.4255 17.972 36.4255 17.9487 36.0077C18.1584 35.7988 18.3914 35.6363 18.6711 35.5435C18.8342 35.5435 18.9507 35.497 18.9973 35.3346C19.0905 35.2881 19.1838 35.2185 19.277 35.1721C19.6731 35.1721 19.8829 35.4738 20.1392 35.7059C23.0289 38.7235 26.5944 40.2554 30.7191 40.3715C33.9817 40.4643 37.2675 40.65 40.5067 40.0697C44.0489 39.443 46.9152 37.6789 49.199 34.9864C49.3155 35.056 49.4087 35.1257 49.5253 35.1953C49.6418 35.2185 49.735 35.2649 49.8049 35.3114ZM22.0501 57.4553C23.0056 57.4553 23.425 57.1535 23.4017 56.5268C23.3784 55.7144 22.7958 55.5984 22.1433 55.5984C21.2345 55.5984 20.7684 55.9233 20.8383 56.5733C20.8849 57.3857 21.4675 57.4785 22.0501 57.4553ZM46.7754 57.4785C47.3813 57.4785 47.9872 57.2928 47.9639 56.5268C47.9406 55.7376 47.3347 55.5984 46.6589 55.6216C45.9831 55.6216 45.4005 55.7841 45.4005 56.5733C45.4238 57.3625 46.053 57.4785 46.7754 57.4785Z" fill="#FCC9A4"/>
<path d="M34.4005 58.523C36.1949 61.3084 38.6651 62.4922 41.8111 62.4226C44.1881 62.3762 46.5651 62.3994 48.9654 62.3994C49.1285 62.3994 49.3383 62.4458 49.4781 62.3762C50.8763 61.8191 51.5754 62.7011 52.2978 63.6528C57.6111 70.5003 59.0792 78.0673 56.7255 86.3771C56.5624 86.9341 56.3294 87.1431 55.7235 87.1431C41.648 87.1198 27.5492 87.0966 13.4738 87.1198C12.8679 87.1198 12.6115 86.9341 12.4484 86.3771C10.0015 77.6031 11.7493 69.7343 17.6451 62.794C17.9947 62.3994 18.3209 62.2601 18.9035 62.2833C22.0728 62.4458 25.2422 62.4922 28.3882 62.2833C30.8118 62.1441 32.7227 60.9138 34.0976 58.8944C34.1675 58.8248 34.2607 58.7087 34.4005 58.523ZM34.3073 76.3496C36.6843 76.3032 38.9448 75.8854 40.9489 74.4695C42.9064 73.0536 42.8831 70.4306 40.9489 68.9915C37.6864 66.5311 31.0448 66.5311 27.8056 69.0147C25.7781 70.5699 25.7548 73.0071 27.8289 74.4927C29.7864 75.8622 31.9769 76.3264 34.3073 76.3496ZM34.4938 85.7271C36.0318 85.7039 37.3601 84.4969 37.3834 83.081C37.4067 82.5007 37.2436 82.0133 36.6144 81.9204C35.9386 81.8276 35.589 82.2454 35.5424 82.8721C35.4725 83.5452 35.1463 83.9631 34.4471 83.9631C33.7946 83.9631 33.4684 83.522 33.3985 82.8953C33.3519 82.2454 33.0256 81.8276 32.3498 81.9204C31.6041 82.0133 31.4876 82.5936 31.5342 83.2203C31.674 84.6594 32.979 85.7504 34.4938 85.7271Z" fill="#FCC9A4"/>
<path d="M22.8652 19.3185C22.8652 17.0437 22.7487 14.7458 22.8885 12.471C23.2147 7.0395 27.8988 2.44359 33.2353 1.97935C39.6206 1.44549 44.561 5.69323 45.7495 10.8926C45.9592 11.8443 46.0757 12.8192 46.0757 13.8173C46.0757 17.6705 46.0757 21.5236 46.0757 25.3535C46.0757 30.3673 42.6035 33.8026 37.5932 33.8258C35.4492 33.8258 33.3053 33.8258 31.138 33.8258C26.3374 33.8026 22.9118 30.4601 22.8186 25.6785C22.772 23.5662 22.8186 21.454 22.8186 19.3417C22.8186 19.3185 22.8419 19.3185 22.8652 19.3185ZM34.1209 28.0229C35.4725 28.0229 36.6843 27.4426 37.3834 26.607C37.7563 26.1427 37.8495 25.6553 37.3834 25.2375C36.9173 24.8197 36.4513 24.9357 36.0085 25.3303C34.7967 26.4445 34.0044 26.4677 32.746 25.4232C32.2566 25.0054 31.8138 24.9821 31.371 25.4232C30.905 25.8874 31.0448 26.3516 31.4643 26.7927C32.2566 27.6051 33.212 27.9764 34.1209 28.0229ZM39.9934 12.2389C39.5041 12.2389 39.0147 12.2389 38.5253 12.2389C37.966 12.2157 37.6398 12.5407 37.5699 13.0513C37.4999 13.6316 37.8262 14.0726 38.3622 14.0959C39.4575 14.1655 40.576 14.1655 41.6713 14.0959C42.2306 14.0494 42.5103 13.6084 42.4403 13.0281C42.3704 12.471 42.0442 12.2389 41.4849 12.2389C40.9722 12.2389 40.4828 12.2389 39.9934 12.2389ZM28.8076 12.2389C28.295 12.2389 27.759 12.2389 27.2463 12.2389C26.7336 12.2389 26.4307 12.4943 26.384 13.0049C26.3141 13.5852 26.5705 14.0494 27.1298 14.0959C28.225 14.1655 29.3436 14.1655 30.4389 14.0959C30.9982 14.0726 31.3244 13.6316 31.2545 13.0513C31.1846 12.5407 30.8817 12.2157 30.3224 12.2389C29.7864 12.2389 29.297 12.2389 28.8076 12.2389ZM29.833 16.9973C29.7864 16.6956 29.7864 16.3706 29.6932 16.0689C29.4834 15.4653 28.9941 15.3261 28.4348 15.535C27.8755 15.7439 27.8289 16.2778 27.8289 16.7652C27.8289 17.3687 27.7124 18.0186 28.3649 18.39C28.8775 18.6918 29.5067 18.4364 29.6932 17.8562C29.7864 17.6008 29.7864 17.2991 29.833 16.9973ZM38.9681 16.9509C38.9914 17.2526 39.0147 17.508 39.0613 17.7633C39.1778 18.2508 39.4808 18.5061 39.9934 18.4829C40.5061 18.4829 40.8091 18.2275 40.9023 17.7401C41.0188 17.2062 41.0188 16.6491 40.879 16.1153C40.7625 15.651 40.4129 15.4421 39.9701 15.4653C39.5274 15.4653 39.1778 15.6743 39.0846 16.1385C39.0147 16.417 38.9914 16.6956 38.9681 16.9509Z" fill="#FBC8A4"/>
<path d="M49.245 34.9399C46.938 37.6557 44.0949 39.3966 40.5527 40.0233C37.3135 40.6036 34.0277 40.4179 30.7651 40.3251C26.6404 40.209 23.0749 38.677 20.1852 35.6595C19.9522 35.4042 19.7192 35.1256 19.323 35.1256C20.6047 34.29 21.8864 33.4544 23.1681 32.6188C23.4944 32.3867 23.6808 32.5491 23.8905 32.758C26.0112 34.8471 28.5979 35.7291 31.5575 35.6595C34.0743 35.5899 36.6144 35.7988 39.1312 35.5434C41.3218 35.3345 43.1861 34.4061 44.7707 32.8973C45.1669 32.5027 45.4465 32.4099 45.9359 32.758C46.9846 33.524 48.1265 34.2204 49.245 34.9399Z" fill="#FAB490"/>
<path d="M63.8569 87.0967C63.8569 84.1488 63.9501 81.1777 63.8336 78.2298C63.7404 75.3515 63.5073 72.4965 63.2044 69.6182C62.7849 65.649 62.2023 61.7031 61.41 57.7803C60.641 53.9736 59.802 50.1668 58.4271 46.5226C57.3552 43.714 55.7938 41.1375 53.6499 38.9556C52.7876 38.0736 51.972 37.0987 50.9466 36.4023C50.7602 36.263 50.6204 36.0774 50.6204 35.822C56.19 39.0484 59.9652 43.6676 61.8994 49.7955C65.6513 61.7263 67.166 73.9356 66.9563 86.4003C66.9563 86.911 66.8398 87.1431 66.2805 87.1199C65.4882 87.0967 64.6725 87.1199 63.8569 87.0967Z" fill="#FAB490"/>
<path d="M17.4592 36.3327C17.4126 37.0755 16.7601 37.354 16.3173 37.7718C14.0102 39.9537 12.1926 42.4838 10.8409 45.3621C9.60584 48.0314 9.02324 50.8864 8.30082 53.6951C7.27546 57.641 6.55304 61.6567 6.01705 65.7187C5.57428 69.1076 5.24803 72.4965 5.0616 75.9319C4.85187 79.6689 5.01499 83.3828 4.92178 87.0967C4.10615 87.1199 3.29051 87.0967 2.47488 87.1431C1.91559 87.1663 1.79907 86.9342 1.79907 86.4235C1.82238 81.4794 1.89229 76.5354 2.40497 71.6145C3.15069 64.2564 4.64213 57.0607 6.83269 50.0044C8.58047 44.3639 11.8663 39.9073 16.83 36.6577C17.0397 36.5416 17.2495 36.4488 17.4592 36.3327Z" fill="#FAB490"/>
<path d="M53.9058 59.5908C54.3719 60.7514 55.1875 61.703 55.7934 62.7708C57.5878 65.974 58.7297 69.3861 59.3356 72.9839C59.4288 73.6106 59.5919 74.2142 59.4754 74.8641C59.0559 73.425 58.7996 71.9626 58.2869 70.5467C57.145 67.3203 55.4671 64.4188 53.2067 61.8655C52.7639 61.3781 52.6008 61.0531 53.1834 60.5657C53.463 60.2871 53.6727 59.9158 53.9058 59.5908Z" fill="#FAB490"/>
<path d="M9.67568 75.398C9.62908 73.2393 10.1651 71.1966 10.7477 69.154C11.6332 66.0204 13.0314 63.119 14.8724 60.4496C14.9656 60.3103 15.0122 60.1479 15.0589 59.9854C15.455 60.4728 16.1541 60.9139 16.2007 61.4245C16.224 61.8655 15.5249 62.3762 15.1521 62.8404C12.3323 66.415 10.5845 70.4539 9.81551 74.9337C9.7922 75.073 9.72229 75.2355 9.67568 75.398Z" fill="#FAB490"/>
<path d="M47.8704 18.8311C47.8704 18.2276 47.8937 17.6241 47.8704 17.0206C47.8471 16.5099 47.9636 16.301 48.4763 16.6028C49.3385 17.1134 49.8046 17.8562 49.7813 18.8775C49.758 19.8524 49.3152 20.572 48.453 21.0594C48.0568 21.2915 47.8238 21.2915 47.8471 20.7344C47.8937 20.1077 47.8704 19.4578 47.8704 18.8311Z" fill="#FAB490"/>
<path d="M20.9312 18.8543C20.9312 19.5274 20.9312 20.1774 20.9312 20.8505C20.9312 21.2451 20.8147 21.2915 20.4651 21.1523C19.6029 20.8041 18.9737 19.8524 18.997 18.8079C19.0203 17.8098 19.6495 16.8581 20.4884 16.5563C20.8846 16.4171 20.9312 16.5563 20.9312 16.8813C20.9312 17.5312 20.9312 18.1812 20.9312 18.8543Z" fill="#FAB490"/>
<path d="M59.4993 75.1194C59.8263 75.4676 59.6394 75.8622 59.6628 76.2568C59.4526 75.8854 59.4993 75.4908 59.4993 75.1194Z" fill="#FAB490"/>
<path d="M17.9947 35.9845C18.018 36.4023 17.7617 36.4023 17.4587 36.3559C17.5753 36.147 17.7617 36.0309 17.9947 35.9845Z" fill="#FAB490"/>
<path d="M19.0446 35.3113C18.9978 35.4738 18.8577 35.5202 18.7175 35.5202C18.8343 35.4506 18.9278 35.381 19.0446 35.3113Z" fill="#FAB490"/>
<path d="M49.8051 35.3113C49.735 35.2649 49.6416 35.1953 49.5715 35.1489C49.6416 35.2185 49.735 35.2649 49.8051 35.3113Z" fill="#FAB490"/>
<path d="M22.0496 57.4553C21.4903 57.4785 20.8844 57.3625 20.8145 56.5733C20.7679 55.9234 21.2339 55.5984 22.1195 55.5984C22.772 55.5984 23.3546 55.7144 23.3779 56.5269C23.4245 57.1536 23.005 57.4553 22.0496 57.4553Z" fill="#35313F"/>
<path d="M46.7751 57.4785C46.0527 57.4785 45.4235 57.3625 45.4235 56.5733C45.4002 55.7841 46.0061 55.6216 46.6819 55.6216C47.3577 55.6216 47.9636 55.7609 47.9869 56.5268C47.9869 57.2928 47.381 57.4785 46.7751 57.4785Z" fill="#35313F"/>
<path d="M34.3077 76.3496C31.9773 76.3264 29.7867 75.839 27.8292 74.4695C25.7319 72.9839 25.7785 70.5235 27.8059 68.9915C31.0451 66.5311 37.6867 66.5311 40.9492 68.9683C42.8834 70.4306 42.93 73.0536 40.9492 74.4463C38.9684 75.8854 36.7079 76.3032 34.3077 76.3496Z" fill="#FCC9A4"/>
<path d="M34.4941 85.7272C32.9794 85.7504 31.6977 84.6594 31.5345 83.2203C31.4646 82.5936 31.6044 82.0133 32.3502 81.9204C33.026 81.8508 33.3289 82.2454 33.3988 82.8953C33.4454 83.4988 33.7717 83.9399 34.4475 83.9631C35.1466 83.9631 35.4729 83.5452 35.5428 82.8721C35.6127 82.2454 35.9389 81.8276 36.6147 81.9204C37.2673 82.0133 37.4071 82.5007 37.3838 83.081C37.3372 84.4969 36.0322 85.7272 34.4941 85.7272Z" fill="#35313F"/>
<path d="M34.1208 28.0229C33.212 27.9765 32.2565 27.5819 31.4642 26.7927C31.0447 26.3517 30.9049 25.8874 31.371 25.4232C31.8137 24.9822 32.2565 25.0054 32.7459 25.4232C33.981 26.4677 34.7966 26.4445 36.0084 25.3303C36.4512 24.9125 36.9173 24.7965 37.3833 25.2375C37.8494 25.6785 37.7562 26.1428 37.3833 26.607C36.7075 27.4426 35.4957 28.0229 34.1208 28.0229Z" fill="#FBC8A4"/>
<path d="M39.9937 12.239C40.483 12.239 40.9724 12.239 41.4618 12.239C41.9978 12.239 42.3473 12.4711 42.4173 13.0282C42.4872 13.6084 42.2075 14.0495 41.6482 14.0959C40.553 14.1655 39.4344 14.1655 38.3391 14.0959C37.8031 14.0495 37.4536 13.6084 37.5468 13.0514C37.6167 12.5407 37.9429 12.239 38.5022 12.239C39.0149 12.239 39.5043 12.239 39.9937 12.239Z" fill="#FBC8A4"/>
<path d="M28.8076 12.239C29.297 12.239 29.7864 12.239 30.2758 12.239C30.8351 12.239 31.1613 12.5639 31.2079 13.0514C31.2778 13.6084 30.9516 14.0495 30.3923 14.0959C29.297 14.1655 28.1784 14.1655 27.0832 14.0959C26.5239 14.0495 26.2675 13.5852 26.3374 13.0049C26.4073 12.4943 26.687 12.239 27.1997 12.239C27.759 12.239 28.295 12.239 28.8076 12.239Z" fill="#FBC8A4"/>
<path d="M29.833 16.9973C29.7864 17.2991 29.7864 17.6008 29.6932 17.8562C29.5067 18.4365 28.8775 18.6918 28.3649 18.39C27.7124 18.0186 27.8289 17.3687 27.8289 16.7652C27.8289 16.2546 27.8755 15.7439 28.4348 15.535C28.9941 15.3261 29.4834 15.4654 29.6932 16.0689C29.7864 16.3706 29.7864 16.6956 29.833 16.9973Z" fill="#FBC8A4"/>
<path d="M38.9685 16.9509C38.9918 16.6956 39.0151 16.4171 39.085 16.1385C39.1782 15.6743 39.5511 15.4654 39.9706 15.4654C40.4133 15.4654 40.7629 15.6511 40.8794 16.1153C41.0192 16.6492 41.0192 17.2063 40.9027 17.7401C40.8095 18.2276 40.5066 18.4829 39.9939 18.4829C39.4812 18.4829 39.1782 18.2276 39.0617 17.7634C39.0151 17.508 38.9918 17.2527 38.9685 16.9509Z" fill="#FBC8A4"/>
</svg>
