<svg width="182" height="75" viewBox="0 0 182 75" fill="none" xmlns="http://www.w3.org/2000/svg">
<path d="M30.661 69.3558H29.1356V73.627H28.5254V69.3558H27V68.8474H30.661V69.3558Z" fill="white"/>
<path d="M36.2034 73.627C35.7458 73.627 35.339 73.4745 35.0339 73.1694C34.7288 72.8643 34.5763 72.4067 34.5763 71.8982V71.7965C34.5763 71.4406 34.6271 71.1355 34.7797 70.8304C34.9322 70.5253 35.0847 70.3219 35.339 70.1694C35.5932 70.0169 35.8474 69.9152 36.1017 69.9152C36.5593 69.9152 36.9152 70.0677 37.1695 70.3728C37.4237 70.6779 37.5763 71.1355 37.5763 71.6948V71.9491H35.1864C35.1864 72.305 35.2881 72.5592 35.4915 72.8135C35.6949 73.0677 35.9491 73.1185 36.2542 73.1185C36.4576 73.1185 36.661 73.0677 36.8135 72.966C36.9661 72.8643 37.0678 72.7626 37.2203 72.6101L37.5763 72.9152C37.2712 73.4236 36.8136 73.627 36.2034 73.627ZM36.1525 70.4745C35.8983 70.4745 35.6949 70.5762 35.5424 70.7287C35.3898 70.9321 35.2881 71.1355 35.2373 71.4914H37.0169V71.4406C37.0169 71.1355 36.9152 70.8813 36.7627 70.7287C36.6102 70.5762 36.4068 70.4745 36.1525 70.4745Z" fill="white"/>
<path d="M43.4746 73.1695C43.678 73.1695 43.8813 73.1187 44.0339 72.9661C44.1864 72.8136 44.2881 72.661 44.2881 72.4576H44.8475C44.8475 72.661 44.7457 72.8644 44.6441 73.017C44.5424 73.2204 44.339 73.3221 44.1356 73.4746C43.9322 73.6271 43.678 73.6271 43.4746 73.6271C42.9661 73.6271 42.6102 73.4746 42.3051 73.1187C42 72.7627 41.8983 72.3559 41.8983 71.7966V71.6949C41.8983 71.339 41.9491 71.0339 42.1017 70.7797C42.2034 70.5254 42.4068 70.3221 42.661 70.1695C42.9152 70.017 43.1695 69.9661 43.4746 69.9661C43.8813 69.9661 44.1864 70.0678 44.4407 70.322C44.6949 70.5763 44.8475 70.8814 44.8475 71.2373H44.2881C44.2881 70.9831 44.1864 70.8305 44.0339 70.678C43.8813 70.5254 43.678 70.4746 43.4746 70.4746C43.1695 70.4746 42.9152 70.5763 42.7627 70.7797C42.6102 70.9831 42.5085 71.339 42.5085 71.7458V71.8475C42.5085 72.2543 42.6102 72.5593 42.7627 72.8136C42.9152 73.017 43.1695 73.1695 43.4746 73.1695Z" fill="white"/>
<path d="M49.9322 70.4746C50.1864 70.1695 50.5424 69.9661 51 69.9661C51.7627 69.9661 52.1186 70.3729 52.1186 71.2373V73.5763H51.5085V71.2373C51.5085 70.983 51.4576 70.7797 51.3559 70.678C51.2542 70.5763 51.0508 70.4746 50.8475 70.4746C50.6441 70.4746 50.4915 70.5254 50.339 70.6271C50.1864 70.7288 50.0847 70.8813 49.983 71.0339V73.5763H49.3729V68.5424H49.983L49.9322 70.4746Z" fill="white"/>
<path d="M57.4068 70.017V70.4746C57.661 70.1187 58.0169 69.9661 58.4746 69.9661C59.2373 69.9661 59.5932 70.3729 59.5932 71.2373V73.5763H58.983V71.2373C58.983 70.9831 58.9322 70.7797 58.8305 70.678C58.7288 70.5763 58.5254 70.4746 58.322 70.4746C58.1186 70.4746 57.9661 70.5254 57.8136 70.6271C57.661 70.7288 57.5593 70.8814 57.4576 71.0339V73.5763H56.8474V70.017H57.4068Z" fill="white"/>
<path d="M64.1186 71.7458C64.1186 71.3899 64.1695 71.0848 64.322 70.8305C64.4746 70.5763 64.6271 70.3221 64.8813 70.1695C65.1356 70.017 65.3898 69.9661 65.6949 69.9661C66.2034 69.9661 66.5593 70.1187 66.8644 70.4746C67.1695 70.7797 67.322 71.2373 67.322 71.7966V71.8475C67.322 72.2034 67.2712 72.5085 67.1186 72.7627C66.9661 73.017 66.8135 73.2712 66.5593 73.4237C66.3051 73.5763 66.0508 73.678 65.6949 73.678C65.2373 73.678 64.8305 73.5254 64.5254 73.1695C64.2712 72.8136 64.1186 72.356 64.1186 71.7458ZM64.7288 71.8475C64.7288 72.2543 64.8305 72.5593 64.983 72.8136C65.1356 73.0678 65.3898 73.1695 65.6949 73.1695C66 73.1695 66.2542 73.0678 66.4068 72.8136C66.6102 72.5593 66.661 72.2542 66.661 71.7966C66.661 71.3898 66.5593 71.0848 66.4068 70.8305C66.2034 70.5763 66 70.4746 65.6949 70.4746C65.3898 70.4746 65.1356 70.5763 64.983 70.8305C64.8305 71.0848 64.7288 71.3898 64.7288 71.8475Z" fill="white"/>
<path d="M72.5085 73.5763H71.9491V68.5424H72.5593V73.5763H72.5085Z" fill="white"/>
<path d="M77.1356 71.7458C77.1356 71.3899 77.1864 71.0848 77.339 70.8305C77.4915 70.5763 77.6441 70.3221 77.8983 70.1695C78.1525 70.017 78.4068 69.9661 78.7118 69.9661C79.2203 69.9661 79.5763 70.1187 79.8813 70.4746C80.1864 70.7797 80.339 71.2373 80.339 71.7966V71.8475C80.339 72.2034 80.2881 72.5085 80.1356 72.7627C79.983 73.017 79.8305 73.2712 79.5763 73.4237C79.322 73.5763 79.0678 73.678 78.7118 73.678C78.2542 73.678 77.8474 73.5254 77.5424 73.1695C77.2881 72.8136 77.1356 72.356 77.1356 71.7458ZM77.7457 71.8475C77.7457 72.2543 77.8474 72.5593 78 72.8136C78.1525 73.0678 78.4068 73.1695 78.7118 73.1695C79.0169 73.1695 79.2712 73.0678 79.4237 72.8136C79.6271 72.5593 79.678 72.2542 79.678 71.7966C79.678 71.3898 79.5763 71.0848 79.4237 70.8305C79.2203 70.5763 79.0169 70.4746 78.7118 70.4746C78.4068 70.4746 78.1525 70.5763 78 70.8305C77.7966 71.0848 77.7457 71.3898 77.7457 71.8475Z" fill="white"/>
<path d="M84.7118 71.7966C84.7118 71.2373 84.8135 70.8305 85.1186 70.4746C85.3729 70.1695 85.7288 69.9661 86.1356 69.9661C86.5932 69.9661 86.8983 70.1187 87.1525 70.4237L87.2034 70.017H87.7627V73.4746C87.7627 73.9322 87.6101 74.2882 87.3559 74.5424C87.1017 74.7966 86.7458 74.9492 86.2881 74.9492C86.0339 74.9492 85.7796 74.8983 85.5254 74.7966C85.2712 74.6949 85.0678 74.5424 84.9661 74.339L85.2712 73.9831C85.5254 74.2882 85.8305 74.4407 86.2373 74.4407C86.5424 74.4407 86.7457 74.339 86.9491 74.1865C87.1525 74.0339 87.2034 73.7797 87.2034 73.4746V73.1695C86.9491 73.4237 86.644 73.5763 86.1864 73.5763C85.7796 73.5763 85.4237 73.4237 85.1695 73.0678C84.8644 72.8136 84.7118 72.3559 84.7118 71.7966ZM85.322 71.8475C85.322 72.2543 85.4237 72.5593 85.5762 72.8136C85.7288 73.0678 85.983 73.1695 86.2881 73.1695C86.6949 73.1695 86.9491 73.017 87.1017 72.661V71.0339C86.8983 70.678 86.6441 70.5254 86.2881 70.5254C85.983 70.5254 85.7796 70.6271 85.5762 70.8814C85.4237 71.0339 85.322 71.3898 85.322 71.8475Z" fill="white"/>
<path d="M93.5593 72.661L94.3729 70.017H95.0339L93.6102 74.0848C93.4068 74.6949 93.0508 74.9492 92.5424 74.9492H92.4407L92.2373 74.8983V74.3898H92.3898C92.5932 74.3898 92.7457 74.339 92.8474 74.2882C92.9491 74.2373 93.0508 74.0339 93.1525 73.8305L93.3051 73.4746L92.0339 69.9661H92.6949L93.5593 72.661Z" fill="white"/>
<path d="M108.407 72.0508C108.356 72.5593 108.153 72.9661 107.847 73.2203C107.542 73.4745 107.136 73.6271 106.576 73.6271C106.017 73.6271 105.559 73.4237 105.203 73.0169C104.847 72.6101 104.695 72.0508 104.695 71.3898V70.9322C104.695 70.4745 104.797 70.1186 104.949 69.7627C105.102 69.4067 105.356 69.1525 105.61 69C105.915 68.7966 106.22 68.7457 106.627 68.7457C107.136 68.7457 107.542 68.8983 107.847 69.1525C108.153 69.4576 108.356 69.8135 108.356 70.322H107.746C107.695 69.9152 107.593 69.661 107.39 69.5084C107.186 69.3559 106.932 69.2542 106.627 69.2542C106.22 69.2542 105.915 69.4068 105.661 69.7118C105.407 70.0169 105.305 70.4237 105.305 70.983V71.4407C105.305 71.9491 105.407 72.3559 105.61 72.661C105.814 72.9661 106.119 73.1186 106.525 73.1186C106.881 73.1186 107.136 73.0678 107.339 72.8644C107.542 72.7118 107.644 72.4067 107.695 72.0508H108.407Z" fill="white"/>
<path d="M112.78 71.7458C112.78 71.3899 112.83 71.0848 112.983 70.8305C113.136 70.5763 113.288 70.3221 113.542 70.1695C113.797 70.017 114.051 69.9661 114.356 69.9661C114.864 69.9661 115.22 70.1187 115.525 70.4746C115.83 70.7797 115.983 71.2373 115.983 71.7966V71.8475C115.983 72.2034 115.932 72.5085 115.78 72.7627C115.627 73.017 115.475 73.2712 115.22 73.4237C114.966 73.5763 114.712 73.678 114.356 73.678C113.898 73.678 113.492 73.5254 113.186 73.1695C112.932 72.8136 112.78 72.356 112.78 71.7458ZM113.39 71.8475C113.39 72.2543 113.492 72.5593 113.644 72.8136C113.797 73.0678 114.051 73.1695 114.356 73.1695C114.661 73.1695 114.915 73.0678 115.068 72.8136C115.271 72.5593 115.322 72.2542 115.322 71.7966C115.322 71.3898 115.22 71.0848 115.068 70.8305C114.864 70.5763 114.661 70.4746 114.356 70.4746C114.051 70.4746 113.797 70.5763 113.644 70.8305C113.441 71.0848 113.39 71.3898 113.39 71.8475Z" fill="white"/>
<path d="M121.068 70.017V70.4237C121.322 70.1187 121.678 69.9661 122.136 69.9661C122.644 69.9661 122.949 70.1695 123.153 70.5254C123.254 70.3729 123.407 70.2204 123.61 70.1187C123.814 70.017 124.017 69.9661 124.271 69.9661C125.034 69.9661 125.441 70.3729 125.441 71.1865V73.5763H124.83V71.2373C124.83 70.9831 124.78 70.7797 124.678 70.678C124.576 70.5763 124.373 70.4746 124.119 70.4746C123.915 70.4746 123.712 70.5254 123.559 70.678C123.407 70.8305 123.305 70.9831 123.305 71.2373V73.5763H122.695V71.2881C122.695 70.7797 122.441 70.5254 121.932 70.5254C121.525 70.5254 121.271 70.678 121.119 71.0339V73.6271H120.508V70.0678L121.068 70.017Z" fill="white"/>
<path d="M133.169 71.8475C133.169 72.4068 133.068 72.8136 132.814 73.1695C132.559 73.4746 132.254 73.678 131.797 73.678C131.39 73.678 131.034 73.5254 130.78 73.2712V75H130.169V70.1187H130.729L130.78 70.5254C131.034 70.2203 131.39 70.0678 131.797 70.0678C132.203 70.0678 132.559 70.2203 132.814 70.5254C133.017 70.7797 133.169 71.2373 133.169 71.8475ZM132.559 71.7966C132.559 71.3898 132.458 71.0848 132.305 70.8305C132.153 70.5763 131.898 70.4746 131.593 70.4746C131.237 70.4746 130.932 70.6271 130.78 70.9831V72.661C130.983 72.9661 131.237 73.1695 131.593 73.1695C131.898 73.1695 132.102 73.0678 132.305 72.8136C132.458 72.5593 132.559 72.2034 132.559 71.7966Z" fill="white"/>
<path d="M139.881 73.5762C139.83 73.5253 139.83 73.3728 139.78 73.2202C139.525 73.5253 139.169 73.6779 138.763 73.6779C138.407 73.6779 138.153 73.5762 137.898 73.3728C137.695 73.1694 137.542 72.9152 137.542 72.6101C137.542 72.2541 137.695 71.9491 137.949 71.7457C138.203 71.5423 138.61 71.4406 139.119 71.4406H139.729V71.1355C139.729 70.9321 139.678 70.7287 139.525 70.627C139.424 70.5253 139.22 70.4236 138.966 70.4236C138.763 70.4236 138.559 70.4745 138.407 70.5762C138.254 70.6779 138.203 70.8304 138.203 70.983H137.593C137.593 70.7796 137.644 70.627 137.797 70.4745C137.898 70.3219 138.102 70.1694 138.305 70.0677C138.508 69.966 138.763 69.9152 139.017 69.9152C139.424 69.9152 139.729 70.0169 139.983 70.2202C140.237 70.4236 140.339 70.7287 140.339 71.0338V72.6609C140.339 72.966 140.39 73.2202 140.441 73.4236V73.4745L139.881 73.5762ZM138.864 73.1185C139.068 73.1185 139.22 73.0677 139.424 72.966C139.627 72.8643 139.729 72.7626 139.78 72.5592V71.8474H139.322C138.559 71.8474 138.203 72.0508 138.203 72.5084C138.203 72.7118 138.254 72.8643 138.407 72.966C138.508 73.0677 138.661 73.1185 138.864 73.1185Z" fill="white"/>
<path d="M145.678 70.017V70.4746C145.932 70.1187 146.288 69.9661 146.746 69.9661C147.508 69.9661 147.864 70.3729 147.864 71.2373V73.5763H147.254V71.2373C147.254 70.9831 147.203 70.7797 147.102 70.678C147 70.5763 146.797 70.4746 146.593 70.4746C146.39 70.4746 146.237 70.5254 146.085 70.6271C145.932 70.7288 145.83 70.8814 145.729 71.0339V73.5763H145.119V70.017H145.678Z" fill="white"/>
<path d="M153.763 72.661L154.576 70.017H155.237L153.814 74.0848C153.61 74.6949 153.254 74.9492 152.746 74.9492H152.644L152.441 74.8983V74.3898H152.593C152.797 74.3898 152.949 74.339 153.051 74.2882C153.153 74.1865 153.254 74.0339 153.356 73.8305L153.508 73.4746L152.237 69.9661H152.898L153.763 72.661Z" fill="white"/>
<path d="M27.1017 63.7627V45.4576H32.2881C33.8644 45.4576 35.2881 45.8136 36.5085 46.5254C37.7288 47.2373 38.6949 48.2543 39.3559 49.5254C40.0169 50.7966 40.3729 52.322 40.3729 54V55.1695C40.3729 56.8983 40.0678 58.4237 39.3559 59.6949C38.6949 60.9661 37.7288 61.9831 36.5085 62.6949C35.2881 63.4068 33.8135 63.7627 32.1864 63.7627H27.1017ZM29.5424 47.4915V61.8305H32.0847C33.9661 61.8305 35.3898 61.2712 36.4068 60.1017C37.4237 58.9322 37.9322 57.3051 37.9322 55.1695V54.1017C37.9322 52.017 37.4237 50.3898 36.4576 49.2712C35.4915 48.1017 34.1186 47.5424 32.2881 47.4915H29.5424Z" fill="white"/>
<path d="M98.0339 63.7627H95.5932L86.3898 49.678V63.7627H83.9491V45.4576H86.3898L95.6441 59.6441V45.4576H98.0339V63.7627Z" fill="white"/>
<path d="M145.932 55.2712L143.695 57.6102V63.8136H141.305V45.5085H143.695V54.5593L151.83 45.5085H154.729L147.508 53.5932L155.288 63.8136H152.39L145.932 55.2712Z" fill="white"/>
<path d="M62.339 48.4576L67.9322 63.7627H70.4237L63.4068 45.5085H61.322L54.3051 63.7627H56.7966L62.339 48.4576Z" fill="white"/>
<path d="M119.644 48.4576L125.237 63.7627H127.678L120.712 45.5085H118.576L111.61 63.7627H114.102L119.644 48.4576Z" fill="white"/>
<path d="M97.0169 24.5593C97.0169 24.5593 92.4407 28.983 88.6271 32.6949V37.7796C88.2203 38.0847 102.203 24.6101 102.203 24.6101L88.6271 10.3729V15.8135L97.0169 24.5593Z" fill="white"/>
<path d="M88.5763 27.5593L75.0508 13.1695L75.2542 12.9661L88.7288 27.4067L88.5763 27.5593Z" fill="white"/>
<path d="M88.5763 26.2373L76.322 13.1695L76.4746 13.0169L88.7288 26.0338L88.5763 26.2373Z" fill="white"/>
<path d="M88.5763 24.8644L77.5424 13.2203L77.7457 13.0169L88.7288 24.7118L88.5763 24.8644Z" fill="white"/>
<path d="M88.5763 23.4915L78.8135 13.2203L78.9661 13.0677L88.7288 23.3389L88.5763 23.4915Z" fill="white"/>
<path d="M88.5254 22.1694L80.0339 13.2203L80.1864 13.0677L88.7288 22.0169L88.5254 22.1694Z" fill="white"/>
<path d="M75.3559 13.2203L75.1525 13.0678L88.5763 0L88.7288 0.152536L75.3559 13.2203Z" fill="white"/>
<path d="M76.5763 13.2205L76.4237 13.0679L88.5763 1.22046L88.7288 1.42385L76.5763 13.2205Z" fill="white"/>
<path d="M77.8475 13.2204L77.6949 13.0679L88.5254 2.44073L88.7288 2.64413L77.8475 13.2204Z" fill="white"/>
<path d="M79.1186 13.2203L78.9153 13.0678L88.5254 3.71185L88.678 3.8644L79.1186 13.2203Z" fill="white"/>
<path d="M80.339 13.2711L80.1864 13.1186L88.5254 4.93213L88.678 5.08467L80.339 13.2711Z" fill="white"/>
</svg>
